solid Visualization Toolkit generated SLA File
 facet normal 0 0 -1
  outer loop
   vertex -0.38309350609779358 0.59712231159210205 0.98705035448074341
   vertex -0.61690646409988403 0.40827339887619019 0.98705035448074341
   vertex -0.61690646409988403 0.59712231159210205 0.98705035448074341
  endloop
 endfacet
 facet normal 0 0 -1
  outer loop
   vertex -0.38309350609779358 0.59712231159210205 0.98705035448074341
   vertex -0.38309350609779358 0.40827339887619019 0.98705035448074341
   vertex -0.61690646409988403 0.40827339887619019 0.98705035448074341
  endloop
 endfacet
endsolid
