solid Visualization Toolkit generated SLA File
 facet normal 1.2246468363823733e-16 -0 1
  outer loop
   vertex -54.959999084472656 55.919998168945312 6.7306589006377576e-15
   vertex 0 0 0
   vertex 0 55.919998168945312 0
  endloop
 endfacet
 facet normal 1.2246467896078089e-16 -4.5971568382204566e-24 1
  outer loop
   vertex -54.959999084472656 55.919998168945312 6.7306589006377576e-15
   vertex -55.279998779296875 0 6.7698473034589514e-15
   vertex 0 0 0
  endloop
 endfacet
 facet normal -1.224646727362487e-16 -2.2967877596000936e-24 -1
  outer loop
   vertex -13 6.5 1.5920408818909386e-15
   vertex -24 27.200000762939453 2.939152234446166e-15
   vertex -8.1999998092651367 22.5 1.004210392650058e-15
  endloop
 endfacet
 facet normal -1.224646806289301e-16 -6.4909661249289006e-24 -1
  outer loop
   vertex -13 6.5 1.5920408818909386e-15
   vertex -29 11.399999618530273 3.5514757401480888e-15
   vertex -24 27.200000762939453 2.939152234446166e-15
  endloop
 endfacet
 facet normal -1.2246470171306906e-16 6.9795669527305577e-24 -1
  outer loop
   vertex -42.299999237060547 24.700000762939453 5.1802561467305906e-15
   vertex -31.399999618530273 45.599998474121094 3.8453910906476475e-15
   vertex -26.5 29.600000381469727 3.2453139872971274e-15
  endloop
 endfacet
 facet normal -1.2246465195683744e-16 -1.8969857211073788e-23 -1
  outer loop
   vertex -42.299999237060547 24.700000762939453 5.1802561467305906e-15
   vertex -47.200000762939453 40.599998474121094 5.7803328265646371e-15
   vertex -31.399999618530273 45.599998474121094 3.8453910906476475e-15
  endloop
 endfacet
 facet normal 0.29620906282203546 -0.95512312876513028 0
  outer loop
   vertex -42.299999237060547 24.700000762939453 5.1802561467305906e-15
   vertex -26.5 29.600000381469727 33
   vertex -42.299999237060547 24.700000762939453 33
  endloop
 endfacet
 facet normal 0.29620906282203541 -0.95512312876513017 0
  outer loop
   vertex -42.299999237060547 24.700000762939453 5.1802561467305906e-15
   vertex -26.5 29.600000381469727 3.2453139872971274e-15
   vertex -26.5 29.600000381469727 33
  endloop
 endfacet
 facet normal 0 0 -1
  outer loop
   vertex -55.599998474121094 55.919998168945312 54.880001068115234
   vertex -21.299999237060547 33.200000762939453 54.880001068115234
   vertex -34.299999237060547 33.200000762939453 54.880001068115234
  endloop
 endfacet
 facet normal -0 0 -1
  outer loop
   vertex -55.599998474121094 55.919998168945312 54.880001068115234
   vertex 6.7208616940533407e-15 55.919998168945312 54.880001068115234
   vertex -21.299999237060547 33.200000762939453 54.880001068115234
  endloop
 endfacet
 facet normal 0 -1 0
  outer loop
   vertex -55.599998474121094 55.919998168945312 54.880001068115234
   vertex 0 55.919998168945312 0
   vertex 6.7208616940533407e-15 55.919998168945312 54.880001068115234
  endloop
 endfacet
 facet normal 0 -1 0
  outer loop
   vertex -55.599998474121094 55.919998168945312 54.880001068115234
   vertex -54.959999084472656 55.919998168945312 6.7306589006377576e-15
   vertex 0 55.919998168945312 0
  endloop
 endfacet
 facet normal -1 0 1.2246467863059315e-16
  outer loop
   vertex 6.7208616940533407e-15 55.919998168945312 54.880001068115234
   vertex 0 0 0
   vertex 6.7208616940533407e-15 0 54.880001068115234
  endloop
 endfacet
 facet normal -1 0 1.2246467863059315e-16
  outer loop
   vertex 6.7208616940533407e-15 55.919998168945312 54.880001068115234
   vertex 0 55.919998168945312 0
   vertex 0 0 0
  endloop
 endfacet
 facet normal 0.99993200818928396 0 0.011661003324996045
  outer loop
   vertex -55.599998474121094 0 54.880001068115234
   vertex -54.959999084472656 55.919998168945312 6.7306589006377576e-15
   vertex -55.599998474121094 55.919998168945312 54.880001068115234
  endloop
 endfacet
 facet normal 0.99996662873628328 -0.0057222644225284796 0.0058307035313802892
  outer loop
   vertex -55.599998474121094 0 54.880001068115234
   vertex -55.279998779296875 0 6.7698473034589514e-15
   vertex -54.959999084472656 55.919998168945312 6.7306589006377576e-15
  endloop
 endfacet
 facet normal 0 0 1
  outer loop
   vertex -29 11.399999618530273 16.5
   vertex -8.1999998092651367 22.5 16.5
   vertex -24 27.200000762939453 16.5
  endloop
 endfacet
 facet normal 0 -0 1
  outer loop
   vertex -29 11.399999618530273 16.5
   vertex -13 6.5 16.5
   vertex -8.1999998092651367 22.5 16.5
  endloop
 endfacet
 facet normal -0.95340010321783342 0.30170887157030157 0
  outer loop
   vertex -24 27.200000762939453 2.939152234446166e-15
   vertex -29 11.399999618530273 16.5
   vertex -24 27.200000762939453 16.5
  endloop
 endfacet
 facet normal -0.95340010321783342 0.30170887157030157 0
  outer loop
   vertex -24 27.200000762939453 2.939152234446166e-15
   vertex -29 11.399999618530273 3.5514757401480888e-15
   vertex -29 11.399999618530273 16.5
  endloop
 endfacet
 facet normal -0.29282575945980582 -0.95616581961330749 0
  outer loop
   vertex -29 11.399999618530273 3.5514757401480888e-15
   vertex -13 6.5 16.5
   vertex -29 11.399999618530273 16.5
  endloop
 endfacet
 facet normal -0.29282575945980582 -0.95616581961330749 0
  outer loop
   vertex -29 11.399999618530273 3.5514757401480888e-15
   vertex -13 6.5 1.5920408818909386e-15
   vertex -13 6.5 16.5
  endloop
 endfacet
 facet normal 0.95782628207853326 -0.28734789604173905 0
  outer loop
   vertex -13 6.5 1.5920408818909386e-15
   vertex -8.1999998092651367 22.5 16.5
   vertex -13 6.5 16.5
  endloop
 endfacet
 facet normal 0.95782628207853326 -0.28734789604173905 0
  outer loop
   vertex -13 6.5 1.5920408818909386e-15
   vertex -8.1999998092651367 22.5 1.004210392650058e-15
   vertex -8.1999998092651367 22.5 16.5
  endloop
 endfacet
 facet normal 0.28512094612613681 0.95849154721371266 0
  outer loop
   vertex -8.1999998092651367 22.5 1.004210392650058e-15
   vertex -24 27.200000762939453 16.5
   vertex -8.1999998092651367 22.5 16.5
  endloop
 endfacet
 facet normal 0.28512094612613681 0.95849154721371266 -0
  outer loop
   vertex -8.1999998092651367 22.5 1.004210392650058e-15
   vertex -24 27.200000762939453 2.939152234446166e-15
   vertex -24 27.200000762939453 16.5
  endloop
 endfacet
 facet normal 0 0 1
  outer loop
   vertex -47.200000762939453 40.599998474121094 33
   vertex -26.5 29.600000381469727 33
   vertex -31.399999618530273 45.599998474121094 33
  endloop
 endfacet
 facet normal 0 -0 1
  outer loop
   vertex -47.200000762939453 40.599998474121094 33
   vertex -42.299999237060547 24.700000762939453 33
   vertex -26.5 29.600000381469727 33
  endloop
 endfacet
 facet normal -0.95564892369807986 -0.29450829298120212 0
  outer loop
   vertex -47.200000762939453 40.599998474121094 5.7803328265646371e-15
   vertex -42.299999237060547 24.700000762939453 33
   vertex -47.200000762939453 40.599998474121094 33
  endloop
 endfacet
 facet normal -0.95564892369807986 -0.29450829298120212 0
  outer loop
   vertex -47.200000762939453 40.599998474121094 5.7803328265646371e-15
   vertex -42.299999237060547 24.700000762939453 5.1802561467305906e-15
   vertex -42.299999237060547 24.700000762939453 33
  endloop
 endfacet
 facet normal -0.30170887157030157 0.95340010321783342 0
  outer loop
   vertex -31.399999618530273 45.599998474121094 3.8453910906476475e-15
   vertex -47.200000762939453 40.599998474121094 33
   vertex -31.399999618530273 45.599998474121094 33
  endloop
 endfacet
 facet normal -0.30170887157030157 0.95340010321783342 0
  outer loop
   vertex -31.399999618530273 45.599998474121094 3.8453910906476475e-15
   vertex -47.200000762939453 40.599998474121094 5.7803328265646371e-15
   vertex -47.200000762939453 40.599998474121094 33
  endloop
 endfacet
 facet normal 0.95616580983954125 0.29282579137414466 0
  outer loop
   vertex -26.5 29.600000381469727 3.2453139872971274e-15
   vertex -31.399999618530273 45.599998474121094 33
   vertex -26.5 29.600000381469727 33
  endloop
 endfacet
 facet normal 0.95616580983954125 0.29282579137414472 -0
  outer loop
   vertex -26.5 29.600000381469727 3.2453139872971274e-15
   vertex -31.399999618530273 45.599998474121094 3.8453910906476475e-15
   vertex -31.399999618530273 45.599998474121094 33
  endloop
 endfacet
 facet normal 0 0 -1
  outer loop
   vertex 6.7208616940533407e-15 0 54.880001068115234
   vertex -34.299999237060547 22.700000762939453 54.880001068115234
   vertex -21.299999237060547 22.700000762939453 54.880001068115234
  endloop
 endfacet
 facet normal 0 0 -1
  outer loop
   vertex 6.7208616940533407e-15 0 54.880001068115234
   vertex -55.599998474121094 0 54.880001068115234
   vertex -34.299999237060547 22.700000762939453 54.880001068115234
  endloop
 endfacet
 facet normal 0 0 -1
  outer loop
   vertex 6.7208616940533407e-15 55.919998168945312 54.880001068115234
   vertex -21.299999237060547 22.700000762939453 54.880001068115234
   vertex -21.299999237060547 33.200000762939453 54.880001068115234
  endloop
 endfacet
 facet normal 0 0 -1
  outer loop
   vertex 6.7208616940533407e-15 55.919998168945312 54.880001068115234
   vertex 6.7208616940533407e-15 0 54.880001068115234
   vertex -21.299999237060547 22.700000762939453 54.880001068115234
  endloop
 endfacet
 facet normal 0 -0 -1
  outer loop
   vertex -55.599998474121094 0 54.880001068115234
   vertex -34.299999237060547 33.200000762939453 54.880001068115234
   vertex -34.299999237060547 22.700000762939453 54.880001068115234
  endloop
 endfacet
 facet normal 0 0 -1
  outer loop
   vertex -55.599998474121094 0 54.880001068115234
   vertex -55.599998474121094 55.919998168945312 54.880001068115234
   vertex -34.299999237060547 33.200000762939453 54.880001068115234
  endloop
 endfacet
 facet normal 0 0 -1
  outer loop
   vertex -21.299999237060547 33.200000762939453 54.880001068115234
   vertex -34.299999237060547 22.700000762939453 54.880001068115234
   vertex -34.299999237060547 33.200000762939453 54.880001068115234
  endloop
 endfacet
 facet normal 0 0 -1
  outer loop
   vertex -21.299999237060547 33.200000762939453 54.880001068115234
   vertex -21.299999237060547 22.700000762939453 54.880001068115234
   vertex -34.299999237060547 22.700000762939453 54.880001068115234
  endloop
 endfacet
endsolid
