solid Visualization Toolkit generated SLA File
 facet normal 1.2105501067604882e-16 -0 1
  outer loop
   vertex -1 1.0057553052902222 1.2105501067604882e-16
   vertex 0 0 0
   vertex 0 1.0057553052902222 0
  endloop
 endfacet
 facet normal 1.217598479672828e-16 7.0080395054997579e-19 1
  outer loop
   vertex -1 1.0057553052902222 1.2105501067604882e-16
   vertex -1 0 1.217598479672828e-16
   vertex 0 0 0
  endloop
 endfacet
 facet normal 0 0 -1
  outer loop
   vertex -1 1.0057553052902222 0.98705035448074341
   vertex -0.38309350609779358 0.59712231159210205 0.98705035448074341
   vertex -0.61690646409988403 0.59712231159210205 0.98705035448074341
  endloop
 endfacet
 facet normal -0 0 -1
  outer loop
   vertex -1 1.0057553052902222 0.98705035448074341
   vertex 1.2087880135324032e-16 1.0057553052902222 0.98705035448074341
   vertex -0.38309350609779358 0.59712231159210205 0.98705035448074341
  endloop
 endfacet
 facet normal 0 -1 0
  outer loop
   vertex -1 1.0057553052902222 0.98705035448074341
   vertex 0 1.0057553052902222 0
   vertex 1.2087880135324032e-16 1.0057553052902222 0.98705035448074341
  endloop
 endfacet
 facet normal 0 -1 0
  outer loop
   vertex -1 1.0057553052902222 0.98705035448074341
   vertex -1 1.0057553052902222 1.2105501067604882e-16
   vertex 0 1.0057553052902222 0
  endloop
 endfacet
 facet normal -1 0 1.2246467548945961e-16
  outer loop
   vertex 1.2087880135324032e-16 1.0057553052902222 0.98705035448074341
   vertex 0 0 0
   vertex 1.2087880135324032e-16 0 0.98705035448074341
  endloop
 endfacet
 facet normal -1 0 1.2246467548945961e-16
  outer loop
   vertex 1.2087880135324032e-16 1.0057553052902222 0.98705035448074341
   vertex 0 1.0057553052902222 0
   vertex 0 0 0
  endloop
 endfacet
 facet normal 1 0 -0
  outer loop
   vertex -1 0 0.98705035448074341
   vertex -1 1.0057553052902222 1.2105501067604882e-16
   vertex -1 1.0057553052902222 0.98705035448074341
  endloop
 endfacet
 facet normal 1 -0 0
  outer loop
   vertex -1 0 0.98705035448074341
   vertex -1 0 1.217598479672828e-16
   vertex -1 1.0057553052902222 1.2105501067604882e-16
  endloop
 endfacet
 facet normal 0 0 -1
  outer loop
   vertex 1.2087880135324032e-16 0 0.98705035448074341
   vertex -0.61690646409988403 0.40827339887619019 0.98705035448074341
   vertex -0.38309350609779358 0.40827339887619019 0.98705035448074341
  endloop
 endfacet
 facet normal 0 0 -1
  outer loop
   vertex 1.2087880135324032e-16 0 0.98705035448074341
   vertex -1 0 0.98705035448074341
   vertex -0.61690646409988403 0.40827339887619019 0.98705035448074341
  endloop
 endfacet
 facet normal 0 0 -1
  outer loop
   vertex 1.2087880135324032e-16 1.0057553052902222 0.98705035448074341
   vertex -0.38309350609779358 0.40827339887619019 0.98705035448074341
   vertex -0.38309350609779358 0.59712231159210205 0.98705035448074341
  endloop
 endfacet
 facet normal 0 0 -1
  outer loop
   vertex 1.2087880135324032e-16 1.0057553052902222 0.98705035448074341
   vertex 1.2087880135324032e-16 0 0.98705035448074341
   vertex -0.38309350609779358 0.40827339887619019 0.98705035448074341
  endloop
 endfacet
 facet normal 0 -0 -1
  outer loop
   vertex -1 0 0.98705035448074341
   vertex -0.61690646409988403 0.59712231159210205 0.98705035448074341
   vertex -0.61690646409988403 0.40827339887619019 0.98705035448074341
  endloop
 endfacet
 facet normal 0 0 -1
  outer loop
   vertex -1 0 0.98705035448074341
   vertex -1 1.0057553052902222 0.98705035448074341
   vertex -0.61690646409988403 0.59712231159210205 0.98705035448074341
  endloop
 endfacet
 facet normal 0 0 -1
  outer loop
   vertex -0.38309350609779358 0.59712231159210205 0.98705035448074341
   vertex -0.61690646409988403 0.40827339887619019 0.98705035448074341
   vertex -0.61690646409988403 0.59712231159210205 0.98705035448074341
  endloop
 endfacet
 facet normal 0 0 -1
  outer loop
   vertex -0.38309350609779358 0.59712231159210205 0.98705035448074341
   vertex -0.38309350609779358 0.40827339887619019 0.98705035448074341
   vertex -0.61690646409988403 0.40827339887619019 0.98705035448074341
  endloop
 endfacet
 facet normal 0 -0 -1
  outer loop
   vertex -1.9870504140853882 0 -0.98705035448074341
   vertex 0.98705035448074341 1.9928058385848999 -0.98705035448074341
   vertex 0.98705035448074341 0 -0.98705035448074341
  endloop
 endfacet
 facet normal 0 0 -1
  outer loop
   vertex -1.9870504140853882 0 -0.98705035448074341
   vertex -1.9870504140853882 1.9928058385848999 -0.98705035448074341
   vertex 0.98705035448074341 1.9928058385848999 -0.98705035448074341
  endloop
 endfacet
 facet normal 0 0 1
  outer loop
   vertex -1.9870504140853882 0 1.9741007089614868
   vertex 0.98705035448074341 1.9928058385848999 1.9741007089614868
   vertex -1.9870504140853882 1.9928058385848999 1.9741007089614868
  endloop
 endfacet
 facet normal 0 -0 1
  outer loop
   vertex -1.9870504140853882 0 1.9741007089614868
   vertex 0.98705035448074341 0 1.9741007089614868
   vertex 0.98705035448074341 1.9928058385848999 1.9741007089614868
  endloop
 endfacet
 facet normal -1 0 -0
  outer loop
   vertex -1.9870504140853882 0 -0.98705035448074341
   vertex -1.9870504140853882 1.9928058385848999 1.9741007089614868
   vertex -1.9870504140853882 1.9928058385848999 -0.98705035448074341
  endloop
 endfacet
 facet normal -1 0 0
  outer loop
   vertex -1.9870504140853882 0 -0.98705035448074341
   vertex -1.9870504140853882 0 1.9741007089614868
   vertex -1.9870504140853882 1.9928058385848999 1.9741007089614868
  endloop
 endfacet
 facet normal 1 0 0
  outer loop
   vertex 0.98705035448074341 0 -0.98705035448074341
   vertex 0.98705035448074341 1.9928058385848999 1.9741007089614868
   vertex 0.98705035448074341 0 1.9741007089614868
  endloop
 endfacet
 facet normal 1 0 -0
  outer loop
   vertex 0.98705035448074341 0 -0.98705035448074341
   vertex 0.98705035448074341 1.9928058385848999 -0.98705035448074341
   vertex 0.98705035448074341 1.9928058385848999 1.9741007089614868
  endloop
 endfacet
 facet normal 0 1 0
  outer loop
   vertex -1.9870504140853882 1.9928058385848999 -0.98705035448074341
   vertex 0.98705035448074341 1.9928058385848999 1.9741007089614868
   vertex 0.98705035448074341 1.9928058385848999 -0.98705035448074341
  endloop
 endfacet
 facet normal -0 1 0
  outer loop
   vertex -1.9870504140853882 1.9928058385848999 -0.98705035448074341
   vertex -1.9870504140853882 1.9928058385848999 1.9741007089614868
   vertex 0.98705035448074341 1.9928058385848999 1.9741007089614868
  endloop
 endfacet
 facet normal 0 -1 0
  outer loop
   vertex -1.9870504140853882 0 -0.98705035448074341
   vertex 0.98705035448074341 0 -0.98705035448074341
   vertex -1 0 0
  endloop
 endfacet
 facet normal 0 -1 0
  outer loop
   vertex 0 0 0
   vertex -1 0 0
   vertex 0.98705035448074341 0 -0.98705035448074341
  endloop
 endfacet
 facet normal 0 -1 -0
  outer loop
   vertex 0.98705035448074341 0 -0.98705035448074341
   vertex 0.98705035448074341 0 1.9741007089614868
   vertex 0 0 0
  endloop
 endfacet
 facet normal 0 -1 0
  outer loop
   vertex 0 0 0.98705035448074341
   vertex 0 0 0
   vertex 0.98705035448074341 0 1.9741007089614868
  endloop
 endfacet
 facet normal 0 -1 0
  outer loop
   vertex 0.98705035448074341 0 1.9741007089614868
   vertex -1.9870504140853882 0 1.9741007089614868
   vertex 0 0 0.98705035448074341
  endloop
 endfacet
 facet normal 0 -1 0
  outer loop
   vertex -1 0 0.98705035448074341
   vertex 0 0 0.98705035448074341
   vertex -1.9870504140853882 0 1.9741007089614868
  endloop
 endfacet
 facet normal 0 -1 0
  outer loop
   vertex -1.9870504140853882 0 1.9741007089614868
   vertex -1.9870504140853882 0 -0.98705035448074341
   vertex -1 0 0.98705035448074341
  endloop
 endfacet
 facet normal 0 -1 -0
  outer loop
   vertex -1 0 0
   vertex -1 0 0.98705035448074341
   vertex -1.9870504140853882 0 -0.98705035448074341
  endloop
 endfacet
endsolid
