solid Visualization Toolkit generated SLA File
 facet normal 1.2105501952073845e-16 -0 1
  outer loop
   vertex -55.599998474121094 55.919998168945312 6.7306589006377576e-15
   vertex 0 0 0
   vertex 0 55.919998168945312 0
  endloop
 endfacet
 facet normal 1.2175984692895203e-16 7.0079406481377128e-19 1
  outer loop
   vertex -55.599998474121094 55.919998168945312 6.7306589006377576e-15
   vertex -55.599998474121094 0 6.7698473034589514e-15
   vertex 0 0 0
  endloop
 endfacet
 facet normal 0 0 -1
  outer loop
   vertex -55.599998474121094 55.919998168945312 54.880001068115234
   vertex -21.299999237060547 33.200000762939453 54.880001068115234
   vertex -34.299999237060547 33.200000762939453 54.880001068115234
  endloop
 endfacet
 facet normal -0 0 -1
  outer loop
   vertex -55.599998474121094 55.919998168945312 54.880001068115234
   vertex 6.7208616940533407e-15 55.919998168945312 54.880001068115234
   vertex -21.299999237060547 33.200000762939453 54.880001068115234
  endloop
 endfacet
 facet normal 0 -1 0
  outer loop
   vertex -55.599998474121094 55.919998168945312 54.880001068115234
   vertex 0 55.919998168945312 0
   vertex 6.7208616940533407e-15 55.919998168945312 54.880001068115234
  endloop
 endfacet
 facet normal 0 -1 0
  outer loop
   vertex -55.599998474121094 55.919998168945312 54.880001068115234
   vertex -55.599998474121094 55.919998168945312 6.7306589006377576e-15
   vertex 0 55.919998168945312 0
  endloop
 endfacet
 facet normal -1 0 1.2246467863059315e-16
  outer loop
   vertex 6.7208616940533407e-15 55.919998168945312 54.880001068115234
   vertex 0 0 0
   vertex 6.7208616940533407e-15 0 54.880001068115234
  endloop
 endfacet
 facet normal -1 0 1.2246467863059315e-16
  outer loop
   vertex 6.7208616940533407e-15 55.919998168945312 54.880001068115234
   vertex 0 55.919998168945312 0
   vertex 0 0 0
  endloop
 endfacet
 facet normal 1 0 -0
  outer loop
   vertex -55.599998474121094 0 54.880001068115234
   vertex -55.599998474121094 55.919998168945312 6.7306589006377576e-15
   vertex -55.599998474121094 55.919998168945312 54.880001068115234
  endloop
 endfacet
 facet normal 1 -0 0
  outer loop
   vertex -55.599998474121094 0 54.880001068115234
   vertex -55.599998474121094 0 6.7698473034589514e-15
   vertex -55.599998474121094 55.919998168945312 6.7306589006377576e-15
  endloop
 endfacet
 facet normal 0 0 -1
  outer loop
   vertex 6.7208616940533407e-15 0 54.880001068115234
   vertex -34.299999237060547 22.700000762939453 54.880001068115234
   vertex -21.299999237060547 22.700000762939453 54.880001068115234
  endloop
 endfacet
 facet normal 0 0 -1
  outer loop
   vertex 6.7208616940533407e-15 0 54.880001068115234
   vertex -55.599998474121094 0 54.880001068115234
   vertex -34.299999237060547 22.700000762939453 54.880001068115234
  endloop
 endfacet
 facet normal 0 0 -1
  outer loop
   vertex 6.7208616940533407e-15 55.919998168945312 54.880001068115234
   vertex -21.299999237060547 22.700000762939453 54.880001068115234
   vertex -21.299999237060547 33.200000762939453 54.880001068115234
  endloop
 endfacet
 facet normal 0 0 -1
  outer loop
   vertex 6.7208616940533407e-15 55.919998168945312 54.880001068115234
   vertex 6.7208616940533407e-15 0 54.880001068115234
   vertex -21.299999237060547 22.700000762939453 54.880001068115234
  endloop
 endfacet
 facet normal 0 -0 -1
  outer loop
   vertex -55.599998474121094 0 54.880001068115234
   vertex -34.299999237060547 33.200000762939453 54.880001068115234
   vertex -34.299999237060547 22.700000762939453 54.880001068115234
  endloop
 endfacet
 facet normal 0 0 -1
  outer loop
   vertex -55.599998474121094 0 54.880001068115234
   vertex -55.599998474121094 55.919998168945312 54.880001068115234
   vertex -34.299999237060547 33.200000762939453 54.880001068115234
  endloop
 endfacet
 facet normal 0 0 -1
  outer loop
   vertex -21.299999237060547 33.200000762939453 54.880001068115234
   vertex -34.299999237060547 22.700000762939453 54.880001068115234
   vertex -34.299999237060547 33.200000762939453 54.880001068115234
  endloop
 endfacet
 facet normal 0 0 -1
  outer loop
   vertex -21.299999237060547 33.200000762939453 54.880001068115234
   vertex -21.299999237060547 22.700000762939453 54.880001068115234
   vertex -34.299999237060547 22.700000762939453 54.880001068115234
  endloop
 endfacet
endsolid
