solid outer_closed
 facet normal 1.2105501952073845e-16 -0.0 1.0
  outer loop
   vertex -55.599998474121094 55.91999816894531 6.7306589006377576e-15
   vertex 0.0 0.0 0.0
   vertex 0.0 55.91999816894531 0.0
  endloop
 endfacet
 facet normal 1.2175984692895203e-16 7.007940648137713e-19 1.0
  outer loop
   vertex -55.599998474121094 55.91999816894531 6.7306589006377576e-15
   vertex -55.599998474121094 0.0 6.769847303458951e-15
   vertex 0.0 0.0 0.0
  endloop
 endfacet
 facet normal 0.0 0.0 -1.0
  outer loop
   vertex -55.599998474121094 55.91999816894531 54.880001068115234
   vertex -21.299999237060547 33.20000076293945 54.880001068115234
   vertex -34.29999923706055 33.20000076293945 54.880001068115234
  endloop
 endfacet
 facet normal -0.0 0.0 -1.0
  outer loop
   vertex -55.599998474121094 55.91999816894531 54.880001068115234
   vertex 6.720861694053341e-15 55.91999816894531 54.880001068115234
   vertex -21.299999237060547 33.20000076293945 54.880001068115234
  endloop
 endfacet
 facet normal 0.0 -1.0 0.0
  outer loop
   vertex -55.599998474121094 55.91999816894531 54.880001068115234
   vertex 0.0 55.91999816894531 0.0
   vertex 6.720861694053341e-15 55.91999816894531 54.880001068115234
  endloop
 endfacet
 facet normal 0.0 -1.0 0.0
  outer loop
   vertex -55.599998474121094 55.91999816894531 54.880001068115234
   vertex -55.599998474121094 55.91999816894531 6.7306589006377576e-15
   vertex 0.0 55.91999816894531 0.0
  endloop
 endfacet
 facet normal -1.0 0.0 1.2246467863059315e-16
  outer loop
   vertex 6.720861694053341e-15 55.91999816894531 54.880001068115234
   vertex 0.0 0.0 0.0
   vertex 6.720861694053341e-15 0.0 54.880001068115234
  endloop
 endfacet
 facet normal -1.0 0.0 1.2246467863059315e-16
  outer loop
   vertex 6.720861694053341e-15 55.91999816894531 54.880001068115234
   vertex 0.0 55.91999816894531 0.0
   vertex 0.0 0.0 0.0
  endloop
 endfacet
 facet normal 1.0 0.0 -0.0
  outer loop
   vertex -55.599998474121094 0.0 54.880001068115234
   vertex -55.599998474121094 55.91999816894531 6.7306589006377576e-15
   vertex -55.599998474121094 55.91999816894531 54.880001068115234
  endloop
 endfacet
 facet normal 1.0 -0.0 0.0
  outer loop
   vertex -55.599998474121094 0.0 54.880001068115234
   vertex -55.599998474121094 0.0 6.769847303458951e-15
   vertex -55.599998474121094 55.91999816894531 6.7306589006377576e-15
  endloop
 endfacet
 facet normal 0.0 0.0 -1.0
  outer loop
   vertex 6.720861694053341e-15 0.0 54.880001068115234
   vertex -34.29999923706055 22.700000762939453 54.880001068115234
   vertex -21.299999237060547 22.700000762939453 54.880001068115234
  endloop
 endfacet
 facet normal 0.0 0.0 -1.0
  outer loop
   vertex 6.720861694053341e-15 0.0 54.880001068115234
   vertex -55.599998474121094 0.0 54.880001068115234
   vertex -34.29999923706055 22.700000762939453 54.880001068115234
  endloop
 endfacet
 facet normal 0.0 0.0 -1.0
  outer loop
   vertex 6.720861694053341e-15 55.91999816894531 54.880001068115234
   vertex -21.299999237060547 22.700000762939453 54.880001068115234
   vertex -21.299999237060547 33.20000076293945 54.880001068115234
  endloop
 endfacet
 facet normal 0.0 0.0 -1.0
  outer loop
   vertex 6.720861694053341e-15 55.91999816894531 54.880001068115234
   vertex 6.720861694053341e-15 0.0 54.880001068115234
   vertex -21.299999237060547 22.700000762939453 54.880001068115234
  endloop
 endfacet
 facet normal 0.0 -0.0 -1.0
  outer loop
   vertex -55.599998474121094 0.0 54.880001068115234
   vertex -34.29999923706055 33.20000076293945 54.880001068115234
   vertex -34.29999923706055 22.700000762939453 54.880001068115234
  endloop
 endfacet
 facet normal 0.0 0.0 -1.0
  outer loop
   vertex -55.599998474121094 0.0 54.880001068115234
   vertex -55.599998474121094 55.91999816894531 54.880001068115234
   vertex -34.29999923706055 33.20000076293945 54.880001068115234
  endloop
 endfacet
 facet normal 0.0 0.0 -1.0
  outer loop
   vertex -21.299999237060547 33.20000076293945 54.880001068115234
   vertex -34.29999923706055 22.700000762939453 54.880001068115234
   vertex -34.29999923706055 33.20000076293945 54.880001068115234
  endloop
 endfacet
 facet normal 0.0 0.0 -1.0
  outer loop
   vertex -21.299999237060547 33.20000076293945 54.880001068115234
   vertex -21.299999237060547 22.700000762939453 54.880001068115234
   vertex -34.29999923706055 22.700000762939453 54.880001068115234
  endloop
 endfacet
 facet normal 0 0 -1
  outer loop
   vertex -110.47999954223633 0.0 -54.880001068115234
   vertex 54.880001068115234 110.79999923706055 -54.880001068115234
   vertex 54.880001068115234 0.0 -54.880001068115234
  endloop
 endfacet
 facet normal 0 0 -1
  outer loop
   vertex -110.47999954223633 0.0 -54.880001068115234
   vertex -110.47999954223633 110.79999923706055 -54.880001068115234
   vertex 54.880001068115234 110.79999923706055 -54.880001068115234
  endloop
 endfacet
 facet normal 0 0 1
  outer loop
   vertex -110.47999954223633 0.0 109.76000213623047
   vertex 54.880001068115234 110.79999923706055 109.76000213623047
   vertex -110.47999954223633 110.79999923706055 109.76000213623047
  endloop
 endfacet
 facet normal 0 0 1
  outer loop
   vertex -110.47999954223633 0.0 109.76000213623047
   vertex 54.880001068115234 0.0 109.76000213623047
   vertex 54.880001068115234 110.79999923706055 109.76000213623047
  endloop
 endfacet
 facet normal -1 0 0
  outer loop
   vertex -110.47999954223633 0.0 -54.880001068115234
   vertex -110.47999954223633 110.79999923706055 109.76000213623047
   vertex -110.47999954223633 110.79999923706055 -54.880001068115234
  endloop
 endfacet
 facet normal -1 0 0
  outer loop
   vertex -110.47999954223633 0.0 -54.880001068115234
   vertex -110.47999954223633 0.0 109.76000213623047
   vertex -110.47999954223633 110.79999923706055 109.76000213623047
  endloop
 endfacet
 facet normal 1 0 0
  outer loop
   vertex 54.880001068115234 0.0 -54.880001068115234
   vertex 54.880001068115234 110.79999923706055 109.76000213623047
   vertex 54.880001068115234 0.0 109.76000213623047
  endloop
 endfacet
 facet normal 1 0 0
  outer loop
   vertex 54.880001068115234 0.0 -54.880001068115234
   vertex 54.880001068115234 110.79999923706055 -54.880001068115234
   vertex 54.880001068115234 110.79999923706055 109.76000213623047
  endloop
 endfacet
 facet normal 0 1 0
  outer loop
   vertex -110.47999954223633 110.79999923706055 -54.880001068115234
   vertex 54.880001068115234 110.79999923706055 109.76000213623047
   vertex 54.880001068115234 110.79999923706055 -54.880001068115234
  endloop
 endfacet
 facet normal 0 1 0
  outer loop
   vertex -110.47999954223633 110.79999923706055 -54.880001068115234
   vertex -110.47999954223633 110.79999923706055 109.76000213623047
   vertex 54.880001068115234 110.79999923706055 109.76000213623047
  endloop
 endfacet
 facet normal 0 -1 0
  outer loop
   vertex -110.47999954223633 0.0 -54.880001068115234
   vertex 54.880001068115234 0.0 -54.880001068115234
   vertex -55.599998474121094 0.0 0.0
  endloop
 endfacet
 facet normal 0 -1 0
  outer loop
   vertex 0.0 0.0 0.0
   vertex -55.599998474121094 0.0 0.0
   vertex 54.880001068115234 0.0 -54.880001068115234
  endloop
 endfacet
 facet normal 0 -1 0
  outer loop
   vertex 54.880001068115234 0.0 -54.880001068115234
   vertex 54.880001068115234 0.0 109.76000213623047
   vertex 0.0 0.0 0.0
  endloop
 endfacet
 facet normal 0 -1 0
  outer loop
   vertex 0.0 0.0 54.880001068115234
   vertex 0.0 0.0 0.0
   vertex 54.880001068115234 0.0 109.76000213623047
  endloop
 endfacet
 facet normal 0 -1 0
  outer loop
   vertex 54.880001068115234 0.0 109.76000213623047
   vertex -110.47999954223633 0.0 109.76000213623047
   vertex 0.0 0.0 54.880001068115234
  endloop
 endfacet
 facet normal 0 -1 0
  outer loop
   vertex -55.599998474121094 0.0 54.880001068115234
   vertex 0.0 0.0 54.880001068115234
   vertex -110.47999954223633 0.0 109.76000213623047
  endloop
 endfacet
 facet normal 0 -1 0
  outer loop
   vertex -110.47999954223633 0.0 109.76000213623047
   vertex -110.47999954223633 0.0 -54.880001068115234
   vertex -55.599998474121094 0.0 54.880001068115234
  endloop
 endfacet
 facet normal 0 -1 0
  outer loop
   vertex -55.599998474121094 0.0 0.0
   vertex -55.599998474121094 0.0 54.880001068115234
   vertex -110.47999954223633 0.0 -54.880001068115234
  endloop
 endfacet
endsolid
