solid Visualization Toolkit generated SLA File
 facet normal -1.2246467510799907e-16 -5.5224344852918934e-24 -1
  outer loop
   vertex -0.23381294310092926 0.11690647155046463 2.8633829667923415e-17
   vertex -0.4316546618938446 0.4892086386680603 5.2862449426691578e-17
   vertex -0.1474820077419281 0.40467625856399536 1.8061338128223875e-17
  endloop
 endfacet
 facet normal -1.2246467875101536e-16 -7.4583367427590762e-24 -1
  outer loop
   vertex -0.23381294310092926 0.11690647155046463 2.8633829667923415e-17
   vertex -0.52158272266387939 0.2050359696149826 6.3875462619051134e-17
   vertex -0.4316546618938446 0.4892086386680603 5.2862449426691578e-17
  endloop
 endfacet
 facet normal 0 0 1
  outer loop
   vertex -0.52158272266387939 0.2050359696149826 0.29676258563995361
   vertex -0.1474820077419281 0.40467625856399536 0.29676258563995361
   vertex -0.4316546618938446 0.4892086386680603 0.29676258563995361
  endloop
 endfacet
 facet normal 0 -0 1
  outer loop
   vertex -0.52158272266387939 0.2050359696149826 0.29676258563995361
   vertex -0.23381294310092926 0.11690647155046463 0.29676258563995361
   vertex -0.1474820077419281 0.40467625856399536 0.29676258563995361
  endloop
 endfacet
 facet normal -0.95340009602165232 0.30170889431023412 0
  outer loop
   vertex -0.4316546618938446 0.4892086386680603 5.2862449426691578e-17
   vertex -0.52158272266387939 0.2050359696149826 0.29676258563995361
   vertex -0.4316546618938446 0.4892086386680603 0.29676258563995361
  endloop
 endfacet
 facet normal -0.95340009602165232 0.30170889431023412 0
  outer loop
   vertex -0.4316546618938446 0.4892086386680603 5.2862449426691578e-17
   vertex -0.52158272266387939 0.2050359696149826 6.3875462619051134e-17
   vertex -0.52158272266387939 0.2050359696149826 0.29676258563995361
  endloop
 endfacet
 facet normal -0.29282578963798733 -0.95616581037123949 0
  outer loop
   vertex -0.52158272266387939 0.2050359696149826 6.3875462619051134e-17
   vertex -0.23381294310092926 0.11690647155046463 0.29676258563995361
   vertex -0.52158272266387939 0.2050359696149826 0.29676258563995361
  endloop
 endfacet
 facet normal -0.29282578963798733 -0.95616581037123949 0
  outer loop
   vertex -0.52158272266387939 0.2050359696149826 6.3875462619051134e-17
   vertex -0.23381294310092926 0.11690647155046463 2.8633829667923415e-17
   vertex -0.23381294310092926 0.11690647155046463 0.29676258563995361
  endloop
 endfacet
 facet normal 0.95782628590368868 -0.28734788329122085 0
  outer loop
   vertex -0.23381294310092926 0.11690647155046463 2.8633829667923415e-17
   vertex -0.1474820077419281 0.40467625856399536 0.29676258563995361
   vertex -0.23381294310092926 0.11690647155046463 0.29676258563995361
  endloop
 endfacet
 facet normal 0.95782628590368868 -0.28734788329122085 0
  outer loop
   vertex -0.23381294310092926 0.11690647155046463 2.8633829667923415e-17
   vertex -0.1474820077419281 0.40467625856399536 1.8061338128223875e-17
   vertex -0.1474820077419281 0.40467625856399536 0.29676258563995361
  endloop
 endfacet
 facet normal 0.28512093248528159 0.95849155127143582 0
  outer loop
   vertex -0.1474820077419281 0.40467625856399536 1.8061338128223875e-17
   vertex -0.4316546618938446 0.4892086386680603 0.29676258563995361
   vertex -0.1474820077419281 0.40467625856399536 0.29676258563995361
  endloop
 endfacet
 facet normal 0.28512093248528159 0.95849155127143582 -0
  outer loop
   vertex -0.1474820077419281 0.40467625856399536 1.8061338128223875e-17
   vertex -0.4316546618938446 0.4892086386680603 5.2862449426691578e-17
   vertex -0.4316546618938446 0.4892086386680603 0.29676258563995361
  endloop
 endfacet
endsolid
