solid Visualization Toolkit generated SLA File
 facet normal -1 0 -0
  outer loop
   vertex -500 -500 -4
   vertex -500 500 1
   vertex -500 500 -4
  endloop
 endfacet
 facet normal -1 -0 0
  outer loop
   vertex -500 -500 1
   vertex -500 500 1
   vertex -500 -500 -4
  endloop
 endfacet
 facet normal 0 -1 0
  outer loop
   vertex 500 -500 -4
   vertex -500 -500 1
   vertex -500 -500 -4
  endloop
 endfacet
 facet normal 0 -1 0
  outer loop
   vertex 500 -500 1
   vertex -500 -500 1
   vertex 500 -500 -4
  endloop
 endfacet
 facet normal 0 1 0
  outer loop
   vertex 500 500 -4
   vertex -500 500 -4
   vertex -500 500 1
  endloop
 endfacet
 facet normal 0 1 -0
  outer loop
   vertex 500 500 1
   vertex 500 500 -4
   vertex -500 500 1
  endloop
 endfacet
 facet normal 1 0 -0
  outer loop
   vertex 500 -500 -4
   vertex 500 500 -4
   vertex 500 500 1
  endloop
 endfacet
 facet normal 1 0 0
  outer loop
   vertex 500 -500 1
   vertex 500 -500 -4
   vertex 500 500 1
  endloop
 endfacet
endsolid
