solid Visualization Toolkit generated SLA File
 facet normal 0 0 1
  outer loop
   vertex 153.78739929199219 -11.766280174255371 1
   vertex 143.11709594726562 -64.60736083984375 1
   vertex 162.09109497070312 -35.460521697998047 1
  endloop
 endfacet
 facet normal 0 -0 1
  outer loop
   vertex 140.32719421386719 -0.39107599854469299 1
   vertex 143.11709594726562 -64.60736083984375 1
   vertex 153.78739929199219 -11.766280174255371 1
  endloop
 endfacet
 facet normal 0 -0 1
  outer loop
   vertex 89.248970031738281 -15.079549789428711 1
   vertex 142.38920593261719 -65.690963745117188 1
   vertex 143.11709594726562 -64.60736083984375 1
  endloop
 endfacet
 facet normal 0 -0 1
  outer loop
   vertex 89.248970031738281 -15.079549789428711 1
   vertex 141.63029479980469 -66.753067016601562 1
   vertex 142.38920593261719 -65.690963745117188 1
  endloop
 endfacet
 facet normal 0 -0 1
  outer loop
   vertex 89.248970031738281 -15.079549789428711 1
   vertex 140.84100341796875 -67.792808532714844 1
   vertex 141.63029479980469 -66.753067016601562 1
  endloop
 endfacet
 facet normal 0 -0 1
  outer loop
   vertex 89.248970031738281 -15.079549789428711 1
   vertex 140.02200317382812 -68.809310913085938 1
   vertex 140.84100341796875 -67.792808532714844 1
  endloop
 endfacet
 facet normal 0 -0 1
  outer loop
   vertex 89.248970031738281 -15.079549789428711 1
   vertex 139.17399597167969 -69.801719665527344 1
   vertex 140.02200317382812 -68.809310913085938 1
  endloop
 endfacet
 facet normal 0 -0 1
  outer loop
   vertex 89.248970031738281 -15.079549789428711 1
   vertex 138.29769897460938 -70.769218444824219 1
   vertex 139.17399597167969 -69.801719665527344 1
  endloop
 endfacet
 facet normal 0 -0 1
  outer loop
   vertex 89.248970031738281 -15.079549789428711 1
   vertex 137.39370727539062 -71.71099853515625 1
   vertex 138.29769897460938 -70.769218444824219 1
  endloop
 endfacet
 facet normal 0 -0 1
  outer loop
   vertex 89.248970031738281 -15.079549789428711 1
   vertex 136.46299743652344 -72.626266479492188 1
   vertex 137.39370727539062 -71.71099853515625 1
  endloop
 endfacet
 facet normal 0 -0 1
  outer loop
   vertex 89.248970031738281 -15.079549789428711 1
   vertex 135.50619506835938 -73.514266967773438 1
   vertex 136.46299743652344 -72.626266479492188 1
  endloop
 endfacet
 facet normal 0 -0 1
  outer loop
   vertex 89.248970031738281 -15.079549789428711 1
   vertex 134.52409362792969 -74.374252319335938 1
   vertex 135.50619506835938 -73.514266967773438 1
  endloop
 endfacet
 facet normal 0 -0 1
  outer loop
   vertex 89.248970031738281 -15.079549789428711 1
   vertex 133.51759338378906 -75.205490112304688 1
   vertex 134.52409362792969 -74.374252319335938 1
  endloop
 endfacet
 facet normal 0 -0 1
  outer loop
   vertex 89.248970031738281 -15.079549789428711 1
   vertex 132.48750305175781 -76.007308959960938 1
   vertex 133.51759338378906 -75.205490112304688 1
  endloop
 endfacet
 facet normal 0 0 1
  outer loop
   vertex 89.248970031738281 -15.079549789428711 1
   vertex 143.11709594726562 -64.60736083984375 1
   vertex 140.32719421386719 -0.39107599854469299 1
  endloop
 endfacet
 facet normal 0 -0 1
  outer loop
   vertex 89.248970031738281 -15.079549789428711 1
   vertex 131.4346923828125 -76.779037475585938 1
   vertex 132.48750305175781 -76.007308959960938 1
  endloop
 endfacet
 facet normal 0 -0 1
  outer loop
   vertex 89.248970031738281 -15.079549789428711 1
   vertex 130.36000061035156 -77.52001953125 1
   vertex 131.4346923828125 -76.779037475585938 1
  endloop
 endfacet
 facet normal 0 -0 1
  outer loop
   vertex 89.248970031738281 -15.079549789428711 1
   vertex 129.264404296875 -78.229637145996094 1
   vertex 130.36000061035156 -77.52001953125 1
  endloop
 endfacet
 facet normal 0 -0 1
  outer loop
   vertex 89.248970031738281 -15.079549789428711 1
   vertex 128.14869689941406 -78.907318115234375 1
   vertex 129.264404296875 -78.229637145996094 1
  endloop
 endfacet
 facet normal 0 -0 1
  outer loop
   vertex 89.248970031738281 -15.079549789428711 1
   vertex 127.01390075683594 -79.552467346191406 1
   vertex 128.14869689941406 -78.907318115234375 1
  endloop
 endfacet
 facet normal 0 -0 1
  outer loop
   vertex 89.248970031738281 -15.079549789428711 1
   vertex 125.86090087890625 -80.164573669433594 1
   vertex 127.01390075683594 -79.552467346191406 1
  endloop
 endfacet
 facet normal 0 -0 1
  outer loop
   vertex 89.248970031738281 -15.079549789428711 1
   vertex 124.69069671630859 -80.74310302734375 1
   vertex 125.86090087890625 -80.164573669433594 1
  endloop
 endfacet
 facet normal 0 -0 1
  outer loop
   vertex 89.248970031738281 -15.079549789428711 1
   vertex 123.50430297851562 -81.287582397460938 1
   vertex 124.69069671630859 -80.74310302734375 1
  endloop
 endfacet
 facet normal 0 -0 1
  outer loop
   vertex 89.248970031738281 -15.079549789428711 1
   vertex 122.30269622802734 -81.797561645507812 1
   vertex 123.50430297851562 -81.287582397460938 1
  endloop
 endfacet
 facet normal 0 -0 1
  outer loop
   vertex 89.248970031738281 -15.079549789428711 1
   vertex 121.08679962158203 -82.272598266601562 1
   vertex 122.30269622802734 -81.797561645507812 1
  endloop
 endfacet
 facet normal 0 -0 1
  outer loop
   vertex 89.248970031738281 -15.079549789428711 1
   vertex 119.85769653320312 -82.712318420410156 1
   vertex 121.08679962158203 -82.272598266601562 1
  endloop
 endfacet
 facet normal 0 -0 1
  outer loop
   vertex 89.248970031738281 -15.079549789428711 1
   vertex 118.61640167236328 -83.116340637207031 1
   vertex 119.85769653320312 -82.712318420410156 1
  endloop
 endfacet
 facet normal 0 -0 1
  outer loop
   vertex 89.248970031738281 -15.079549789428711 1
   vertex 117.36399841308594 -83.484329223632812 1
   vertex 118.61640167236328 -83.116340637207031 1
  endloop
 endfacet
 facet normal 0 -0 1
  outer loop
   vertex 89.248970031738281 -15.079549789428711 1
   vertex 116.10140228271484 -83.81597900390625 1
   vertex 117.36399841308594 -83.484329223632812 1
  endloop
 endfacet
 facet normal 0 -0 1
  outer loop
   vertex 89.248970031738281 -15.079549789428711 1
   vertex 114.82980346679688 -84.11102294921875 1
   vertex 116.10140228271484 -83.81597900390625 1
  endloop
 endfacet
 facet normal 0 -0 1
  outer loop
   vertex 89.248970031738281 -15.079549789428711 1
   vertex 113.55020141601562 -84.369186401367188 1
   vertex 114.82980346679688 -84.11102294921875 1
  endloop
 endfacet
 facet normal 0 -0 1
  outer loop
   vertex 89.248970031738281 -15.079549789428711 1
   vertex 112.26370239257812 -84.590286254882812 1
   vertex 113.55020141601562 -84.369186401367188 1
  endloop
 endfacet
 facet normal 0 -0 1
  outer loop
   vertex 89.248970031738281 -15.079549789428711 1
   vertex 110.97129821777344 -84.774116516113281 1
   vertex 112.26370239257812 -84.590286254882812 1
  endloop
 endfacet
 facet normal 0 -0 1
  outer loop
   vertex 89.248970031738281 -15.079549789428711 1
   vertex 109.67420196533203 -84.920539855957031 1
   vertex 110.97129821777344 -84.774116516113281 1
  endloop
 endfacet
 facet normal 0 -0 1
  outer loop
   vertex 89.248970031738281 -15.079549789428711 1
   vertex 108.37339782714844 -85.0294189453125 1
   vertex 109.67420196533203 -84.920539855957031 1
  endloop
 endfacet
 facet normal 0 -0 1
  outer loop
   vertex 89.248970031738281 -15.079549789428711 1
   vertex 107.06990051269531 -85.100669860839844 1
   vertex 108.37339782714844 -85.0294189453125 1
  endloop
 endfacet
 facet normal -0 0 1
  outer loop
   vertex 89.248970031738281 -15.079549789428711 1
   vertex 66.85546875 -84.351509094238281 1
   vertex 107.06990051269531 -85.100669860839844 1
  endloop
 endfacet
 facet normal 0 -0 1
  outer loop
   vertex 41.617321014404297 -6.3270421028137207 1
   vertex 66.85546875 -84.351509094238281 1
   vertex 89.248970031738281 -15.079549789428711 1
  endloop
 endfacet
 facet normal -0 0 1
  outer loop
   vertex 41.617321014404297 -6.3270421028137207 1
   vertex 3.1948750019073486 -80.1566162109375 1
   vertex 66.85546875 -84.351509094238281 1
  endloop
 endfacet
 facet normal 0 -0 1
  outer loop
   vertex -5.6071591377258301 -26.539770126342773 1
   vertex 3.1948750019073486 -80.1566162109375 1
   vertex 41.617321014404297 -6.3270421028137207 1
  endloop
 endfacet
endsolid
