solid Visualization Toolkit generated SLA File
 facet normal -0.39348613882652178 0.91933054912332568 0
  outer loop
   vertex 41.617321014404297 -6.3270421028137207 1
   vertex -5.6071591377258301 -26.539770126342773 0
   vertex -5.6071591377258301 -26.539770126342773 1
  endloop
 endfacet
 facet normal -0.39348613882652178 0.91933054912332568 0
  outer loop
   vertex 41.617321014404297 -6.3270421028137207 1
   vertex 41.617321014404297 -6.3270421028137207 0
   vertex -5.6071591377258301 -26.539770126342773 0
  endloop
 endfacet
 facet normal 0.18072817248393269 0.98353308417694729 -0
  outer loop
   vertex 89.248970031738281 -15.079549789428711 1
   vertex 41.617321014404297 -6.3270421028137207 0
   vertex 41.617321014404297 -6.3270421028137207 1
  endloop
 endfacet
 facet normal 0.18072817248393269 0.98353308417694729 -0
  outer loop
   vertex 89.248970031738281 -15.079549789428711 1
   vertex 89.248970031738281 -15.079549789428711 0
   vertex 41.617321014404297 -6.3270421028137207 0
  endloop
 endfacet
 facet normal -0.27636797804793967 0.96105189282873449 0
  outer loop
   vertex 140.32719421386719 -0.39107599854469299 1
   vertex 89.248970031738281 -15.079549789428711 0
   vertex 89.248970031738281 -15.079549789428711 1
  endloop
 endfacet
 facet normal -0.27636797804793967 0.96105189282873449 0
  outer loop
   vertex 140.32719421386719 -0.39107599854469299 1
   vertex 140.32719421386719 -0.39107599854469299 0
   vertex 89.248970031738281 -15.079549789428711 0
  endloop
 endfacet
 facet normal 0.64547255035606477 0.76378346848883638 -0
  outer loop
   vertex 153.78739929199219 -11.766280174255371 0
   vertex 140.32719421386719 -0.39107599854469299 0
   vertex 140.32719421386719 -0.39107599854469299 1
  endloop
 endfacet
 facet normal 0.64547255035606477 0.76378346848883638 -0
  outer loop
   vertex 153.78739929199219 -11.766280174255371 1
   vertex 153.78739929199219 -11.766280174255371 0
   vertex 140.32719421386719 -0.39107599854469299 1
  endloop
 endfacet
 facet normal 0.94372525879546654 0.33073045809454804 -0
  outer loop
   vertex 162.09109497070312 -35.460521697998047 1
   vertex 153.78739929199219 -11.766280174255371 0
   vertex 153.78739929199219 -11.766280174255371 1
  endloop
 endfacet
 facet normal 0.94372525879546654 0.33073045809454804 -0
  outer loop
   vertex 162.09109497070312 -35.460521697998047 1
   vertex 162.09109497070312 -35.460521697998047 0
   vertex 153.78739929199219 -11.766280174255371 0
  endloop
 endfacet
 facet normal 0.83806826363600795 -0.54556538149531308 0
  outer loop
   vertex 143.11709594726562 -64.60736083984375 1
   vertex 162.09109497070312 -35.460521697998047 0
   vertex 162.09109497070312 -35.460521697998047 1
  endloop
 endfacet
 facet normal 0.83806826363600795 -0.54556538149531308 0
  outer loop
   vertex 143.11709594726562 -64.60736083984375 1
   vertex 143.11709594726562 -64.60736083984375 0
   vertex 162.09109497070312 -35.460521697998047 0
  endloop
 endfacet
 facet normal 0.44318104512312845 -0.89643212863192923 0
  outer loop
   vertex 124.69069671630859 -80.74310302734375 1
   vertex 124.69069671630859 -80.74310302734375 0
   vertex 125.86090087890625 -80.164573669433594 0
  endloop
 endfacet
 facet normal 0.41710767187983011 -0.90885707900581814 0
  outer loop
   vertex 123.50430297851562 -81.287582397460938 1
   vertex 124.69069671630859 -80.74310302734375 0
   vertex 124.69069671630859 -80.74310302734375 1
  endloop
 endfacet
 facet normal 0.41710767187983011 -0.90885707900581814 0
  outer loop
   vertex 123.50430297851562 -81.287582397460938 1
   vertex 123.50430297851562 -81.287582397460938 0
   vertex 124.69069671630859 -80.74310302734375 0
  endloop
 endfacet
 facet normal 0.39068403005194635 -0.92052484413098257 0
  outer loop
   vertex 122.30269622802734 -81.797561645507812 1
   vertex 123.50430297851562 -81.287582397460938 0
   vertex 123.50430297851562 -81.287582397460938 1
  endloop
 endfacet
 facet normal 0.39068403005194635 -0.92052484413098257 0
  outer loop
   vertex 122.30269622802734 -81.797561645507812 1
   vertex 122.30269622802734 -81.797561645507812 0
   vertex 123.50430297851562 -81.287582397460938 0
  endloop
 endfacet
 facet normal 0.83010480506270568 -0.55760740006908749 0
  outer loop
   vertex 142.38920593261719 -65.690963745117188 1
   vertex 143.11709594726562 -64.60736083984375 0
   vertex 143.11709594726562 -64.60736083984375 1
  endloop
 endfacet
 facet normal 0.83010480506270568 -0.55760740006908749 0
  outer loop
   vertex 142.38920593261719 -65.690963745117188 1
   vertex 142.38920593261719 -65.690963745117188 0
   vertex 143.11709594726562 -64.60736083984375 0
  endloop
 endfacet
 facet normal 0.36390170957139856 -0.93143735472172984 0
  outer loop
   vertex 121.08679962158203 -82.272598266601562 1
   vertex 122.30269622802734 -81.797561645507812 0
   vertex 122.30269622802734 -81.797561645507812 1
  endloop
 endfacet
 facet normal 0.36390170957139856 -0.93143735472172984 0
  outer loop
   vertex 121.08679962158203 -82.272598266601562 1
   vertex 121.08679962158203 -82.272598266601562 0
   vertex 122.30269622802734 -81.797561645507812 0
  endloop
 endfacet
 facet normal 0.81363710326621075 -0.58137308519449837 0
  outer loop
   vertex 141.63029479980469 -66.753067016601562 1
   vertex 141.63029479980469 -66.753067016601562 0
   vertex 142.38920593261719 -65.690963745117188 0
  endloop
 endfacet
 facet normal 0.81363710326621075 -0.58137308519449837 0
  outer loop
   vertex 141.63029479980469 -66.753067016601562 1
   vertex 142.38920593261719 -65.690963745117188 0
   vertex 142.38920593261719 -65.690963745117188 1
  endloop
 endfacet
 facet normal 0.33684913137925376 -0.94155863475889923 0
  outer loop
   vertex 119.85769653320312 -82.712318420410156 1
   vertex 119.85769653320312 -82.712318420410156 0
   vertex 121.08679962158203 -82.272598266601562 0
  endloop
 endfacet
 facet normal 0.33684913137925376 -0.94155863475889923 0
  outer loop
   vertex 119.85769653320312 -82.712318420410156 1
   vertex 121.08679962158203 -82.272598266601562 0
   vertex 121.08679962158203 -82.272598266601562 1
  endloop
 endfacet
 facet normal 0.79649870055955974 -0.60464024014858042 0
  outer loop
   vertex 140.84100341796875 -67.792808532714844 1
   vertex 140.84100341796875 -67.792808532714844 0
   vertex 141.63029479980469 -66.753067016601562 0
  endloop
 endfacet
 facet normal 0.79649870055955974 -0.60464024014858042 0
  outer loop
   vertex 140.84100341796875 -67.792808532714844 1
   vertex 141.63029479980469 -66.753067016601562 0
   vertex 141.63029479980469 -66.753067016601562 1
  endloop
 endfacet
 facet normal 0.30950272533602557 -0.95089855558286174 0
  outer loop
   vertex 118.61640167236328 -83.116340637207031 1
   vertex 118.61640167236328 -83.116340637207031 0
   vertex 119.85769653320312 -82.712318420410156 0
  endloop
 endfacet
 facet normal 0.30950272533602557 -0.95089855558286174 0
  outer loop
   vertex 118.61640167236328 -83.116340637207031 1
   vertex 119.85769653320312 -82.712318420410156 0
   vertex 119.85769653320312 -82.712318420410156 1
  endloop
 endfacet
 facet normal 0.77869735581894761 -0.62739973544828609 0
  outer loop
   vertex 140.02200317382812 -68.809310913085938 1
   vertex 140.02200317382812 -68.809310913085938 0
   vertex 140.84100341796875 -67.792808532714844 0
  endloop
 endfacet
 facet normal 0.77869735581894761 -0.62739973544828609 0
  outer loop
   vertex 140.02200317382812 -68.809310913085938 1
   vertex 140.84100341796875 -67.792808532714844 0
   vertex 140.84100341796875 -67.792808532714844 1
  endloop
 endfacet
 facet normal 0.28190873631305069 -0.95944122508383956 0
  outer loop
   vertex 117.36399841308594 -83.484329223632812 1
   vertex 117.36399841308594 -83.484329223632812 0
   vertex 118.61640167236328 -83.116340637207031 0
  endloop
 endfacet
 facet normal 0.28190873631305069 -0.95944122508383956 0
  outer loop
   vertex 117.36399841308594 -83.484329223632812 1
   vertex 118.61640167236328 -83.116340637207031 0
   vertex 118.61640167236328 -83.116340637207031 1
  endloop
 endfacet
 facet normal 0.76025081314314469 -0.6496296645899009 0
  outer loop
   vertex 139.17399597167969 -69.801719665527344 1
   vertex 139.17399597167969 -69.801719665527344 0
   vertex 140.02200317382812 -68.809310913085938 0
  endloop
 endfacet
 facet normal 0.76025081314314469 -0.6496296645899009 0
  outer loop
   vertex 139.17399597167969 -69.801719665527344 1
   vertex 140.02200317382812 -68.809310913085938 0
   vertex 140.02200317382812 -68.809310913085938 1
  endloop
 endfacet
 facet normal 0.25405456716174074 -0.96718988668423356 0
  outer loop
   vertex 116.10140228271484 -83.81597900390625 1
   vertex 116.10140228271484 -83.81597900390625 0
   vertex 117.36399841308594 -83.484329223632812 0
  endloop
 endfacet
 facet normal 0.74117704814839236 -0.67130960316238253 0
  outer loop
   vertex 138.29769897460938 -70.769218444824219 1
   vertex 138.29769897460938 -70.769218444824219 0
   vertex 139.17399597167969 -69.801719665527344 0
  endloop
 endfacet
 facet normal 0.25405456716174074 -0.96718988668423356 0
  outer loop
   vertex 116.10140228271484 -83.81597900390625 1
   vertex 117.36399841308594 -83.484329223632812 0
   vertex 117.36399841308594 -83.484329223632812 1
  endloop
 endfacet
 facet normal 0.74117704814839236 -0.67130960316238253 0
  outer loop
   vertex 138.29769897460938 -70.769218444824219 1
   vertex 139.17399597167969 -69.801719665527344 0
   vertex 139.17399597167969 -69.801719665527344 1
  endloop
 endfacet
 facet normal 0.22602166327793075 -0.97412227555326836 0
  outer loop
   vertex 114.82980346679688 -84.11102294921875 1
   vertex 114.82980346679688 -84.11102294921875 0
   vertex 116.10140228271484 -83.81597900390625 0
  endloop
 endfacet
 facet normal 0.22602166327793075 -0.97412227555326836 0
  outer loop
   vertex 114.82980346679688 -84.11102294921875 1
   vertex 116.10140228271484 -83.81597900390625 0
   vertex 116.10140228271484 -83.81597900390625 1
  endloop
 endfacet
 facet normal 0.7214321667386151 -0.69248511088313458 0
  outer loop
   vertex 137.39370727539062 -71.71099853515625 1
   vertex 137.39370727539062 -71.71099853515625 0
   vertex 138.29769897460938 -70.769218444824219 0
  endloop
 endfacet
 facet normal 0.7214321667386151 -0.69248511088313458 0
  outer loop
   vertex 137.39370727539062 -71.71099853515625 1
   vertex 138.29769897460938 -70.769218444824219 0
   vertex 138.29769897460938 -70.769218444824219 1
  endloop
 endfacet
 facet normal 0.19776806762198287 -0.98024884158516956 0
  outer loop
   vertex 113.55020141601562 -84.369186401367188 1
   vertex 113.55020141601562 -84.369186401367188 0
   vertex 114.82980346679688 -84.11102294921875 0
  endloop
 endfacet
 facet normal 0.70116718977485148 -0.71299689479214223 0
  outer loop
   vertex 136.46299743652344 -72.626266479492188 1
   vertex 137.39370727539062 -71.71099853515625 0
   vertex 137.39370727539062 -71.71099853515625 1
  endloop
 endfacet
 facet normal 0.19776806762198287 -0.98024884158516956 0
  outer loop
   vertex 113.55020141601562 -84.369186401367188 1
   vertex 114.82980346679688 -84.11102294921875 0
   vertex 114.82980346679688 -84.11102294921875 1
  endloop
 endfacet
 facet normal 0.70116718977485148 -0.71299689479214223 0
  outer loop
   vertex 136.46299743652344 -72.626266479492188 1
   vertex 136.46299743652344 -72.626266479492188 0
   vertex 137.39370727539062 -71.71099853515625 0
  endloop
 endfacet
 facet normal 0.16937844241726896 -0.98555108606520225 0
  outer loop
   vertex 112.26370239257812 -84.590286254882812 1
   vertex 112.26370239257812 -84.590286254882812 0
   vertex 113.55020141601562 -84.369186401367188 0
  endloop
 endfacet
 facet normal 0.16937844241726896 -0.98555108606520225 0
  outer loop
   vertex 112.26370239257812 -84.590286254882812 1
   vertex 113.55020141601562 -84.369186401367188 0
   vertex 113.55020141601562 -84.369186401367188 1
  endloop
 endfacet
 facet normal 0.68026232088785721 -0.73296874065697104 0
  outer loop
   vertex 135.50619506835938 -73.514266967773438 1
   vertex 136.46299743652344 -72.626266479492188 0
   vertex 136.46299743652344 -72.626266479492188 1
  endloop
 endfacet
 facet normal 0.68026232088785721 -0.73296874065697104 0
  outer loop
   vertex 135.50619506835938 -73.514266967773438 1
   vertex 135.50619506835938 -73.514266967773438 0
   vertex 136.46299743652344 -72.626266479492188 0
  endloop
 endfacet
 facet normal 0.14082157473221368 -0.99003499134623507 0
  outer loop
   vertex 110.97129821777344 -84.774116516113281 1
   vertex 110.97129821777344 -84.774116516113281 0
   vertex 112.26370239257812 -84.590286254882812 0
  endloop
 endfacet
 facet normal 0.14082157473221368 -0.99003499134623507 0
  outer loop
   vertex 110.97129821777344 -84.774116516113281 1
   vertex 112.26370239257812 -84.590286254882812 0
   vertex 112.26370239257812 -84.590286254882812 1
  endloop
 endfacet
 facet normal 0.65878509516072181 -0.7523311760083311 0
  outer loop
   vertex 134.52409362792969 -74.374252319335938 1
   vertex 135.50619506835938 -73.514266967773438 0
   vertex 135.50619506835938 -73.514266967773438 1
  endloop
 endfacet
 facet normal 0.65878509516072181 -0.7523311760083311 0
  outer loop
   vertex 134.52409362792969 -74.374252319335938 1
   vertex 134.52409362792969 -74.374252319335938 0
   vertex 135.50619506835938 -73.514266967773438 0
  endloop
 endfacet
 facet normal 0.11217302986409938 -0.99368868936458565 0
  outer loop
   vertex 109.67420196533203 -84.920539855957031 1
   vertex 109.67420196533203 -84.920539855957031 0
   vertex 110.97129821777344 -84.774116516113281 0
  endloop
 endfacet
 facet normal 0.11217302986409938 -0.99368868936458565 0
  outer loop
   vertex 109.67420196533203 -84.920539855957031 1
   vertex 110.97129821777344 -84.774116516113281 0
   vertex 110.97129821777344 -84.774116516113281 1
  endloop
 endfacet
 facet normal 0.63678175498375333 -0.77104409505540672 0
  outer loop
   vertex 133.51759338378906 -75.205490112304688 1
   vertex 134.52409362792969 -74.374252319335938 0
   vertex 134.52409362792969 -74.374252319335938 1
  endloop
 endfacet
 facet normal 0.63678175498375333 -0.77104409505540672 0
  outer loop
   vertex 133.51759338378906 -75.205490112304688 1
   vertex 133.51759338378906 -75.205490112304688 0
   vertex 134.52409362792969 -74.374252319335938 0
  endloop
 endfacet
 facet normal 0.083409699827181855 -0.9965153395581724 0
  outer loop
   vertex 108.37339782714844 -85.0294189453125 1
   vertex 108.37339782714844 -85.0294189453125 0
   vertex 109.67420196533203 -84.920539855957031 0
  endloop
 endfacet
 facet normal 0.083409699827181855 -0.9965153395581724 0
  outer loop
   vertex 108.37339782714844 -85.0294189453125 1
   vertex 109.67420196533203 -84.920539855957031 0
   vertex 109.67420196533203 -84.920539855957031 1
  endloop
 endfacet
 facet normal 0.61424484714771443 -0.78911549709309403 0
  outer loop
   vertex 132.48750305175781 -76.007308959960938 1
   vertex 133.51759338378906 -75.205490112304688 0
   vertex 133.51759338378906 -75.205490112304688 1
  endloop
 endfacet
 facet normal 0.0545798665670853 -0.99850940815072897 0
  outer loop
   vertex 107.06990051269531 -85.100669860839844 1
   vertex 108.37339782714844 -85.0294189453125 0
   vertex 108.37339782714844 -85.0294189453125 1
  endloop
 endfacet
 facet normal 0.61424484714771443 -0.78911549709309403 0
  outer loop
   vertex 132.48750305175781 -76.007308959960938 1
   vertex 132.48750305175781 -76.007308959960938 0
   vertex 133.51759338378906 -75.205490112304688 0
  endloop
 endfacet
 facet normal 0.0545798665670853 -0.99850940815072897 0
  outer loop
   vertex 107.06990051269531 -85.100669860839844 1
   vertex 107.06990051269531 -85.100669860839844 0
   vertex 108.37339782714844 -85.0294189453125 0
  endloop
 endfacet
 facet normal 0.59119794013833393 -0.80652650023182182 0
  outer loop
   vertex 131.4346923828125 -76.779037475585938 1
   vertex 132.48750305175781 -76.007308959960938 0
   vertex 132.48750305175781 -76.007308959960938 1
  endloop
 endfacet
 facet normal 0.59119794013833393 -0.80652650023182182 0
  outer loop
   vertex 131.4346923828125 -76.779037475585938 1
   vertex 131.4346923828125 -76.779037475585938 0
   vertex 132.48750305175781 -76.007308959960938 0
  endloop
 endfacet
 facet normal 0.5676370745053787 -0.82327890270975324 0
  outer loop
   vertex 130.36000061035156 -77.52001953125 1
   vertex 131.4346923828125 -76.779037475585938 0
   vertex 131.4346923828125 -76.779037475585938 1
  endloop
 endfacet
 facet normal 0.5676370745053787 -0.82327890270975324 0
  outer loop
   vertex 130.36000061035156 -77.52001953125 1
   vertex 130.36000061035156 -77.52001953125 0
   vertex 131.4346923828125 -76.779037475585938 0
  endloop
 endfacet
 facet normal 0.54363049308426026 -0.83932466125389416 0
  outer loop
   vertex 129.264404296875 -78.229637145996094 1
   vertex 130.36000061035156 -77.52001953125 0
   vertex 130.36000061035156 -77.52001953125 1
  endloop
 endfacet
 facet normal 0.54363049308426026 -0.83932466125389416 0
  outer loop
   vertex 129.264404296875 -78.229637145996094 1
   vertex 129.264404296875 -78.229637145996094 0
   vertex 130.36000061035156 -77.52001953125 0
  endloop
 endfacet
 facet normal 0.51913887368534339 -0.85468990273005629 0
  outer loop
   vertex 128.14869689941406 -78.907318115234375 1
   vertex 129.264404296875 -78.229637145996094 0
   vertex 129.264404296875 -78.229637145996094 1
  endloop
 endfacet
 facet normal 0.51913887368534339 -0.85468990273005629 0
  outer loop
   vertex 128.14869689941406 -78.907318115234375 1
   vertex 128.14869689941406 -78.907318115234375 0
   vertex 129.264404296875 -78.229637145996094 0
  endloop
 endfacet
 facet normal 0.49422869944422959 -0.86933192317184882 0
  outer loop
   vertex 127.01390075683594 -79.552467346191406 1
   vertex 128.14869689941406 -78.907318115234375 0
   vertex 128.14869689941406 -78.907318115234375 1
  endloop
 endfacet
 facet normal 0.49422869944422959 -0.86933192317184882 0
  outer loop
   vertex 127.01390075683594 -79.552467346191406 1
   vertex 127.01390075683594 -79.552467346191406 0
   vertex 128.14869689941406 -78.907318115234375 0
  endloop
 endfacet
 facet normal 0.46890137966859841 -0.88325052852793973 0
  outer loop
   vertex 125.86090087890625 -80.164573669433594 1
   vertex 127.01390075683594 -79.552467346191406 0
   vertex 127.01390075683594 -79.552467346191406 1
  endloop
 endfacet
 facet normal 0.46890137966859841 -0.88325052852793973 0
  outer loop
   vertex 125.86090087890625 -80.164573669433594 1
   vertex 125.86090087890625 -80.164573669433594 0
   vertex 127.01390075683594 -79.552467346191406 0
  endloop
 endfacet
 facet normal 0.44318104512312845 -0.89643212863192923 0
  outer loop
   vertex 124.69069671630859 -80.74310302734375 1
   vertex 125.86090087890625 -80.164573669433594 0
   vertex 125.86090087890625 -80.164573669433594 1
  endloop
 endfacet
 facet normal -0.01862592037811335 -0.99982652249781223 0
  outer loop
   vertex 66.85546875 -84.351509094238281 1
   vertex 107.06990051269531 -85.100669860839844 0
   vertex 107.06990051269531 -85.100669860839844 1
  endloop
 endfacet
 facet normal -0.01862592037811335 -0.99982652249781223 0
  outer loop
   vertex 66.85546875 -84.351509094238281 1
   vertex 66.85546875 -84.351509094238281 0
   vertex 107.06990051269531 -85.100669860839844 0
  endloop
 endfacet
 facet normal -0.06575205876595884 -0.99783599191853056 0
  outer loop
   vertex 3.1948750019073486 -80.1566162109375 1
   vertex 66.85546875 -84.351509094238281 0
   vertex 66.85546875 -84.351509094238281 1
  endloop
 endfacet
 facet normal -0.06575205876595884 -0.99783599191853056 0
  outer loop
   vertex 3.1948750019073486 -80.1566162109375 1
   vertex 3.1948750019073486 -80.1566162109375 0
   vertex 66.85546875 -84.351509094238281 0
  endloop
 endfacet
 facet normal -0.98679124432119347 -0.1619970374143633 0
  outer loop
   vertex -5.6071591377258301 -26.539770126342773 1
   vertex 3.1948750019073486 -80.1566162109375 0
   vertex 3.1948750019073486 -80.1566162109375 1
  endloop
 endfacet
 facet normal -0.98679124432119347 -0.1619970374143633 0
  outer loop
   vertex -5.6071591377258301 -26.539770126342773 1
   vertex -5.6071591377258301 -26.539770126342773 0
   vertex 3.1948750019073486 -80.1566162109375 0
  endloop
 endfacet
 facet normal 0 0 1
  outer loop
   vertex 153.78739929199219 -11.766280174255371 1
   vertex 143.11709594726562 -64.60736083984375 1
   vertex 162.09109497070312 -35.460521697998047 1
  endloop
 endfacet
 facet normal 0 -0 1
  outer loop
   vertex 140.32719421386719 -0.39107599854469299 1
   vertex 143.11709594726562 -64.60736083984375 1
   vertex 153.78739929199219 -11.766280174255371 1
  endloop
 endfacet
 facet normal 0 -0 1
  outer loop
   vertex 89.248970031738281 -15.079549789428711 1
   vertex 142.38920593261719 -65.690963745117188 1
   vertex 143.11709594726562 -64.60736083984375 1
  endloop
 endfacet
 facet normal 0 -0 1
  outer loop
   vertex 89.248970031738281 -15.079549789428711 1
   vertex 141.63029479980469 -66.753067016601562 1
   vertex 142.38920593261719 -65.690963745117188 1
  endloop
 endfacet
 facet normal 0 -0 1
  outer loop
   vertex 89.248970031738281 -15.079549789428711 1
   vertex 140.84100341796875 -67.792808532714844 1
   vertex 141.63029479980469 -66.753067016601562 1
  endloop
 endfacet
 facet normal 0 -0 1
  outer loop
   vertex 89.248970031738281 -15.079549789428711 1
   vertex 140.02200317382812 -68.809310913085938 1
   vertex 140.84100341796875 -67.792808532714844 1
  endloop
 endfacet
 facet normal 0 -0 1
  outer loop
   vertex 89.248970031738281 -15.079549789428711 1
   vertex 139.17399597167969 -69.801719665527344 1
   vertex 140.02200317382812 -68.809310913085938 1
  endloop
 endfacet
 facet normal 0 -0 1
  outer loop
   vertex 89.248970031738281 -15.079549789428711 1
   vertex 138.29769897460938 -70.769218444824219 1
   vertex 139.17399597167969 -69.801719665527344 1
  endloop
 endfacet
 facet normal 0 -0 1
  outer loop
   vertex 89.248970031738281 -15.079549789428711 1
   vertex 137.39370727539062 -71.71099853515625 1
   vertex 138.29769897460938 -70.769218444824219 1
  endloop
 endfacet
 facet normal 0 -0 1
  outer loop
   vertex 89.248970031738281 -15.079549789428711 1
   vertex 136.46299743652344 -72.626266479492188 1
   vertex 137.39370727539062 -71.71099853515625 1
  endloop
 endfacet
 facet normal 0 -0 1
  outer loop
   vertex 89.248970031738281 -15.079549789428711 1
   vertex 135.50619506835938 -73.514266967773438 1
   vertex 136.46299743652344 -72.626266479492188 1
  endloop
 endfacet
 facet normal 0 -0 1
  outer loop
   vertex 89.248970031738281 -15.079549789428711 1
   vertex 134.52409362792969 -74.374252319335938 1
   vertex 135.50619506835938 -73.514266967773438 1
  endloop
 endfacet
 facet normal 0 -0 1
  outer loop
   vertex 89.248970031738281 -15.079549789428711 1
   vertex 133.51759338378906 -75.205490112304688 1
   vertex 134.52409362792969 -74.374252319335938 1
  endloop
 endfacet
 facet normal 0 -0 1
  outer loop
   vertex 89.248970031738281 -15.079549789428711 1
   vertex 132.48750305175781 -76.007308959960938 1
   vertex 133.51759338378906 -75.205490112304688 1
  endloop
 endfacet
 facet normal 0 0 1
  outer loop
   vertex 89.248970031738281 -15.079549789428711 1
   vertex 143.11709594726562 -64.60736083984375 1
   vertex 140.32719421386719 -0.39107599854469299 1
  endloop
 endfacet
 facet normal 0 -0 1
  outer loop
   vertex 89.248970031738281 -15.079549789428711 1
   vertex 131.4346923828125 -76.779037475585938 1
   vertex 132.48750305175781 -76.007308959960938 1
  endloop
 endfacet
 facet normal 0 -0 1
  outer loop
   vertex 89.248970031738281 -15.079549789428711 1
   vertex 130.36000061035156 -77.52001953125 1
   vertex 131.4346923828125 -76.779037475585938 1
  endloop
 endfacet
 facet normal 0 -0 1
  outer loop
   vertex 89.248970031738281 -15.079549789428711 1
   vertex 129.264404296875 -78.229637145996094 1
   vertex 130.36000061035156 -77.52001953125 1
  endloop
 endfacet
 facet normal 0 -0 1
  outer loop
   vertex 89.248970031738281 -15.079549789428711 1
   vertex 128.14869689941406 -78.907318115234375 1
   vertex 129.264404296875 -78.229637145996094 1
  endloop
 endfacet
 facet normal 0 -0 1
  outer loop
   vertex 89.248970031738281 -15.079549789428711 1
   vertex 127.01390075683594 -79.552467346191406 1
   vertex 128.14869689941406 -78.907318115234375 1
  endloop
 endfacet
 facet normal 0 -0 1
  outer loop
   vertex 89.248970031738281 -15.079549789428711 1
   vertex 125.86090087890625 -80.164573669433594 1
   vertex 127.01390075683594 -79.552467346191406 1
  endloop
 endfacet
 facet normal 0 -0 1
  outer loop
   vertex 89.248970031738281 -15.079549789428711 1
   vertex 124.69069671630859 -80.74310302734375 1
   vertex 125.86090087890625 -80.164573669433594 1
  endloop
 endfacet
 facet normal 0 -0 1
  outer loop
   vertex 89.248970031738281 -15.079549789428711 1
   vertex 123.50430297851562 -81.287582397460938 1
   vertex 124.69069671630859 -80.74310302734375 1
  endloop
 endfacet
 facet normal 0 -0 1
  outer loop
   vertex 89.248970031738281 -15.079549789428711 1
   vertex 122.30269622802734 -81.797561645507812 1
   vertex 123.50430297851562 -81.287582397460938 1
  endloop
 endfacet
 facet normal 0 -0 1
  outer loop
   vertex 89.248970031738281 -15.079549789428711 1
   vertex 121.08679962158203 -82.272598266601562 1
   vertex 122.30269622802734 -81.797561645507812 1
  endloop
 endfacet
 facet normal 0 -0 1
  outer loop
   vertex 89.248970031738281 -15.079549789428711 1
   vertex 119.85769653320312 -82.712318420410156 1
   vertex 121.08679962158203 -82.272598266601562 1
  endloop
 endfacet
 facet normal 0 -0 1
  outer loop
   vertex 89.248970031738281 -15.079549789428711 1
   vertex 118.61640167236328 -83.116340637207031 1
   vertex 119.85769653320312 -82.712318420410156 1
  endloop
 endfacet
 facet normal 0 -0 1
  outer loop
   vertex 89.248970031738281 -15.079549789428711 1
   vertex 117.36399841308594 -83.484329223632812 1
   vertex 118.61640167236328 -83.116340637207031 1
  endloop
 endfacet
 facet normal 0 -0 1
  outer loop
   vertex 89.248970031738281 -15.079549789428711 1
   vertex 116.10140228271484 -83.81597900390625 1
   vertex 117.36399841308594 -83.484329223632812 1
  endloop
 endfacet
 facet normal 0 -0 1
  outer loop
   vertex 89.248970031738281 -15.079549789428711 1
   vertex 114.82980346679688 -84.11102294921875 1
   vertex 116.10140228271484 -83.81597900390625 1
  endloop
 endfacet
 facet normal 0 -0 1
  outer loop
   vertex 89.248970031738281 -15.079549789428711 1
   vertex 113.55020141601562 -84.369186401367188 1
   vertex 114.82980346679688 -84.11102294921875 1
  endloop
 endfacet
 facet normal 0 -0 1
  outer loop
   vertex 89.248970031738281 -15.079549789428711 1
   vertex 112.26370239257812 -84.590286254882812 1
   vertex 113.55020141601562 -84.369186401367188 1
  endloop
 endfacet
 facet normal 0 -0 1
  outer loop
   vertex 89.248970031738281 -15.079549789428711 1
   vertex 110.97129821777344 -84.774116516113281 1
   vertex 112.26370239257812 -84.590286254882812 1
  endloop
 endfacet
 facet normal 0 -0 1
  outer loop
   vertex 89.248970031738281 -15.079549789428711 1
   vertex 109.67420196533203 -84.920539855957031 1
   vertex 110.97129821777344 -84.774116516113281 1
  endloop
 endfacet
 facet normal 0 -0 1
  outer loop
   vertex 89.248970031738281 -15.079549789428711 1
   vertex 108.37339782714844 -85.0294189453125 1
   vertex 109.67420196533203 -84.920539855957031 1
  endloop
 endfacet
 facet normal 0 -0 1
  outer loop
   vertex 89.248970031738281 -15.079549789428711 1
   vertex 107.06990051269531 -85.100669860839844 1
   vertex 108.37339782714844 -85.0294189453125 1
  endloop
 endfacet
 facet normal -0 0 1
  outer loop
   vertex 89.248970031738281 -15.079549789428711 1
   vertex 66.85546875 -84.351509094238281 1
   vertex 107.06990051269531 -85.100669860839844 1
  endloop
 endfacet
 facet normal 0 -0 1
  outer loop
   vertex 41.617321014404297 -6.3270421028137207 1
   vertex 66.85546875 -84.351509094238281 1
   vertex 89.248970031738281 -15.079549789428711 1
  endloop
 endfacet
 facet normal -0 0 1
  outer loop
   vertex 41.617321014404297 -6.3270421028137207 1
   vertex 3.1948750019073486 -80.1566162109375 1
   vertex 66.85546875 -84.351509094238281 1
  endloop
 endfacet
 facet normal 0 -0 1
  outer loop
   vertex -5.6071591377258301 -26.539770126342773 1
   vertex 3.1948750019073486 -80.1566162109375 1
   vertex 41.617321014404297 -6.3270421028137207 1
  endloop
 endfacet
 facet normal -0 0 -1
  outer loop
   vertex 153.78739929199219 -11.766280174255371 0
   vertex 162.09109497070312 -35.460521697998047 0
   vertex 143.11709594726562 -64.60736083984375 0
  endloop
 endfacet
 facet normal -0 0 -1
  outer loop
   vertex 140.32719421386719 -0.39107599854469299 0
   vertex 153.78739929199219 -11.766280174255371 0
   vertex 143.11709594726562 -64.60736083984375 0
  endloop
 endfacet
 facet normal -0 0 -1
  outer loop
   vertex 89.248970031738281 -15.079549789428711 0
   vertex 143.11709594726562 -64.60736083984375 0
   vertex 142.38920593261719 -65.690963745117188 0
  endloop
 endfacet
 facet normal -0 0 -1
  outer loop
   vertex 89.248970031738281 -15.079549789428711 0
   vertex 142.38920593261719 -65.690963745117188 0
   vertex 141.63029479980469 -66.753067016601562 0
  endloop
 endfacet
 facet normal -0 0 -1
  outer loop
   vertex 89.248970031738281 -15.079549789428711 0
   vertex 141.63029479980469 -66.753067016601562 0
   vertex 140.84100341796875 -67.792808532714844 0
  endloop
 endfacet
 facet normal -0 0 -1
  outer loop
   vertex 89.248970031738281 -15.079549789428711 0
   vertex 140.84100341796875 -67.792808532714844 0
   vertex 140.02200317382812 -68.809310913085938 0
  endloop
 endfacet
 facet normal -0 0 -1
  outer loop
   vertex 89.248970031738281 -15.079549789428711 0
   vertex 140.02200317382812 -68.809310913085938 0
   vertex 139.17399597167969 -69.801719665527344 0
  endloop
 endfacet
 facet normal -0 0 -1
  outer loop
   vertex 89.248970031738281 -15.079549789428711 0
   vertex 139.17399597167969 -69.801719665527344 0
   vertex 138.29769897460938 -70.769218444824219 0
  endloop
 endfacet
 facet normal -0 0 -1
  outer loop
   vertex 89.248970031738281 -15.079549789428711 0
   vertex 138.29769897460938 -70.769218444824219 0
   vertex 137.39370727539062 -71.71099853515625 0
  endloop
 endfacet
 facet normal -0 0 -1
  outer loop
   vertex 89.248970031738281 -15.079549789428711 0
   vertex 137.39370727539062 -71.71099853515625 0
   vertex 136.46299743652344 -72.626266479492188 0
  endloop
 endfacet
 facet normal -0 0 -1
  outer loop
   vertex 89.248970031738281 -15.079549789428711 0
   vertex 136.46299743652344 -72.626266479492188 0
   vertex 135.50619506835938 -73.514266967773438 0
  endloop
 endfacet
 facet normal -0 0 -1
  outer loop
   vertex 89.248970031738281 -15.079549789428711 0
   vertex 135.50619506835938 -73.514266967773438 0
   vertex 134.52409362792969 -74.374252319335938 0
  endloop
 endfacet
 facet normal -0 0 -1
  outer loop
   vertex 89.248970031738281 -15.079549789428711 0
   vertex 134.52409362792969 -74.374252319335938 0
   vertex 133.51759338378906 -75.205490112304688 0
  endloop
 endfacet
 facet normal -0 0 -1
  outer loop
   vertex 89.248970031738281 -15.079549789428711 0
   vertex 133.51759338378906 -75.205490112304688 0
   vertex 132.48750305175781 -76.007308959960938 0
  endloop
 endfacet
 facet normal 0 -0 -1
  outer loop
   vertex 89.248970031738281 -15.079549789428711 0
   vertex 140.32719421386719 -0.39107599854469299 0
   vertex 143.11709594726562 -64.60736083984375 0
  endloop
 endfacet
 facet normal -0 0 -1
  outer loop
   vertex 89.248970031738281 -15.079549789428711 0
   vertex 132.48750305175781 -76.007308959960938 0
   vertex 131.4346923828125 -76.779037475585938 0
  endloop
 endfacet
 facet normal -0 0 -1
  outer loop
   vertex 89.248970031738281 -15.079549789428711 0
   vertex 131.4346923828125 -76.779037475585938 0
   vertex 130.36000061035156 -77.52001953125 0
  endloop
 endfacet
 facet normal -0 0 -1
  outer loop
   vertex 89.248970031738281 -15.079549789428711 0
   vertex 130.36000061035156 -77.52001953125 0
   vertex 129.264404296875 -78.229637145996094 0
  endloop
 endfacet
 facet normal -0 0 -1
  outer loop
   vertex 89.248970031738281 -15.079549789428711 0
   vertex 129.264404296875 -78.229637145996094 0
   vertex 128.14869689941406 -78.907318115234375 0
  endloop
 endfacet
 facet normal -0 0 -1
  outer loop
   vertex 89.248970031738281 -15.079549789428711 0
   vertex 128.14869689941406 -78.907318115234375 0
   vertex 127.01390075683594 -79.552467346191406 0
  endloop
 endfacet
 facet normal -0 0 -1
  outer loop
   vertex 89.248970031738281 -15.079549789428711 0
   vertex 127.01390075683594 -79.552467346191406 0
   vertex 125.86090087890625 -80.164573669433594 0
  endloop
 endfacet
 facet normal -0 0 -1
  outer loop
   vertex 89.248970031738281 -15.079549789428711 0
   vertex 125.86090087890625 -80.164573669433594 0
   vertex 124.69069671630859 -80.74310302734375 0
  endloop
 endfacet
 facet normal -0 0 -1
  outer loop
   vertex 89.248970031738281 -15.079549789428711 0
   vertex 124.69069671630859 -80.74310302734375 0
   vertex 123.50430297851562 -81.287582397460938 0
  endloop
 endfacet
 facet normal -0 0 -1
  outer loop
   vertex 89.248970031738281 -15.079549789428711 0
   vertex 123.50430297851562 -81.287582397460938 0
   vertex 122.30269622802734 -81.797561645507812 0
  endloop
 endfacet
 facet normal -0 0 -1
  outer loop
   vertex 89.248970031738281 -15.079549789428711 0
   vertex 122.30269622802734 -81.797561645507812 0
   vertex 121.08679962158203 -82.272598266601562 0
  endloop
 endfacet
 facet normal -0 0 -1
  outer loop
   vertex 89.248970031738281 -15.079549789428711 0
   vertex 121.08679962158203 -82.272598266601562 0
   vertex 119.85769653320312 -82.712318420410156 0
  endloop
 endfacet
 facet normal -0 0 -1
  outer loop
   vertex 89.248970031738281 -15.079549789428711 0
   vertex 119.85769653320312 -82.712318420410156 0
   vertex 118.61640167236328 -83.116340637207031 0
  endloop
 endfacet
 facet normal -0 0 -1
  outer loop
   vertex 89.248970031738281 -15.079549789428711 0
   vertex 118.61640167236328 -83.116340637207031 0
   vertex 117.36399841308594 -83.484329223632812 0
  endloop
 endfacet
 facet normal -0 0 -1
  outer loop
   vertex 89.248970031738281 -15.079549789428711 0
   vertex 117.36399841308594 -83.484329223632812 0
   vertex 116.10140228271484 -83.81597900390625 0
  endloop
 endfacet
 facet normal -0 0 -1
  outer loop
   vertex 89.248970031738281 -15.079549789428711 0
   vertex 116.10140228271484 -83.81597900390625 0
   vertex 114.82980346679688 -84.11102294921875 0
  endloop
 endfacet
 facet normal -0 0 -1
  outer loop
   vertex 89.248970031738281 -15.079549789428711 0
   vertex 114.82980346679688 -84.11102294921875 0
   vertex 113.55020141601562 -84.369186401367188 0
  endloop
 endfacet
 facet normal -0 0 -1
  outer loop
   vertex 89.248970031738281 -15.079549789428711 0
   vertex 113.55020141601562 -84.369186401367188 0
   vertex 112.26370239257812 -84.590286254882812 0
  endloop
 endfacet
 facet normal -0 0 -1
  outer loop
   vertex 89.248970031738281 -15.079549789428711 0
   vertex 112.26370239257812 -84.590286254882812 0
   vertex 110.97129821777344 -84.774116516113281 0
  endloop
 endfacet
 facet normal -0 0 -1
  outer loop
   vertex 89.248970031738281 -15.079549789428711 0
   vertex 110.97129821777344 -84.774116516113281 0
   vertex 109.67420196533203 -84.920539855957031 0
  endloop
 endfacet
 facet normal -0 0 -1
  outer loop
   vertex 89.248970031738281 -15.079549789428711 0
   vertex 109.67420196533203 -84.920539855957031 0
   vertex 108.37339782714844 -85.0294189453125 0
  endloop
 endfacet
 facet normal -0 0 -1
  outer loop
   vertex 89.248970031738281 -15.079549789428711 0
   vertex 108.37339782714844 -85.0294189453125 0
   vertex 107.06990051269531 -85.100669860839844 0
  endloop
 endfacet
 facet normal 0 0 -1
  outer loop
   vertex 89.248970031738281 -15.079549789428711 0
   vertex 107.06990051269531 -85.100669860839844 0
   vertex 66.85546875 -84.351509094238281 0
  endloop
 endfacet
 facet normal -0 0 -1
  outer loop
   vertex 41.617321014404297 -6.3270421028137207 0
   vertex 89.248970031738281 -15.079549789428711 0
   vertex 66.85546875 -84.351509094238281 0
  endloop
 endfacet
 facet normal 0 0 -1
  outer loop
   vertex 41.617321014404297 -6.3270421028137207 0
   vertex 66.85546875 -84.351509094238281 0
   vertex 3.1948750019073486 -80.1566162109375 0
  endloop
 endfacet
 facet normal 0 0 -1
  outer loop
   vertex -5.6071591377258301 -26.539770126342773 0
   vertex 41.617321014404297 -6.3270421028137207 0
   vertex 3.1948750019073486 -80.1566162109375 0
  endloop
 endfacet
endsolid
