solid Visualization Toolkit generated SLA File
 facet normal 0 -1 0
  outer loop
   vertex 0 2 -6
   vertex -120 2 -42
   vertex 0 2 -42
  endloop
 endfacet
 facet normal 0 -1 0
  outer loop
   vertex -120 2 -6
   vertex -120 2 -42
   vertex 0 2 -6
  endloop
 endfacet
 facet normal 0 0 -1
  outer loop
   vertex -120 2 -42
   vertex -120 2.7999999523162842 -42
   vertex 0 2.7999999523162842 -42
  endloop
 endfacet
 facet normal 0 -0 -1
  outer loop
   vertex -120 2 -42
   vertex 0 2.7999999523162842 -42
   vertex 0 2 -42
  endloop
 endfacet
 facet normal -0 1 0
  outer loop
   vertex 0 2.7999999523162842 -42
   vertex -120 2.7999999523162842 -6
   vertex 0 2.7999999523162842 -6
  endloop
 endfacet
 facet normal 0 1 0
  outer loop
   vertex -120 2.7999999523162842 -42
   vertex -120 2.7999999523162842 -6
   vertex 0 2.7999999523162842 -42
  endloop
 endfacet
 facet normal 0 -1 0
  outer loop
   vertex 0 0 0
   vertex -120 0 -6
   vertex 0 0 -6
  endloop
 endfacet
 facet normal 0 -1 0
  outer loop
   vertex -120 0 0
   vertex -120 0 -6
   vertex 0 0 0
  endloop
 endfacet
 facet normal -0 0 1
  outer loop
   vertex 0 40 0
   vertex -13.5 13 0
   vertex 0 0 0
  endloop
 endfacet
 facet normal 0 0 1
  outer loop
   vertex -28.5 13 0
   vertex 0 0 0
   vertex -13.5 13 0
  endloop
 endfacet
 facet normal 0 0 1
  outer loop
   vertex -13.5 33 0
   vertex -13.5 13 0
   vertex 0 40 0
  endloop
 endfacet
 facet normal 0 -0 1
  outer loop
   vertex -28.5 33 0
   vertex -13.5 33 0
   vertex 0 40 0
  endloop
 endfacet
 facet normal 0 0 1
  outer loop
   vertex -120 0 0
   vertex 0 0 0
   vertex -28.5 13 0
  endloop
 endfacet
 facet normal 0 -0 1
  outer loop
   vertex -120 40 0
   vertex -28.5 13 0
   vertex -28.5 33 0
  endloop
 endfacet
 facet normal 0 0 1
  outer loop
   vertex -120 40 0
   vertex -120 0 0
   vertex -28.5 13 0
  endloop
 endfacet
 facet normal -0 0 1
  outer loop
   vertex 0 40 0
   vertex -120 40 0
   vertex -28.5 33 0
  endloop
 endfacet
 facet normal 0 -0 -1
  outer loop
   vertex -120 0 -6
   vertex 0 2 -6
   vertex 0 0 -6
  endloop
 endfacet
 facet normal 0 0 -1
  outer loop
   vertex -120 0 -6
   vertex -120 2 -6
   vertex 0 2 -6
  endloop
 endfacet
 facet normal -0 1 0
  outer loop
   vertex 0 40 -6
   vertex -120 40 0
   vertex 0 40 0
  endloop
 endfacet
 facet normal 0 1 0
  outer loop
   vertex -120 40 -6
   vertex -120 40 0
   vertex 0 40 -6
  endloop
 endfacet
 facet normal 0 0 -1
  outer loop
   vertex -120 38 -6
   vertex -120 40 -6
   vertex 0 40 -6
  endloop
 endfacet
 facet normal 0 -0 -1
  outer loop
   vertex -120 38 -6
   vertex 0 40 -6
   vertex 0 38 -6
  endloop
 endfacet
 facet normal 0 0 -1
  outer loop
   vertex -120 35.653331756591797 -6
   vertex -120 37.200000762939453 -6
   vertex 0 37.200000762939453 -6
  endloop
 endfacet
 facet normal 0 -0 -1
  outer loop
   vertex -120 35.653331756591797 -6
   vertex 0 37.200000762939453 -6
   vertex 0 35.653331756591797 -6
  endloop
 endfacet
 facet normal 0 0 -1
  outer loop
   vertex -120 33.306667327880859 -6
   vertex -120 34.85333251953125 -6
   vertex 0 34.85333251953125 -6
  endloop
 endfacet
 facet normal 0 -0 -1
  outer loop
   vertex -120 33.306667327880859 -6
   vertex 0 34.85333251953125 -6
   vertex 0 33.306667327880859 -6
  endloop
 endfacet
 facet normal 0 -0 -1
  outer loop
   vertex -120 30.959999084472656 -6
   vertex 0 32.506668090820312 -6
   vertex 0 30.959999084472656 -6
  endloop
 endfacet
 facet normal 0 0 -1
  outer loop
   vertex -120 30.959999084472656 -6
   vertex -120 32.506668090820312 -6
   vertex 0 32.506668090820312 -6
  endloop
 endfacet
 facet normal 0 0 -1
  outer loop
   vertex -120 28.613332748413086 -6
   vertex -120 30.159999847412109 -6
   vertex 0 30.159999847412109 -6
  endloop
 endfacet
 facet normal 0 -0 -1
  outer loop
   vertex -120 28.613332748413086 -6
   vertex 0 30.159999847412109 -6
   vertex 0 28.613332748413086 -6
  endloop
 endfacet
 facet normal 0 0 -1
  outer loop
   vertex -120 26.266666412353516 -6
   vertex -120 27.813333511352539 -6
   vertex 0 27.813333511352539 -6
  endloop
 endfacet
 facet normal 0 -0 -1
  outer loop
   vertex -120 26.266666412353516 -6
   vertex 0 27.813333511352539 -6
   vertex 0 26.266666412353516 -6
  endloop
 endfacet
 facet normal 0 0 -1
  outer loop
   vertex -120 23.920000076293945 -6
   vertex -120 25.466667175292969 -6
   vertex 0 25.466667175292969 -6
  endloop
 endfacet
 facet normal 0 -0 -1
  outer loop
   vertex -120 23.920000076293945 -6
   vertex 0 25.466667175292969 -6
   vertex 0 23.920000076293945 -6
  endloop
 endfacet
 facet normal 0 0 -1
  outer loop
   vertex -120 21.573333740234375 -6
   vertex -120 23.120000839233398 -6
   vertex 0 23.120000839233398 -6
  endloop
 endfacet
 facet normal 0 -0 -1
  outer loop
   vertex -120 21.573333740234375 -6
   vertex 0 23.120000839233398 -6
   vertex 0 21.573333740234375 -6
  endloop
 endfacet
 facet normal 0 0 -1
  outer loop
   vertex -120 19.226667404174805 -6
   vertex -120 20.773332595825195 -6
   vertex 0 20.773332595825195 -6
  endloop
 endfacet
 facet normal 0 -0 -1
  outer loop
   vertex -120 19.226667404174805 -6
   vertex 0 20.773332595825195 -6
   vertex 0 19.226667404174805 -6
  endloop
 endfacet
 facet normal 0 0 -1
  outer loop
   vertex -120 16.879999160766602 -6
   vertex -120 18.426666259765625 -6
   vertex 0 18.426666259765625 -6
  endloop
 endfacet
 facet normal 0 -0 -1
  outer loop
   vertex -120 16.879999160766602 -6
   vertex 0 18.426666259765625 -6
   vertex 0 16.879999160766602 -6
  endloop
 endfacet
 facet normal 0 0 -1
  outer loop
   vertex -120 14.533333778381348 -6
   vertex -120 16.079999923706055 -6
   vertex 0 16.079999923706055 -6
  endloop
 endfacet
 facet normal 0 -0 -1
  outer loop
   vertex -120 14.533333778381348 -6
   vertex 0 16.079999923706055 -6
   vertex 0 14.533333778381348 -6
  endloop
 endfacet
 facet normal 0 0 -1
  outer loop
   vertex -120 12.186665534973145 -6
   vertex -120 13.733333587646484 -6
   vertex 0 13.733333587646484 -6
  endloop
 endfacet
 facet normal 0 -0 -1
  outer loop
   vertex -120 12.186665534973145 -6
   vertex 0 13.733333587646484 -6
   vertex 0 12.186665534973145 -6
  endloop
 endfacet
 facet normal 0 -0 -1
  outer loop
   vertex -120 9.8400001525878906 -6
   vertex 0 11.386666297912598 -6
   vertex 0 9.8400001525878906 -6
  endloop
 endfacet
 facet normal 0 0 -1
  outer loop
   vertex -120 9.8400001525878906 -6
   vertex -120 11.386666297912598 -6
   vertex 0 11.386666297912598 -6
  endloop
 endfacet
 facet normal 0 0 -1
  outer loop
   vertex -120 7.4933328628540039 -6
   vertex -120 9.0399999618530273 -6
   vertex 0 9.0399999618530273 -6
  endloop
 endfacet
 facet normal 0 -0 -1
  outer loop
   vertex -120 7.4933328628540039 -6
   vertex 0 9.0399999618530273 -6
   vertex 0 7.4933328628540039 -6
  endloop
 endfacet
 facet normal 0 0 -1
  outer loop
   vertex -120 5.1466670036315918 -6
   vertex -120 6.6933331489562988 -6
   vertex 0 6.6933331489562988 -6
  endloop
 endfacet
 facet normal 0 -0 -1
  outer loop
   vertex -120 5.1466670036315918 -6
   vertex 0 6.6933331489562988 -6
   vertex 0 5.1466670036315918 -6
  endloop
 endfacet
 facet normal 0 -0 -1
  outer loop
   vertex -120 2.7999999523162842 -6
   vertex 0 4.3466668128967285 -6
   vertex 0 2.7999999523162842 -6
  endloop
 endfacet
 facet normal 0 0 -1
  outer loop
   vertex -120 2.7999999523162842 -6
   vertex -120 4.3466668128967285 -6
   vertex 0 4.3466668128967285 -6
  endloop
 endfacet
 facet normal -1 0 -0
  outer loop
   vertex -120 37.200000762939453 -42
   vertex -120 38 -6
   vertex -120 38 -42
  endloop
 endfacet
 facet normal -1 -0 0
  outer loop
   vertex -120 37.200000762939453 -6
   vertex -120 38 -6
   vertex -120 37.200000762939453 -42
  endloop
 endfacet
 facet normal -1 0 0
  outer loop
   vertex -120 0 0
   vertex -120 9.8400001525878906 -6
   vertex -120 9.0399999618530273 -6
  endloop
 endfacet
 facet normal -1 0 -0
  outer loop
   vertex -120 9.0399999618530273 -42
   vertex -120 9.8400001525878906 -6
   vertex -120 9.8400001525878906 -42
  endloop
 endfacet
 facet normal -1 -0 0
  outer loop
   vertex -120 9.0399999618530273 -6
   vertex -120 9.8400001525878906 -6
   vertex -120 9.0399999618530273 -42
  endloop
 endfacet
 facet normal -1 0 -0
  outer loop
   vertex -120 38 -6
   vertex -120 40 0
   vertex -120 40 -6
  endloop
 endfacet
 facet normal -1 0 -0
  outer loop
   vertex -120 2 -42
   vertex -120 2.7999999523162842 -6
   vertex -120 2.7999999523162842 -42
  endloop
 endfacet
 facet normal -1 0 0
  outer loop
   vertex -120 35.653331756591797 -6
   vertex -120 40 0
   vertex -120 37.200000762939453 -6
  endloop
 endfacet
 facet normal -1 -0 0
  outer loop
   vertex -120 2 -6
   vertex -120 2.7999999523162842 -6
   vertex -120 2 -42
  endloop
 endfacet
 facet normal -1 0 0
  outer loop
   vertex -120 33.306667327880859 -6
   vertex -120 40 0
   vertex -120 34.85333251953125 -6
  endloop
 endfacet
 facet normal -1 0 0
  outer loop
   vertex -120 30.959999084472656 -6
   vertex -120 40 0
   vertex -120 32.506668090820312 -6
  endloop
 endfacet
 facet normal -1 0 0
  outer loop
   vertex -120 28.613332748413086 -6
   vertex -120 40 0
   vertex -120 30.159999847412109 -6
  endloop
 endfacet
 facet normal -1 0 0
  outer loop
   vertex -120 26.266666412353516 -6
   vertex -120 40 0
   vertex -120 27.813333511352539 -6
  endloop
 endfacet
 facet normal -1 0 0
  outer loop
   vertex -120 23.920000076293945 -6
   vertex -120 40 0
   vertex -120 25.466667175292969 -6
  endloop
 endfacet
 facet normal -1 0 0
  outer loop
   vertex -120 30.159999847412109 -6
   vertex -120 40 0
   vertex -120 30.959999084472656 -6
  endloop
 endfacet
 facet normal -1 0 0
  outer loop
   vertex -120 34.85333251953125 -6
   vertex -120 40 0
   vertex -120 35.653331756591797 -6
  endloop
 endfacet
 facet normal -1 0 0
  outer loop
   vertex -120 27.813333511352539 -6
   vertex -120 40 0
   vertex -120 28.613332748413086 -6
  endloop
 endfacet
 facet normal -1 0 0
  outer loop
   vertex -120 25.466667175292969 -6
   vertex -120 40 0
   vertex -120 26.266666412353516 -6
  endloop
 endfacet
 facet normal -1 0 0
  outer loop
   vertex -120 32.506668090820312 -6
   vertex -120 40 0
   vertex -120 33.306667327880859 -6
  endloop
 endfacet
 facet normal -1 0 0
  outer loop
   vertex -120 37.200000762939453 -6
   vertex -120 40 0
   vertex -120 38 -6
  endloop
 endfacet
 facet normal -1 -0 0
  outer loop
   vertex -120 0 0
   vertex -120 40 0
   vertex -120 16.079999923706055 -6
  endloop
 endfacet
 facet normal -1 0 0
  outer loop
   vertex -120 16.079999923706055 -6
   vertex -120 40 0
   vertex -120 16.879999160766602 -6
  endloop
 endfacet
 facet normal -1 0 0
  outer loop
   vertex -120 16.879999160766602 -6
   vertex -120 40 0
   vertex -120 18.426666259765625 -6
  endloop
 endfacet
 facet normal -1 0 0
  outer loop
   vertex -120 18.426666259765625 -6
   vertex -120 40 0
   vertex -120 19.226667404174805 -6
  endloop
 endfacet
 facet normal -1 0 0
  outer loop
   vertex -120 19.226667404174805 -6
   vertex -120 40 0
   vertex -120 20.773332595825195 -6
  endloop
 endfacet
 facet normal -1 0 0
  outer loop
   vertex -120 20.773332595825195 -6
   vertex -120 40 0
   vertex -120 21.573333740234375 -6
  endloop
 endfacet
 facet normal -1 0 0
  outer loop
   vertex -120 21.573333740234375 -6
   vertex -120 40 0
   vertex -120 23.120000839233398 -6
  endloop
 endfacet
 facet normal -1 0 0
  outer loop
   vertex -120 23.120000839233398 -6
   vertex -120 40 0
   vertex -120 23.920000076293945 -6
  endloop
 endfacet
 facet normal -1 0 0
  outer loop
   vertex -120 0 0
   vertex -120 11.386666297912598 -6
   vertex -120 9.8400001525878906 -6
  endloop
 endfacet
 facet normal -1 0 -0
  outer loop
   vertex -120 20.773332595825195 -42
   vertex -120 21.573333740234375 -6
   vertex -120 21.573333740234375 -42
  endloop
 endfacet
 facet normal -1 -0 0
  outer loop
   vertex -120 20.773332595825195 -6
   vertex -120 21.573333740234375 -6
   vertex -120 20.773332595825195 -42
  endloop
 endfacet
 facet normal -1 0 -0
  outer loop
   vertex -120 11.386666297912598 -42
   vertex -120 12.186665534973145 -6
   vertex -120 12.186665534973145 -42
  endloop
 endfacet
 facet normal -1 -0 0
  outer loop
   vertex -120 11.386666297912598 -6
   vertex -120 12.186665534973145 -6
   vertex -120 11.386666297912598 -42
  endloop
 endfacet
 facet normal -1 0 0
  outer loop
   vertex -120 0 0
   vertex -120 12.186665534973145 -6
   vertex -120 11.386666297912598 -6
  endloop
 endfacet
 facet normal -1 0 -0
  outer loop
   vertex -120 23.120000839233398 -42
   vertex -120 23.920000076293945 -6
   vertex -120 23.920000076293945 -42
  endloop
 endfacet
 facet normal -1 -0 0
  outer loop
   vertex -120 23.120000839233398 -6
   vertex -120 23.920000076293945 -6
   vertex -120 23.120000839233398 -42
  endloop
 endfacet
 facet normal -1 0 0
  outer loop
   vertex -120 0 0
   vertex -120 13.733333587646484 -6
   vertex -120 12.186665534973145 -6
  endloop
 endfacet
 facet normal -1 0 -0
  outer loop
   vertex -120 4.3466668128967285 -42
   vertex -120 5.1466670036315918 -6
   vertex -120 5.1466670036315918 -42
  endloop
 endfacet
 facet normal -1 -0 0
  outer loop
   vertex -120 4.3466668128967285 -6
   vertex -120 5.1466670036315918 -6
   vertex -120 4.3466668128967285 -42
  endloop
 endfacet
 facet normal -1 0 0
  outer loop
   vertex -120 0 -6
   vertex -120 0 0
   vertex -120 2 -6
  endloop
 endfacet
 facet normal -1 0 0
  outer loop
   vertex -120 2 -6
   vertex -120 0 0
   vertex -120 2.7999999523162842 -6
  endloop
 endfacet
 facet normal -1 0 0
  outer loop
   vertex -120 4.3466668128967285 -6
   vertex -120 0 0
   vertex -120 5.1466670036315918 -6
  endloop
 endfacet
 facet normal -1 0 0
  outer loop
   vertex -120 2.7999999523162842 -6
   vertex -120 0 0
   vertex -120 4.3466668128967285 -6
  endloop
 endfacet
 facet normal -1 0 -0
  outer loop
   vertex -120 25.466667175292969 -42
   vertex -120 26.266666412353516 -6
   vertex -120 26.266666412353516 -42
  endloop
 endfacet
 facet normal -1 -0 0
  outer loop
   vertex -120 25.466667175292969 -6
   vertex -120 26.266666412353516 -6
   vertex -120 25.466667175292969 -42
  endloop
 endfacet
 facet normal -1 0 -0
  outer loop
   vertex -120 13.733333587646484 -42
   vertex -120 14.533333778381348 -6
   vertex -120 14.533333778381348 -42
  endloop
 endfacet
 facet normal -1 -0 0
  outer loop
   vertex -120 13.733333587646484 -6
   vertex -120 14.533333778381348 -6
   vertex -120 13.733333587646484 -42
  endloop
 endfacet
 facet normal -1 0 0
  outer loop
   vertex -120 0 0
   vertex -120 14.533333778381348 -6
   vertex -120 13.733333587646484 -6
  endloop
 endfacet
 facet normal -1 0 0
  outer loop
   vertex -120 0 0
   vertex -120 6.6933331489562988 -6
   vertex -120 5.1466670036315918 -6
  endloop
 endfacet
 facet normal -1 0 -0
  outer loop
   vertex -120 27.813333511352539 -42
   vertex -120 28.613332748413086 -6
   vertex -120 28.613332748413086 -42
  endloop
 endfacet
 facet normal -1 -0 0
  outer loop
   vertex -120 27.813333511352539 -6
   vertex -120 28.613332748413086 -6
   vertex -120 27.813333511352539 -42
  endloop
 endfacet
 facet normal -1 0 0
  outer loop
   vertex -120 0 0
   vertex -120 7.4933328628540039 -6
   vertex -120 6.6933331489562988 -6
  endloop
 endfacet
 facet normal -1 0 0
  outer loop
   vertex -120 0 0
   vertex -120 16.079999923706055 -6
   vertex -120 14.533333778381348 -6
  endloop
 endfacet
 facet normal -1 0 -0
  outer loop
   vertex -120 6.6933331489562988 -42
   vertex -120 7.4933328628540039 -6
   vertex -120 7.4933328628540039 -42
  endloop
 endfacet
 facet normal -1 -0 0
  outer loop
   vertex -120 6.6933331489562988 -6
   vertex -120 7.4933328628540039 -6
   vertex -120 6.6933331489562988 -42
  endloop
 endfacet
 facet normal -1 0 -0
  outer loop
   vertex -120 30.159999847412109 -42
   vertex -120 30.959999084472656 -6
   vertex -120 30.959999084472656 -42
  endloop
 endfacet
 facet normal -1 -0 0
  outer loop
   vertex -120 30.159999847412109 -6
   vertex -120 30.959999084472656 -6
   vertex -120 30.159999847412109 -42
  endloop
 endfacet
 facet normal -1 0 0
  outer loop
   vertex -120 0 0
   vertex -120 9.0399999618530273 -6
   vertex -120 7.4933328628540039 -6
  endloop
 endfacet
 facet normal -1 0 -0
  outer loop
   vertex -120 16.079999923706055 -42
   vertex -120 16.879999160766602 -6
   vertex -120 16.879999160766602 -42
  endloop
 endfacet
 facet normal -1 -0 0
  outer loop
   vertex -120 16.079999923706055 -6
   vertex -120 16.879999160766602 -6
   vertex -120 16.079999923706055 -42
  endloop
 endfacet
 facet normal -1 0 -0
  outer loop
   vertex -120 32.506668090820312 -42
   vertex -120 33.306667327880859 -6
   vertex -120 33.306667327880859 -42
  endloop
 endfacet
 facet normal -1 -0 0
  outer loop
   vertex -120 32.506668090820312 -6
   vertex -120 33.306667327880859 -6
   vertex -120 32.506668090820312 -42
  endloop
 endfacet
 facet normal -1 0 -0
  outer loop
   vertex -120 34.85333251953125 -42
   vertex -120 35.653331756591797 -6
   vertex -120 35.653331756591797 -42
  endloop
 endfacet
 facet normal -1 -0 0
  outer loop
   vertex -120 34.85333251953125 -6
   vertex -120 35.653331756591797 -6
   vertex -120 34.85333251953125 -42
  endloop
 endfacet
 facet normal -1 0 -0
  outer loop
   vertex -120 18.426666259765625 -42
   vertex -120 19.226667404174805 -6
   vertex -120 19.226667404174805 -42
  endloop
 endfacet
 facet normal -1 -0 0
  outer loop
   vertex -120 18.426666259765625 -6
   vertex -120 19.226667404174805 -6
   vertex -120 18.426666259765625 -42
  endloop
 endfacet
 facet normal 1 -0 0
  outer loop
   vertex 0 38 -6
   vertex 0 37.200000762939453 -6
   vertex 0 37.200000762939453 -42
  endloop
 endfacet
 facet normal 1 0 0
  outer loop
   vertex 0 38 -6
   vertex 0 37.200000762939453 -42
   vertex 0 38 -42
  endloop
 endfacet
 facet normal 1 0 0
  outer loop
   vertex 0 9.8400001525878906 -6
   vertex 0 0 0
   vertex 0 9.0399999618530273 -6
  endloop
 endfacet
 facet normal 1 0 0
  outer loop
   vertex 0 40 0
   vertex 0 25.466667175292969 -6
   vertex 0 26.266666412353516 -6
  endloop
 endfacet
 facet normal 1 0 0
  outer loop
   vertex 0 40 0
   vertex 0 23.920000076293945 -6
   vertex 0 25.466667175292969 -6
  endloop
 endfacet
 facet normal 1 0 0
  outer loop
   vertex 0 40 0
   vertex 0 32.506668090820312 -6
   vertex 0 33.306667327880859 -6
  endloop
 endfacet
 facet normal 1 0 0
  outer loop
   vertex 0 40 0
   vertex 0 26.266666412353516 -6
   vertex 0 27.813333511352539 -6
  endloop
 endfacet
 facet normal 1 0 0
  outer loop
   vertex 0 40 0
   vertex 0 28.613332748413086 -6
   vertex 0 30.159999847412109 -6
  endloop
 endfacet
 facet normal 1 0 0
  outer loop
   vertex 0 40 0
   vertex 0 30.959999084472656 -6
   vertex 0 32.506668090820312 -6
  endloop
 endfacet
 facet normal 1 0 0
  outer loop
   vertex 0 40 0
   vertex 0 33.306667327880859 -6
   vertex 0 34.85333251953125 -6
  endloop
 endfacet
 facet normal 1 0 0
  outer loop
   vertex 0 40 0
   vertex 0 30.159999847412109 -6
   vertex 0 30.959999084472656 -6
  endloop
 endfacet
 facet normal 1 0 0
  outer loop
   vertex 0 40 0
   vertex 0 35.653331756591797 -6
   vertex 0 37.200000762939453 -6
  endloop
 endfacet
 facet normal 1 0 0
  outer loop
   vertex 0 40 0
   vertex 0 38 -6
   vertex 0 40 -6
  endloop
 endfacet
 facet normal 1 0 0
  outer loop
   vertex 0 40 0
   vertex 0 27.813333511352539 -6
   vertex 0 28.613332748413086 -6
  endloop
 endfacet
 facet normal 1 0 0
  outer loop
   vertex 0 40 0
   vertex 0 34.85333251953125 -6
   vertex 0 35.653331756591797 -6
  endloop
 endfacet
 facet normal 1 0 0
  outer loop
   vertex 0 40 0
   vertex 0 37.200000762939453 -6
   vertex 0 38 -6
  endloop
 endfacet
 facet normal 1 -0 0
  outer loop
   vertex 0 40 0
   vertex 0 0 0
   vertex 0 16.079999923706055 -6
  endloop
 endfacet
 facet normal 1 0 0
  outer loop
   vertex 0 40 0
   vertex 0 16.079999923706055 -6
   vertex 0 16.879999160766602 -6
  endloop
 endfacet
 facet normal 1 0 0
  outer loop
   vertex 0 40 0
   vertex 0 16.879999160766602 -6
   vertex 0 18.426666259765625 -6
  endloop
 endfacet
 facet normal 1 0 0
  outer loop
   vertex 0 40 0
   vertex 0 18.426666259765625 -6
   vertex 0 19.226667404174805 -6
  endloop
 endfacet
 facet normal 1 0 0
  outer loop
   vertex 0 40 0
   vertex 0 19.226667404174805 -6
   vertex 0 20.773332595825195 -6
  endloop
 endfacet
 facet normal 1 -0 0
  outer loop
   vertex 0 21.573333740234375 -6
   vertex 0 20.773332595825195 -6
   vertex 0 20.773332595825195 -42
  endloop
 endfacet
 facet normal 1 0 0
  outer loop
   vertex 0 40 0
   vertex 0 20.773332595825195 -6
   vertex 0 21.573333740234375 -6
  endloop
 endfacet
 facet normal 1 0 0
  outer loop
   vertex 0 21.573333740234375 -6
   vertex 0 20.773332595825195 -42
   vertex 0 21.573333740234375 -42
  endloop
 endfacet
 facet normal 1 0 0
  outer loop
   vertex 0 40 0
   vertex 0 21.573333740234375 -6
   vertex 0 23.120000839233398 -6
  endloop
 endfacet
 facet normal 1 0 0
  outer loop
   vertex 0 40 0
   vertex 0 23.120000839233398 -6
   vertex 0 23.920000076293945 -6
  endloop
 endfacet
 facet normal 1 0 0
  outer loop
   vertex 0 11.386666297912598 -6
   vertex 0 0 0
   vertex 0 9.8400001525878906 -6
  endloop
 endfacet
 facet normal 1 -0 0
  outer loop
   vertex 0 12.186665534973145 -6
   vertex 0 11.386666297912598 -6
   vertex 0 11.386666297912598 -42
  endloop
 endfacet
 facet normal 1 0 0
  outer loop
   vertex 0 12.186665534973145 -6
   vertex 0 11.386666297912598 -42
   vertex 0 12.186665534973145 -42
  endloop
 endfacet
 facet normal 1 -0 0
  outer loop
   vertex 0 5.1466670036315918 -6
   vertex 0 4.3466668128967285 -6
   vertex 0 4.3466668128967285 -42
  endloop
 endfacet
 facet normal 1 0 0
  outer loop
   vertex 0 5.1466670036315918 -6
   vertex 0 4.3466668128967285 -42
   vertex 0 5.1466670036315918 -42
  endloop
 endfacet
 facet normal 1 -0 0
  outer loop
   vertex 0 23.920000076293945 -6
   vertex 0 23.120000839233398 -6
   vertex 0 23.120000839233398 -42
  endloop
 endfacet
 facet normal 1 0 0
  outer loop
   vertex 0 12.186665534973145 -6
   vertex 0 0 0
   vertex 0 11.386666297912598 -6
  endloop
 endfacet
 facet normal 1 0 0
  outer loop
   vertex 0 23.920000076293945 -6
   vertex 0 23.120000839233398 -42
   vertex 0 23.920000076293945 -42
  endloop
 endfacet
 facet normal 1 0 -0
  outer loop
   vertex 0 0 0
   vertex 0 2.7999999523162842 -6
   vertex 0 4.3466668128967285 -6
  endloop
 endfacet
 facet normal 1 0 -0
  outer loop
   vertex 0 0 0
   vertex 0 2 -6
   vertex 0 2.7999999523162842 -6
  endloop
 endfacet
 facet normal 1 0 0
  outer loop
   vertex 0 0 0
   vertex 0 0 -6
   vertex 0 2 -6
  endloop
 endfacet
 facet normal 1 0 -0
  outer loop
   vertex 0 0 0
   vertex 0 4.3466668128967285 -6
   vertex 0 5.1466670036315918 -6
  endloop
 endfacet
 facet normal 1 0 0
  outer loop
   vertex 0 13.733333587646484 -6
   vertex 0 0 0
   vertex 0 12.186665534973145 -6
  endloop
 endfacet
 facet normal 1 -0 0
  outer loop
   vertex 0 14.533333778381348 -6
   vertex 0 13.733333587646484 -6
   vertex 0 13.733333587646484 -42
  endloop
 endfacet
 facet normal 1 -0 0
  outer loop
   vertex 0 26.266666412353516 -6
   vertex 0 25.466667175292969 -6
   vertex 0 25.466667175292969 -42
  endloop
 endfacet
 facet normal 1 0 0
  outer loop
   vertex 0 14.533333778381348 -6
   vertex 0 13.733333587646484 -42
   vertex 0 14.533333778381348 -42
  endloop
 endfacet
 facet normal 1 0 0
  outer loop
   vertex 0 26.266666412353516 -6
   vertex 0 25.466667175292969 -42
   vertex 0 26.266666412353516 -42
  endloop
 endfacet
 facet normal 1 0 0
  outer loop
   vertex 0 6.6933331489562988 -6
   vertex 0 0 0
   vertex 0 5.1466670036315918 -6
  endloop
 endfacet
 facet normal 1 0 0
  outer loop
   vertex 0 14.533333778381348 -6
   vertex 0 0 0
   vertex 0 13.733333587646484 -6
  endloop
 endfacet
 facet normal 1 -0 0
  outer loop
   vertex 0 7.4933328628540039 -6
   vertex 0 6.6933331489562988 -6
   vertex 0 6.6933331489562988 -42
  endloop
 endfacet
 facet normal 1 0 0
  outer loop
   vertex 0 7.4933328628540039 -6
   vertex 0 6.6933331489562988 -42
   vertex 0 7.4933328628540039 -42
  endloop
 endfacet
 facet normal 1 -0 0
  outer loop
   vertex 0 28.613332748413086 -6
   vertex 0 27.813333511352539 -6
   vertex 0 27.813333511352539 -42
  endloop
 endfacet
 facet normal 1 0 0
  outer loop
   vertex 0 28.613332748413086 -6
   vertex 0 27.813333511352539 -42
   vertex 0 28.613332748413086 -42
  endloop
 endfacet
 facet normal 1 0 0
  outer loop
   vertex 0 16.079999923706055 -6
   vertex 0 0 0
   vertex 0 14.533333778381348 -6
  endloop
 endfacet
 facet normal 1 -0 0
  outer loop
   vertex 0 16.879999160766602 -6
   vertex 0 16.079999923706055 -6
   vertex 0 16.079999923706055 -42
  endloop
 endfacet
 facet normal 1 0 0
  outer loop
   vertex 0 16.879999160766602 -6
   vertex 0 16.079999923706055 -42
   vertex 0 16.879999160766602 -42
  endloop
 endfacet
 facet normal 1 0 0
  outer loop
   vertex 0 7.4933328628540039 -6
   vertex 0 0 0
   vertex 0 6.6933331489562988 -6
  endloop
 endfacet
 facet normal 1 -0 0
  outer loop
   vertex 0 30.959999084472656 -6
   vertex 0 30.159999847412109 -6
   vertex 0 30.159999847412109 -42
  endloop
 endfacet
 facet normal 1 0 0
  outer loop
   vertex 0 30.959999084472656 -6
   vertex 0 30.159999847412109 -42
   vertex 0 30.959999084472656 -42
  endloop
 endfacet
 facet normal 1 -0 0
  outer loop
   vertex 0 33.306667327880859 -6
   vertex 0 32.506668090820312 -6
   vertex 0 32.506668090820312 -42
  endloop
 endfacet
 facet normal 1 0 0
  outer loop
   vertex 0 33.306667327880859 -6
   vertex 0 32.506668090820312 -42
   vertex 0 33.306667327880859 -42
  endloop
 endfacet
 facet normal 1 0 0
  outer loop
   vertex 0 9.0399999618530273 -6
   vertex 0 0 0
   vertex 0 7.4933328628540039 -6
  endloop
 endfacet
 facet normal 1 -0 0
  outer loop
   vertex 0 2.7999999523162842 -6
   vertex 0 2 -6
   vertex 0 2 -42
  endloop
 endfacet
 facet normal 1 -0 0
  outer loop
   vertex 0 9.8400001525878906 -6
   vertex 0 9.0399999618530273 -6
   vertex 0 9.0399999618530273 -42
  endloop
 endfacet
 facet normal 1 0 0
  outer loop
   vertex 0 2.7999999523162842 -6
   vertex 0 2 -42
   vertex 0 2.7999999523162842 -42
  endloop
 endfacet
 facet normal 1 0 0
  outer loop
   vertex 0 9.8400001525878906 -6
   vertex 0 9.0399999618530273 -42
   vertex 0 9.8400001525878906 -42
  endloop
 endfacet
 facet normal 1 -0 0
  outer loop
   vertex 0 35.653331756591797 -6
   vertex 0 34.85333251953125 -6
   vertex 0 34.85333251953125 -42
  endloop
 endfacet
 facet normal 1 -0 0
  outer loop
   vertex 0 19.226667404174805 -6
   vertex 0 18.426666259765625 -6
   vertex 0 18.426666259765625 -42
  endloop
 endfacet
 facet normal 1 0 0
  outer loop
   vertex 0 35.653331756591797 -6
   vertex 0 34.85333251953125 -42
   vertex 0 35.653331756591797 -42
  endloop
 endfacet
 facet normal 1 0 0
  outer loop
   vertex 0 19.226667404174805 -6
   vertex 0 18.426666259765625 -42
   vertex 0 19.226667404174805 -42
  endloop
 endfacet
 facet normal 0 -1 0
  outer loop
   vertex 0 4.3466668128967285 -6
   vertex -120 4.3466668128967285 -42
   vertex 0 4.3466668128967285 -42
  endloop
 endfacet
 facet normal 0 -1 0
  outer loop
   vertex -120 4.3466668128967285 -6
   vertex -120 4.3466668128967285 -42
   vertex 0 4.3466668128967285 -6
  endloop
 endfacet
 facet normal 0 0 -1
  outer loop
   vertex -120 4.3466668128967285 -42
   vertex -120 5.1466670036315918 -42
   vertex 0 5.1466670036315918 -42
  endloop
 endfacet
 facet normal 0 -0 -1
  outer loop
   vertex -120 4.3466668128967285 -42
   vertex 0 5.1466670036315918 -42
   vertex 0 4.3466668128967285 -42
  endloop
 endfacet
 facet normal -0 1 0
  outer loop
   vertex 0 5.1466670036315918 -42
   vertex -120 5.1466670036315918 -6
   vertex 0 5.1466670036315918 -6
  endloop
 endfacet
 facet normal 0 1 0
  outer loop
   vertex -120 5.1466670036315918 -42
   vertex -120 5.1466670036315918 -6
   vertex 0 5.1466670036315918 -42
  endloop
 endfacet
 facet normal 0 -1 0
  outer loop
   vertex 0 6.6933331489562988 -6
   vertex -120 6.6933331489562988 -42
   vertex 0 6.6933331489562988 -42
  endloop
 endfacet
 facet normal 0 -1 0
  outer loop
   vertex -120 6.6933331489562988 -6
   vertex -120 6.6933331489562988 -42
   vertex 0 6.6933331489562988 -6
  endloop
 endfacet
 facet normal 0 0 -1
  outer loop
   vertex -120 6.6933331489562988 -42
   vertex -120 7.4933328628540039 -42
   vertex 0 7.4933328628540039 -42
  endloop
 endfacet
 facet normal 0 -0 -1
  outer loop
   vertex -120 6.6933331489562988 -42
   vertex 0 7.4933328628540039 -42
   vertex 0 6.6933331489562988 -42
  endloop
 endfacet
 facet normal -0 1 0
  outer loop
   vertex 0 7.4933328628540039 -42
   vertex -120 7.4933328628540039 -6
   vertex 0 7.4933328628540039 -6
  endloop
 endfacet
 facet normal 0 1 0
  outer loop
   vertex -120 7.4933328628540039 -42
   vertex -120 7.4933328628540039 -6
   vertex 0 7.4933328628540039 -42
  endloop
 endfacet
 facet normal 0 -1 0
  outer loop
   vertex 0 9.0399999618530273 -6
   vertex -120 9.0399999618530273 -42
   vertex 0 9.0399999618530273 -42
  endloop
 endfacet
 facet normal 0 -1 0
  outer loop
   vertex -120 9.0399999618530273 -6
   vertex -120 9.0399999618530273 -42
   vertex 0 9.0399999618530273 -6
  endloop
 endfacet
 facet normal 0 0 -1
  outer loop
   vertex -120 9.0399999618530273 -42
   vertex -120 9.8400001525878906 -42
   vertex 0 9.8400001525878906 -42
  endloop
 endfacet
 facet normal 0 -0 -1
  outer loop
   vertex -120 9.0399999618530273 -42
   vertex 0 9.8400001525878906 -42
   vertex 0 9.0399999618530273 -42
  endloop
 endfacet
 facet normal -0 1 0
  outer loop
   vertex 0 9.8400001525878906 -42
   vertex -120 9.8400001525878906 -6
   vertex 0 9.8400001525878906 -6
  endloop
 endfacet
 facet normal 0 1 0
  outer loop
   vertex -120 9.8400001525878906 -42
   vertex -120 9.8400001525878906 -6
   vertex 0 9.8400001525878906 -42
  endloop
 endfacet
 facet normal 0 -1 0
  outer loop
   vertex 0 11.386666297912598 -6
   vertex -120 11.386666297912598 -42
   vertex 0 11.386666297912598 -42
  endloop
 endfacet
 facet normal 0 -1 0
  outer loop
   vertex -120 11.386666297912598 -6
   vertex -120 11.386666297912598 -42
   vertex 0 11.386666297912598 -6
  endloop
 endfacet
 facet normal 0 0 -1
  outer loop
   vertex -120 11.386666297912598 -42
   vertex -120 12.186665534973145 -42
   vertex 0 12.186665534973145 -42
  endloop
 endfacet
 facet normal 0 -0 -1
  outer loop
   vertex -120 11.386666297912598 -42
   vertex 0 12.186665534973145 -42
   vertex 0 11.386666297912598 -42
  endloop
 endfacet
 facet normal -0 1 0
  outer loop
   vertex 0 12.186665534973145 -42
   vertex -120 12.186665534973145 -6
   vertex 0 12.186665534973145 -6
  endloop
 endfacet
 facet normal 0 1 0
  outer loop
   vertex -120 12.186665534973145 -42
   vertex -120 12.186665534973145 -6
   vertex 0 12.186665534973145 -42
  endloop
 endfacet
 facet normal 0 -1 0
  outer loop
   vertex 0 13.733333587646484 -6
   vertex -120 13.733333587646484 -42
   vertex 0 13.733333587646484 -42
  endloop
 endfacet
 facet normal 0 -1 0
  outer loop
   vertex -120 13.733333587646484 -6
   vertex -120 13.733333587646484 -42
   vertex 0 13.733333587646484 -6
  endloop
 endfacet
 facet normal 0 0 -1
  outer loop
   vertex -120 13.733333587646484 -42
   vertex -120 14.533333778381348 -42
   vertex 0 14.533333778381348 -42
  endloop
 endfacet
 facet normal 0 -0 -1
  outer loop
   vertex -120 13.733333587646484 -42
   vertex 0 14.533333778381348 -42
   vertex 0 13.733333587646484 -42
  endloop
 endfacet
 facet normal -0 1 0
  outer loop
   vertex 0 14.533333778381348 -42
   vertex -120 14.533333778381348 -6
   vertex 0 14.533333778381348 -6
  endloop
 endfacet
 facet normal 0 1 0
  outer loop
   vertex -120 14.533333778381348 -42
   vertex -120 14.533333778381348 -6
   vertex 0 14.533333778381348 -42
  endloop
 endfacet
 facet normal 0 -1 0
  outer loop
   vertex 0 16.079999923706055 -6
   vertex -120 16.079999923706055 -42
   vertex 0 16.079999923706055 -42
  endloop
 endfacet
 facet normal 0 -1 0
  outer loop
   vertex -120 16.079999923706055 -6
   vertex -120 16.079999923706055 -42
   vertex 0 16.079999923706055 -6
  endloop
 endfacet
 facet normal 0 0 -1
  outer loop
   vertex -120 16.079999923706055 -42
   vertex -120 16.879999160766602 -42
   vertex 0 16.879999160766602 -42
  endloop
 endfacet
 facet normal 0 -0 -1
  outer loop
   vertex -120 16.079999923706055 -42
   vertex 0 16.879999160766602 -42
   vertex 0 16.079999923706055 -42
  endloop
 endfacet
 facet normal -0 1 0
  outer loop
   vertex 0 16.879999160766602 -42
   vertex -120 16.879999160766602 -6
   vertex 0 16.879999160766602 -6
  endloop
 endfacet
 facet normal 0 1 0
  outer loop
   vertex -120 16.879999160766602 -42
   vertex -120 16.879999160766602 -6
   vertex 0 16.879999160766602 -42
  endloop
 endfacet
 facet normal 0 -1 0
  outer loop
   vertex 0 18.426666259765625 -6
   vertex -120 18.426666259765625 -42
   vertex 0 18.426666259765625 -42
  endloop
 endfacet
 facet normal 0 -1 0
  outer loop
   vertex -120 18.426666259765625 -6
   vertex -120 18.426666259765625 -42
   vertex 0 18.426666259765625 -6
  endloop
 endfacet
 facet normal 0 0 -1
  outer loop
   vertex -120 18.426666259765625 -42
   vertex -120 19.226667404174805 -42
   vertex 0 19.226667404174805 -42
  endloop
 endfacet
 facet normal 0 -0 -1
  outer loop
   vertex -120 18.426666259765625 -42
   vertex 0 19.226667404174805 -42
   vertex 0 18.426666259765625 -42
  endloop
 endfacet
 facet normal -0 1 0
  outer loop
   vertex 0 19.226667404174805 -42
   vertex -120 19.226667404174805 -6
   vertex 0 19.226667404174805 -6
  endloop
 endfacet
 facet normal 0 1 0
  outer loop
   vertex -120 19.226667404174805 -42
   vertex -120 19.226667404174805 -6
   vertex 0 19.226667404174805 -42
  endloop
 endfacet
 facet normal 0 -1 0
  outer loop
   vertex 0 20.773332595825195 -6
   vertex -120 20.773332595825195 -42
   vertex 0 20.773332595825195 -42
  endloop
 endfacet
 facet normal 0 -1 0
  outer loop
   vertex -120 20.773332595825195 -6
   vertex -120 20.773332595825195 -42
   vertex 0 20.773332595825195 -6
  endloop
 endfacet
 facet normal 0 0 -1
  outer loop
   vertex -120 20.773332595825195 -42
   vertex -120 21.573333740234375 -42
   vertex 0 21.573333740234375 -42
  endloop
 endfacet
 facet normal 0 -0 -1
  outer loop
   vertex -120 20.773332595825195 -42
   vertex 0 21.573333740234375 -42
   vertex 0 20.773332595825195 -42
  endloop
 endfacet
 facet normal -0 1 0
  outer loop
   vertex 0 21.573333740234375 -42
   vertex -120 21.573333740234375 -6
   vertex 0 21.573333740234375 -6
  endloop
 endfacet
 facet normal 0 1 0
  outer loop
   vertex -120 21.573333740234375 -42
   vertex -120 21.573333740234375 -6
   vertex 0 21.573333740234375 -42
  endloop
 endfacet
 facet normal 0 -1 0
  outer loop
   vertex 0 23.120000839233398 -6
   vertex -120 23.120000839233398 -42
   vertex 0 23.120000839233398 -42
  endloop
 endfacet
 facet normal 0 -1 0
  outer loop
   vertex -120 23.120000839233398 -6
   vertex -120 23.120000839233398 -42
   vertex 0 23.120000839233398 -6
  endloop
 endfacet
 facet normal 0 0 -1
  outer loop
   vertex -120 23.120000839233398 -42
   vertex -120 23.920000076293945 -42
   vertex 0 23.920000076293945 -42
  endloop
 endfacet
 facet normal 0 -0 -1
  outer loop
   vertex -120 23.120000839233398 -42
   vertex 0 23.920000076293945 -42
   vertex 0 23.120000839233398 -42
  endloop
 endfacet
 facet normal -0 1 0
  outer loop
   vertex 0 23.920000076293945 -42
   vertex -120 23.920000076293945 -6
   vertex 0 23.920000076293945 -6
  endloop
 endfacet
 facet normal 0 1 0
  outer loop
   vertex -120 23.920000076293945 -42
   vertex -120 23.920000076293945 -6
   vertex 0 23.920000076293945 -42
  endloop
 endfacet
 facet normal 0 -1 0
  outer loop
   vertex 0 25.466667175292969 -6
   vertex -120 25.466667175292969 -42
   vertex 0 25.466667175292969 -42
  endloop
 endfacet
 facet normal 0 -1 0
  outer loop
   vertex -120 25.466667175292969 -6
   vertex -120 25.466667175292969 -42
   vertex 0 25.466667175292969 -6
  endloop
 endfacet
 facet normal 0 0 -1
  outer loop
   vertex -120 25.466667175292969 -42
   vertex -120 26.266666412353516 -42
   vertex 0 26.266666412353516 -42
  endloop
 endfacet
 facet normal 0 -0 -1
  outer loop
   vertex -120 25.466667175292969 -42
   vertex 0 26.266666412353516 -42
   vertex 0 25.466667175292969 -42
  endloop
 endfacet
 facet normal -0 1 0
  outer loop
   vertex 0 26.266666412353516 -42
   vertex -120 26.266666412353516 -6
   vertex 0 26.266666412353516 -6
  endloop
 endfacet
 facet normal 0 1 0
  outer loop
   vertex -120 26.266666412353516 -42
   vertex -120 26.266666412353516 -6
   vertex 0 26.266666412353516 -42
  endloop
 endfacet
 facet normal 0 -1 0
  outer loop
   vertex 0 27.813333511352539 -6
   vertex -120 27.813333511352539 -42
   vertex 0 27.813333511352539 -42
  endloop
 endfacet
 facet normal 0 -1 0
  outer loop
   vertex -120 27.813333511352539 -6
   vertex -120 27.813333511352539 -42
   vertex 0 27.813333511352539 -6
  endloop
 endfacet
 facet normal 0 0 -1
  outer loop
   vertex -120 27.813333511352539 -42
   vertex -120 28.613332748413086 -42
   vertex 0 28.613332748413086 -42
  endloop
 endfacet
 facet normal 0 -0 -1
  outer loop
   vertex -120 27.813333511352539 -42
   vertex 0 28.613332748413086 -42
   vertex 0 27.813333511352539 -42
  endloop
 endfacet
 facet normal -0 1 0
  outer loop
   vertex 0 28.613332748413086 -42
   vertex -120 28.613332748413086 -6
   vertex 0 28.613332748413086 -6
  endloop
 endfacet
 facet normal 0 1 0
  outer loop
   vertex -120 28.613332748413086 -42
   vertex -120 28.613332748413086 -6
   vertex 0 28.613332748413086 -42
  endloop
 endfacet
 facet normal 0 -1 0
  outer loop
   vertex 0 30.159999847412109 -6
   vertex -120 30.159999847412109 -42
   vertex 0 30.159999847412109 -42
  endloop
 endfacet
 facet normal 0 -1 0
  outer loop
   vertex -120 30.159999847412109 -6
   vertex -120 30.159999847412109 -42
   vertex 0 30.159999847412109 -6
  endloop
 endfacet
 facet normal 0 0 -1
  outer loop
   vertex -120 30.159999847412109 -42
   vertex -120 30.959999084472656 -42
   vertex 0 30.959999084472656 -42
  endloop
 endfacet
 facet normal 0 -0 -1
  outer loop
   vertex -120 30.159999847412109 -42
   vertex 0 30.959999084472656 -42
   vertex 0 30.159999847412109 -42
  endloop
 endfacet
 facet normal -0 1 0
  outer loop
   vertex 0 30.959999084472656 -42
   vertex -120 30.959999084472656 -6
   vertex 0 30.959999084472656 -6
  endloop
 endfacet
 facet normal 0 1 0
  outer loop
   vertex -120 30.959999084472656 -42
   vertex -120 30.959999084472656 -6
   vertex 0 30.959999084472656 -42
  endloop
 endfacet
 facet normal 0 -1 0
  outer loop
   vertex 0 32.506668090820312 -6
   vertex -120 32.506668090820312 -42
   vertex 0 32.506668090820312 -42
  endloop
 endfacet
 facet normal 0 -1 0
  outer loop
   vertex -120 32.506668090820312 -6
   vertex -120 32.506668090820312 -42
   vertex 0 32.506668090820312 -6
  endloop
 endfacet
 facet normal 0 0 -1
  outer loop
   vertex -120 32.506668090820312 -42
   vertex -120 33.306667327880859 -42
   vertex 0 33.306667327880859 -42
  endloop
 endfacet
 facet normal 0 -0 -1
  outer loop
   vertex -120 32.506668090820312 -42
   vertex 0 33.306667327880859 -42
   vertex 0 32.506668090820312 -42
  endloop
 endfacet
 facet normal -0 1 0
  outer loop
   vertex 0 33.306667327880859 -42
   vertex -120 33.306667327880859 -6
   vertex 0 33.306667327880859 -6
  endloop
 endfacet
 facet normal 0 1 0
  outer loop
   vertex -120 33.306667327880859 -42
   vertex -120 33.306667327880859 -6
   vertex 0 33.306667327880859 -42
  endloop
 endfacet
 facet normal 0 -1 0
  outer loop
   vertex 0 34.85333251953125 -6
   vertex -120 34.85333251953125 -42
   vertex 0 34.85333251953125 -42
  endloop
 endfacet
 facet normal 0 -1 0
  outer loop
   vertex -120 34.85333251953125 -6
   vertex -120 34.85333251953125 -42
   vertex 0 34.85333251953125 -6
  endloop
 endfacet
 facet normal 0 0 -1
  outer loop
   vertex -120 34.85333251953125 -42
   vertex -120 35.653331756591797 -42
   vertex 0 35.653331756591797 -42
  endloop
 endfacet
 facet normal 0 -0 -1
  outer loop
   vertex -120 34.85333251953125 -42
   vertex 0 35.653331756591797 -42
   vertex 0 34.85333251953125 -42
  endloop
 endfacet
 facet normal -0 1 0
  outer loop
   vertex 0 35.653331756591797 -42
   vertex -120 35.653331756591797 -6
   vertex 0 35.653331756591797 -6
  endloop
 endfacet
 facet normal 0 1 0
  outer loop
   vertex -120 35.653331756591797 -42
   vertex -120 35.653331756591797 -6
   vertex 0 35.653331756591797 -42
  endloop
 endfacet
 facet normal 0 -1 0
  outer loop
   vertex 0 37.200000762939453 -6
   vertex -120 37.200000762939453 -42
   vertex 0 37.200000762939453 -42
  endloop
 endfacet
 facet normal 0 -1 0
  outer loop
   vertex -120 37.200000762939453 -6
   vertex -120 37.200000762939453 -42
   vertex 0 37.200000762939453 -6
  endloop
 endfacet
 facet normal 0 0 -1
  outer loop
   vertex -120 37.200000762939453 -42
   vertex -120 38 -42
   vertex 0 38 -42
  endloop
 endfacet
 facet normal 0 -0 -1
  outer loop
   vertex -120 37.200000762939453 -42
   vertex 0 38 -42
   vertex 0 37.200000762939453 -42
  endloop
 endfacet
 facet normal -0 1 0
  outer loop
   vertex 0 38 -42
   vertex -120 38 -6
   vertex 0 38 -6
  endloop
 endfacet
 facet normal 0 1 0
  outer loop
   vertex -120 38 -42
   vertex -120 38 -6
   vertex 0 38 -42
  endloop
 endfacet
endsolid
