solid Visualization Toolkit generated SLA File
 facet normal 0 0 -1
  outer loop
   vertex -13.5 33 0.5
   vertex -13.5 13 0.5
   vertex -28.5 33 0.5
  endloop
 endfacet
 facet normal 0 0 -1
  outer loop
   vertex -28.5 33 0.5
   vertex -13.5 13 0.5
   vertex -28.5 13 0.5
  endloop
 endfacet
 facet normal 0 1 -0
  outer loop
   vertex -13.5 33 1.5
   vertex -13.5 33 0.5
   vertex -28.5 33 0.5
  endloop
 endfacet
 facet normal 0 1 0
  outer loop
   vertex -13.5 33 1.5
   vertex -28.5 33 0.5
   vertex -28.5 33 1.5
  endloop
 endfacet
 facet normal 0 0 1
  outer loop
   vertex -13.5 13 1.5
   vertex -13.5 33 1.5
   vertex -28.5 33 1.5
  endloop
 endfacet
 facet normal 0 0 1
  outer loop
   vertex -13.5 13 1.5
   vertex -28.5 33 1.5
   vertex -28.5 13 1.5
  endloop
 endfacet
 facet normal -0 -1 -0
  outer loop
   vertex -13.5 13 0.5
   vertex -13.5 13 1.5
   vertex -28.5 13 1.5
  endloop
 endfacet
 facet normal 0 -1 0
  outer loop
   vertex -13.5 13 0.5
   vertex -28.5 13 1.5
   vertex -28.5 13 0.5
  endloop
 endfacet
 facet normal -1 -0 0
  outer loop
   vertex -28.5 13 1.5
   vertex -28.5 33 1.5
   vertex -28.5 13 0.5
  endloop
 endfacet
 facet normal -1 0 -0
  outer loop
   vertex -28.5 13 0.5
   vertex -28.5 33 1.5
   vertex -28.5 33 0.5
  endloop
 endfacet
 facet normal 1 0 0
  outer loop
   vertex -13.5 33 1.5
   vertex -13.5 13 0.5
   vertex -13.5 33 0.5
  endloop
 endfacet
 facet normal 1 -0 0
  outer loop
   vertex -13.5 33 1.5
   vertex -13.5 13 1.5
   vertex -13.5 13 0.5
  endloop
 endfacet
endsolid
