solid Visualization Toolkit generated SLA File
 facet normal -1 -0 -0
  outer loop
   vertex -0.5 -0.5 -0.0040000001899898052
   vertex -0.5 0.5 -0.0040000001899898052
   vertex -0.5 0.5 -0.014000000432133675
  endloop
 endfacet
 facet normal -1 0 0
  outer loop
   vertex -0.5 -0.5 -0.0040000001899898052
   vertex -0.5 0.5 -0.014000000432133675
   vertex -0.5 -0.5 -0.014000000432133675
  endloop
 endfacet
 facet normal 1 0 -0
  outer loop
   vertex 0.5 -0.5 -0.0040000001899898052
   vertex 0.5 0.5 -0.014000000432133675
   vertex 0.5 0.5 -0.0040000001899898052
  endloop
 endfacet
 facet normal 1 0 0
  outer loop
   vertex 0.5 -0.5 -0.0040000001899898052
   vertex 0.5 -0.5 -0.014000000432133675
   vertex 0.5 0.5 -0.014000000432133675
  endloop
 endfacet
 facet normal 0 -1 0
  outer loop
   vertex 0.5 -0.5 -0.0040000001899898052
   vertex -0.5 -0.5 -0.014000000432133675
   vertex 0.5 -0.5 -0.014000000432133675
  endloop
 endfacet
 facet normal 0 -1 0
  outer loop
   vertex 0.5 -0.5 -0.0040000001899898052
   vertex -0.5 -0.5 -0.0040000001899898052
   vertex -0.5 -0.5 -0.014000000432133675
  endloop
 endfacet
 facet normal 0 1 -0
  outer loop
   vertex 0.5 0.5 -0.0040000001899898052
   vertex 0.5 0.5 -0.014000000432133675
   vertex -0.5 0.5 -0.014000000432133675
  endloop
 endfacet
 facet normal 0 1 0
  outer loop
   vertex 0.5 0.5 -0.0040000001899898052
   vertex -0.5 0.5 -0.014000000432133675
   vertex -0.5 0.5 -0.0040000001899898052
  endloop
 endfacet
 facet normal 0 0 -1
  outer loop
   vertex 0.5 0.5 -0.014000000432133675
   vertex -0.5 -0.5 -0.014000000432133675
   vertex -0.5 0.5 -0.014000000432133675
  endloop
 endfacet
 facet normal 0 0 -1
  outer loop
   vertex 0.5 0.5 -0.014000000432133675
   vertex 0.5 -0.5 -0.014000000432133675
   vertex -0.5 -0.5 -0.014000000432133675
  endloop
 endfacet
 facet normal -0 0 1
  outer loop
   vertex 0.5 0.5 -0.0040000001899898052
   vertex -0.5 0.5 -0.0040000001899898052
   vertex -0.5 -0.5 -0.0040000001899898052
  endloop
 endfacet
 facet normal 0 0 1
  outer loop
   vertex 0.5 0.5 -0.0040000001899898052
   vertex -0.5 -0.5 -0.0040000001899898052
   vertex 0.5 -0.5 -0.0040000001899898052
  endloop
 endfacet
endsolid
