solid Visualization Toolkit generated SLA File
 facet normal 0 1 0
  outer loop
   vertex -0.0039989999495446682 0.0080080004408955574 0.0040119998157024384
   vertex 0.0040009999647736549 0.0080080004408955574 0.0040119998157024384
   vertex -0.0039989999495446682 0.0080080004408955574 -0.0039889998733997345
  endloop
 endfacet
 facet normal 0 1 0
  outer loop
   vertex -0.0039989999495446682 0.0080080004408955574 -0.0039889998733997345
   vertex 0.0040009999647736549 0.0080080004408955574 0.0040119998157024384
   vertex 0.0040009999647736549 0.0080080004408955574 -0.0039889998733997345
  endloop
 endfacet
endsolid
