# vtk DataFile Version 2.0
Heat path
ASCII
DATASET POLYDATA
POINTS 1274 double
0.5 0.5 0.5
0.507529 0.499861 0.49342
0.511806 0.508818 0.492208
0.520974 0.512789 0.492631
0.517814 0.503405 0.494025
0.518261 0.507853 0.50297
0.523101 0.506454 0.494332
0.516617 0.505424 0.501875
0.520778 0.496849 0.504899
0.515728 0.496686 0.513528
0.51275 0.501323 0.521873
0.510945 0.511036 0.523419
0.509442 0.50671 0.51453
0.506301 0.497483 0.512293
0.507346 0.503818 0.504626
0.511132 0.494827 0.506826
0.514523 0.50407 0.505071
0.515251 0.513587 0.508054
0.50544 0.513708 0.509982
0.499801 0.521966 0.509857
0.490469 0.521038 0.506386
0.4834 0.516461 0.500993
0.478333 0.524535 0.504016
0.48731 0.527273 0.507467
0.479407 0.524331 0.512842
0.473263 0.517585 0.508752
0.473249 0.522985 0.517168
0.469685 0.526019 0.508332
0.475815 0.532632 0.50401
0.467635 0.527976 0.500632
0.468016 0.532665 0.491808
0.468413 0.531699 0.501753
0.467862 0.527608 0.510862
0.464631 0.520764 0.517397
0.465208 0.529027 0.511794
0.473818 0.526915 0.516421
0.483015 0.524788 0.513121
0.490911 0.519094 0.515405
0.494484 0.520658 0.506197
0.497909 0.521405 0.515562
0.488915 0.521211 0.511196
0.479767 0.522917 0.507535
0.486195 0.529822 0.504219
0.492226 0.526595 0.496924
0.498345 0.520073 0.49245
0.489134 0.522666 0.495354
0.495198 0.516715 0.500629
0.49089 0.517842 0.491675
0.488196 0.508259 0.492629
0.479338 0.507657 0.497229
0.479238 0.515041 0.490487
0.471656 0.508814 0.488553
0.47854 0.515925 0.487128
0.475003 0.51461 0.496389
0.472619 0.524264 0.495328
0.474308 0.514548 0.493668
0.465629 0.509582 0.493587
0.458992 0.502887 0.49025
0.45139 0.509245 0.491586
0.459107 0.503035 0.49296
0.45971 0.499057 0.502115
0.464001 0.505128 0.508804
0.472671 0.505588 0.513764
0.466927 0.511763 0.519137
0.474801 0.514599 0.524611
0.47202 0.505383 0.521901
0.479599 0.509474 0.526982
0.474909 0.511033 0.518289
0.465077 0.509427 0.517413
0.473489 0.504171 0.516139
0.478415 0.503926 0.50744
0.483386 0.508768 0.51464
0.484885 0.501332 0.521156
0.486043 0.511264 0.521038
0.47738 0.509264 0.525616
0.480067 0.502554 0.518706
0.475176 0.505639 0.526864
0.481437 0.49878 0.530575
0.489811 0.499739 0.535955
0.498652 0.495444 0.537798
0.498713 0.490275 0.546359
0.493474 0.49829 0.549244
0.496347 0.494995 0.54025
0.493901 0.501151 0.532759
0.495531 0.491358 0.531554
0.504143 0.486705 0.533597
0.49463 0.488478 0.531074
0.49239 0.486869 0.521462
0.495603 0.496333 0.521118
0.49988 0.504625 0.524717
0.496624 0.501651 0.533692
0.499305 0.493313 0.538519
0.503659 0.495035 0.529683
0.509838 0.487184 0.529256
0.507493 0.496417 0.526213
0.516361 0.497987 0.521866
0.520327 0.490737 0.516235
0.518889 0.495352 0.507481
0.5148 0.491117 0.515564
0.514645 0.500618 0.51245
0.521604 0.494202 0.509224
0.530049 0.489019 0.510574
0.528052 0.488353 0.500798
0.525709 0.493696 0.492677
0.525505 0.483779 0.493948
0.528413 0.474216 0.494257
0.52706 0.464836 0.491066
0.520742 0.466253 0.498687
0.514968 0.458602 0.501537
0.523872 0.454177 0.500478
0.52023 0.44499 0.498952
0.521839 0.452972 0.504756
0.531426 0.453878 0.502059
0.525658 0.447319 0.49719
0.516931 0.443712 0.500483
0.526024 0.445821 0.496894
0.530692 0.438194 0.50137
0.537433 0.445561 0.501909
0.541043 0.45236 0.495526
0.549304 0.451417 0.489969
0.555848 0.458396 0.487059
0.552479 0.449657 0.483555
0.560768 0.4443 0.481943
0.558991 0.452697 0.487075
0.553823 0.457309 0.479861
0.561686 0.463348 0.481168
0.561093 0.472128 0.476419
0.551824 0.473016 0.480067
0.54978 0.478587 0.472018
0.541647 0.478597 0.4662
0.543351 0.475289 0.475482
0.542377 0.484412 0.471505
0.536848 0.476163 0.47033
0.528534 0.479446 0.465849
0.519849 0.480981 0.461134
0.516275 0.472019 0.458508
0.513243 0.465868 0.465787
0.505887 0.459433 0.467904
0.50858 0.469007 0.468945
0.501564 0.463328 0.464641
0.500217 0.456086 0.471404
0.498421 0.460142 0.480366
0.502002 0.452675 0.485972
0.508801 0.459648 0.4837
0.517234 0.463582 0.487363
0.519753 0.467496 0.496214
0.520484 0.472855 0.504625
0.526159 0.471565 0.496493
0.523059 0.473282 0.487142
0.520236 0.463943 0.484947
0.521954 0.461425 0.494471
0.51321 0.461291 0.49932
0.510811 0.455032 0.4919
0.516281 0.460766 0.497999
0.519747 0.463742 0.506894
0.512493 0.457973 0.503139
0.518277 0.462595 0.496417
0.51509 0.468227 0.504041
0.513556 0.470724 0.49448
0.52343 0.471818 0.495626
0.524827 0.48172 0.495506
0.525457 0.486015 0.486497
0.520705 0.47796 0.482956
0.528994 0.481888 0.478971
0.536252 0.481805 0.472093
0.52663 0.483968 0.470436
0.527131 0.492992 0.474716
0.528317 0.486718 0.482412
0.520722 0.484308 0.488454
0.518224 0.478589 0.48064
0.516295 0.469109 0.483173
0.512892 0.478326 0.481311
0.509134 0.472514 0.474093
0.510157 0.480113 0.467673
0.51729 0.478821 0.460785
0.515702 0.488554 0.462439
0.515263 0.495421 0.469696
0.525185 0.494354 0.470336
0.533159 0.499399 0.473646
0.538456 0.491072 0.472034
0.531461 0.497005 0.468051
0.524244 0.500118 0.474234
0.516791 0.493459 0.473896
0.524573 0.48894 0.469534
0.523692 0.48402 0.460873
0.528387 0.475477 0.463102
0.529333 0.484093 0.458116
0.521776 0.486142 0.451894
0.525238 0.477595 0.455764
0.520145 0.471013 0.450218
0.519003 0.461097 0.449619
0.518482 0.466639 0.457926
0.527572 0.466581 0.453759
0.53444 0.459687 0.451456
0.536041 0.458213 0.461216
0.534629 0.44994 0.466653
0.527939 0.442792 0.464613
0.518531 0.441799 0.467853
0.519059 0.450634 0.4632
0.516523 0.45379 0.454056
0.511261 0.447343 0.448512
0.503346 0.45092 0.443555
0.513262 0.452036 0.444221
0.520326 0.445681 0.447336
0.517002 0.441244 0.439014
0.524807 0.44728 0.440643
0.518549 0.440034 0.437755
0.524975 0.43715 0.430656
0.522581 0.441994 0.422241
0.517544 0.450003 0.419002
0.515025 0.458525 0.414416
0.524455 0.45584 0.412447
0.516956 0.462453 0.412646
0.509054 0.456385 0.413499
0.504386 0.447727 0.415301
0.501611 0.442132 0.423111
0.496053 0.435836 0.42854
0.504607 0.438808 0.432782
0.497382 0.435371 0.426783
0.503802 0.432444 0.419697
0.506822 0.424399 0.414582
0.507751 0.42333 0.424482
0.510919 0.413849 0.424224
0.507871 0.404947 0.420838
0.508177 0.39517 0.422914
0.517592 0.397916 0.424868
0.523843 0.390835 0.42815
0.518649 0.383095 0.424528
0.52141 0.374944 0.419435
0.520263 0.365203 0.417485
0.528791 0.370064 0.419397
0.523906 0.372725 0.427707
0.519636 0.365314 0.422526
0.528526 0.369489 0.424408
0.532621 0.368632 0.43349
0.527007 0.366273 0.425559
0.531431 0.360138 0.4321
0.524457 0.355875 0.426339
0.523495 0.359044 0.416903
0.517252 0.351357 0.415512
0.524948 0.354026 0.421313
0.533459 0.35104 0.425631
0.539996 0.358486 0.424286
0.538362 0.352934 0.416131
0.547857 0.355674 0.414607
0.556482 0.350873 0.416208
0.555406 0.346022 0.40753
0.546811 0.347543 0.412409
0.549527 0.352045 0.403903
0.547104 0.360738 0.408212
0.552488 0.356784 0.40077
0.542816 0.354264 0.401101
0.5335 0.354324 0.404735
0.532111 0.355871 0.414516
0.532606 0.363863 0.408527
0.526544 0.357838 0.403334
0.535328 0.35307 0.403668
0.529658 0.345464 0.40683
0.538152 0.341982 0.410796
0.534479 0.338842 0.402041
0.534313 0.329286 0.3991
0.543333 0.332815 0.401585
0.534115 0.329241 0.400084
0.531889 0.326644 0.409481
0.539211 0.323273 0.415399
0.534653 0.31672 0.421423
0.535838 0.314887 0.411664
0.537198 0.308981 0.419618
0.539209 0.300534 0.424579
0.529842 0.297092 0.423934
0.52694 0.29499 0.43327
0.528188 0.288187 0.426048
0.521034 0.282481 0.422016
0.522428 0.272625 0.421055
0.528874 0.274463 0.413634
0.537424 0.270116 0.416463
0.530153 0.270749 0.409628
0.532852 0.261477 0.412226
0.538451 0.269759 0.412476
0.536368 0.268575 0.422185
0.535953 0.27813 0.425106
0.544847 0.274807 0.421969
0.547126 0.278823 0.430838
0.540398 0.285031 0.426815
0.533475 0.284798 0.434028
0.526788 0.279097 0.429256
0.520195 0.273065 0.424767
0.528177 0.272366 0.418784
0.528342 0.273448 0.408844
0.519097 0.275661 0.405742
0.514983 0.284758 0.406312
0.521553 0.284981 0.398776
0.524531 0.275451 0.399328
0.525161 0.285429 0.399528
0.523791 0.288833 0.40883
0.530674 0.283231 0.413439
0.52792 0.273627 0.413845
0.528957 0.281801 0.408179
0.520586 0.284657 0.403513
0.523939 0.283503 0.412863
0.528757 0.274752 0.412415
0.5222 0.281705 0.415357
0.522308 0.291366 0.41278
0.518397 0.282216 0.413764
0.511461 0.289092 0.411618
0.518632 0.284361 0.4065
0.513018 0.287089 0.398686
0.505784 0.291113 0.393075
0.507135 0.284007 0.399981
0.504848 0.291613 0.393905
0.513977 0.295183 0.391928
0.513315 0.305159 0.391726
0.513219 0.301255 0.400933
0.522576 0.303229 0.403859
0.512886 0.305452 0.404941
0.504709 0.301044 0.401239
0.505712 0.295485 0.392988
0.513882 0.289733 0.392575
0.516865 0.282671 0.398996
0.512622 0.290914 0.395247
0.512383 0.281272 0.397888
0.510397 0.28623 0.389434
0.507155 0.295141 0.39261
0.510568 0.286973 0.397262
0.510669 0.288082 0.387324
0.519688 0.289936 0.383424
0.52251 0.292216 0.392743
0.530787 0.286605 0.392679
0.537013 0.286845 0.400501
0.530194 0.287866 0.407743
0.532293 0.278397 0.40531
0.531573 0.268639 0.407373
0.533636 0.276036 0.400968
0.527466 0.276553 0.393116
0.517939 0.279141 0.391519
0.519152 0.269557 0.388935
0.526999 0.264601 0.392658
0.523684 0.255566 0.389943
0.528417 0.261238 0.383204
0.529557 0.255759 0.374917
0.521363 0.25327 0.369753
0.513758 0.259506 0.367943
0.508493 0.259219 0.359446
0.518297 0.257867 0.35801
0.527164 0.260052 0.353935
0.534124 0.266989 0.352084
0.529762 0.274476 0.347093
0.527601 0.26548 0.350889
0.524513 0.273645 0.355768
0.530097 0.277477 0.34841
0.528562 0.267639 0.34748
0.520955 0.262059 0.344165
0.527405 0.26823 0.339659
0.520402 0.270547 0.346411
0.523758 0.262174 0.342095
0.526109 0.271182 0.338447
0.520002 0.266579 0.344889
0.526666 0.272706 0.349137
0.52169 0.269494 0.34108
0.513043 0.272065 0.345394
0.52178 0.276666 0.346978
0.515064 0.275147 0.339726
0.516977 0.267863 0.333146
0.526294 0.266589 0.329743
0.525537 0.263135 0.320389
0.534665 0.260979 0.31692
0.526113 0.260664 0.322093
0.517925 0.265419 0.325311
0.511723 0.269635 0.331925
0.517804 0.277546 0.331262
0.525375 0.284029 0.332066
0.52712 0.290679 0.324804
0.519604 0.291132 0.331384
0.510643 0.291288 0.326948
0.51643 0.293666 0.334749
0.513024 0.302639 0.33194
0.505494 0.297894 0.32738
0.509121 0.299651 0.318228
0.500867 0.303125 0.313778
0.497423 0.312343 0.312001
0.502141 0.320398 0.308414
0.496578 0.316721 0.315867
0.491922 0.314916 0.307203
0.489478 0.305268 0.306233
0.493263 0.296606 0.302971
0.494514 0.297525 0.293092
0.504185 0.295013 0.292677
0.508181 0.289995 0.285006
0.504141 0.293152 0.293591
0.507051 0.290164 0.284503
0.503942 0.296339 0.277278
0.501598 0.304094 0.271415
0.504481 0.305228 0.280923
0.502632 0.295471 0.279749
0.511216 0.291025 0.282307
0.519412 0.290576 0.288019
0.523695 0.289449 0.279054
0.520477 0.298898 0.279647
0.511241 0.298527 0.275831
0.508263 0.289859 0.271832
0.511648 0.287236 0.280869
0.52022 0.285101 0.285556
0.524362 0.284636 0.276466
0.520544 0.275683 0.27876
0.520587 0.268865 0.271445
0.520431 0.276969 0.2773
0.523966 0.284378 0.283012
0.526895 0.293567 0.280368
0.534184 0.295839 0.286826
0.540024 0.302414 0.291585
0.536864 0.295305 0.285302
0.540057 0.304769 0.285788
0.549935 0.306292 0.286098
0.558304 0.304644 0.291317
0.562337 0.30723 0.300095
0.567409 0.310373 0.30812
0.576511 0.306694 0.310025
0.571053 0.306089 0.318383
0.570539 0.312021 0.326417
0.577487 0.30803 0.320433
0.568352 0.308044 0.316364
0.565494 0.299854 0.311389
0.563484 0.291611 0.316683
0.555588 0.292784 0.322706
0.561864 0.300146 0.325235
0.553986 0.294079 0.326295
0.562524 0.295701 0.331242
0.561289 0.303028 0.32455
0.561956 0.297459 0.332829
0.565549 0.304672 0.338751
0.573937 0.302203 0.343603
0.577956 0.298306 0.335316
0.583965 0.291346 0.331386
0.580938 0.297074 0.323769
0.576099 0.291709 0.330683
0.585792 0.292114 0.328257
0.58723 0.294735 0.337799
0.58897 0.285381 0.334724
0.588989 0.286705 0.344636
0.579017 0.285989 0.344868
0.579587 0.295234 0.341099
0.588609 0.291342 0.342957
0.584911 0.284279 0.348993
0.577183 0.290059 0.346373
0.580651 0.299438 0.346242
0.582039 0.309223 0.344719
0.589294 0.305269 0.350352
0.594511 0.297189 0.353089
0.602597 0.294718 0.347748
0.596814 0.288137 0.342926
0.60082 0.281668 0.336438
0.592898 0.279068 0.330917
0.588931 0.287414 0.327095
0.587008 0.284034 0.336308
0.584443 0.29304 0.332797
0.589028 0.28842 0.340389
0.582623 0.284044 0.3467
0.573153 0.284154 0.343492
0.577546 0.280917 0.351872
0.577795 0.28285 0.36168
0.578701 0.274939 0.355631
0.582942 0.271921 0.364169
0.577639 0.264401 0.360254
0.579091 0.264349 0.370148
0.575627 0.271129 0.376631
0.565784 0.272027 0.375112
0.567973 0.26249 0.373048
0.571093 0.253202 0.375049
0.569299 0.257398 0.383947
0.563736 0.249569 0.386733
0.564976 0.257734 0.392371
0.568306 0.251537 0.385264
0.564516 0.249544 0.394301
0.555344 0.251389 0.390768
0.552583 0.252555 0.381228
0.553236 0.262227 0.378774
0.559352 0.261017 0.386594
0.565961 0.267469 0.390427
0.55832 0.273884 0.391109
0.553051 0.28141 0.38716
0.554795 0.276618 0.395762
0.557229 0.272909 0.3868
0.554097 0.280932 0.391882
0.54677 0.282029 0.398598
0.543863 0.288928 0.391969
0.535373 0.293678 0.389654
0.532545 0.286946 0.396487
0.530629 0.293807 0.403506
0.533109 0.301824 0.408944
0.530009 0.294082 0.414462
0.536975 0.289673 0.420122
0.530946 0.297032 0.423203
0.529332 0.287169 0.423556
0.523743 0.285793 0.431734
0.514723 0.284665 0.427566
0.511371 0.292398 0.432949
0.510531 0.302361 0.432757
0.517589 0.308929 0.43541
0.516623 0.318417 0.438418
0.519974 0.31864 0.428999
0.510825 0.315731 0.426202
0.506213 0.313575 0.417594
0.497485 0.308873 0.418901
0.502108 0.306141 0.427336
0.493064 0.309889 0.429377
0.502797 0.312176 0.429173
0.499716 0.316655 0.437567
0.490967 0.319354 0.433546
0.48922 0.322852 0.44275
0.480376 0.327068 0.440749
0.474117 0.330812 0.447591
0.466011 0.325007 0.448365
0.458719 0.319325 0.452178
0.466509 0.313838 0.449142
0.464996 0.319732 0.457078
0.474968 0.319663 0.456332
0.47501 0.309812 0.454615
0.468449 0.316547 0.451211
0.46614 0.315458 0.46088
0.463 0.321555 0.468157
0.471478 0.326607 0.466546
0.463269 0.321131 0.464931
0.457978 0.315146 0.470947
0.464751 0.322063 0.468437
0.46508 0.325523 0.459061
0.455275 0.327489 0.459055
0.450172 0.335802 0.45685
0.455295 0.328403 0.46121
0.451503 0.330543 0.452209
0.45192 0.33291 0.442502
0.457979 0.330926 0.434797
0.461594 0.332466 0.425602
0.457422 0.335125 0.416911
0.449905 0.328878 0.419026
0.441465 0.334026 0.417521
0.443283 0.343511 0.414927
0.433977 0.343527 0.411266
0.433633 0.340163 0.401855
0.436357 0.330581 0.400982
0.435328 0.340391 0.399338
0.426888 0.337934 0.404106
0.431508 0.329979 0.400185
0.437508 0.337755 0.402063
0.430698 0.341384 0.395703
0.431085 0.332236 0.391684
0.427595 0.341499 0.390269
0.423153 0.334809 0.396228
0.427799 0.326868 0.400146
0.419952 0.327578 0.393988
0.426539 0.322827 0.399822
0.426582 0.32373 0.409781
0.423704 0.328936 0.417819
0.415069 0.328148 0.412837
0.410314 0.319655 0.410547
0.412753 0.314687 0.418877
0.421431 0.316433 0.414224
0.421466 0.306704 0.411913
0.413617 0.306503 0.418106
0.421511 0.312445 0.416566
0.412841 0.308456 0.41358
0.422157 0.311533 0.415516
0.419409 0.320938 0.413515
0.421365 0.320284 0.4233
0.42397 0.326448 0.415869
0.432585 0.323105 0.419692
0.424215 0.319991 0.424192
0.424676 0.324873 0.432907
0.426492 0.331461 0.425606
0.41941 0.332349 0.418601
0.417719 0.342014 0.420532
0.412368 0.345204 0.428355
0.404217 0.34325 0.422901
0.407501 0.337209 0.41564
0.405761 0.333212 0.42464
0.405406 0.342272 0.428857
0.403838 0.350376 0.434502
0.409584 0.355519 0.428136
0.408256 0.36538 0.429131
0.398367 0.363896 0.429206
0.397123 0.355614 0.423741
0.396776 0.361813 0.415902
0.404152 0.365262 0.421707
0.407832 0.360874 0.413509
0.401126 0.354469 0.417251
0.406987 0.360572 0.422579
0.403733 0.35212 0.418341
0.400666 0.350364 0.408986
0.390709 0.350347 0.409908
0.383033 0.344155 0.411561
0.376829 0.336314 0.411349
0.373246 0.33147 0.419329
0.375775 0.327111 0.427967
0.368201 0.333259 0.425765
0.374062 0.325209 0.424835
0.372971 0.324758 0.434766
0.372638 0.321704 0.425249
0.366907 0.315406 0.430492
0.37648 0.312543 0.430086
0.386206 0.313957 0.431931
0.383684 0.32356 0.430733
0.385095 0.322559 0.420884
0.384898 0.331732 0.42486
0.391108 0.324071 0.423205
0.387343 0.317384 0.429617
0.386364 0.309706 0.435949
0.380126 0.302824 0.432245
0.381149 0.297889 0.440883
0.387799 0.300328 0.447942
0.397091 0.302541 0.444981
0.390647 0.301678 0.437382
0.384412 0.309496 0.43747
0.382109 0.311882 0.446904
0.382031 0.319623 0.440573
0.388304 0.314635 0.446554
0.379858 0.31751 0.442038
0.378991 0.317792 0.451996
0.387286 0.312619 0.4541
0.394483 0.319412 0.452668
0.392163 0.329113 0.453377
0.385805 0.323237 0.458382
0.38495 0.332175 0.453979
0.37829 0.327654 0.459912
0.378216 0.318434 0.463784
0.376577 0.327307 0.459474
0.385784 0.323486 0.458692
0.38661 0.316538 0.465836
0.387706 0.315454 0.475717
0.39641 0.316321 0.480562
0.394749 0.315942 0.470709
0.404729 0.316388 0.47027
0.400533 0.314453 0.479139
0.409724 0.313794 0.475253
0.411638 0.314742 0.465484
0.404955 0.307307 0.46572
0.410033 0.307028 0.47433
0.406925 0.299147 0.469016
0.41466 0.297831 0.462817
0.411101 0.290028 0.457674
0.404762 0.286941 0.450583
0.39687 0.284853 0.444807
0.388844 0.279075 0.446285
0.383334 0.283441 0.453396
0.391009 0.279493 0.458446
0.391907 0.275162 0.467415
0.394038 0.267779 0.473814
0.395085 0.277431 0.471417
0.403636 0.274902 0.466893
0.402908 0.28379 0.471418
0.400655 0.292474 0.467002
0.392739 0.29314 0.460928
0.401174 0.297213 0.464429
0.397971 0.306682 0.464696
0.392775 0.299654 0.459837
0.391381 0.2916 0.465598
0.39504 0.300488 0.468358
0.386494 0.301174 0.473505
0.386045 0.292184 0.46915
0.389332 0.292985 0.45974
0.397548 0.288362 0.456404
0.398157 0.291352 0.465928
0.398234 0.299383 0.459971
0.399331 0.309201 0.458418
0.395951 0.303864 0.450666
0.392971 0.308943 0.458748
0.385925 0.308852 0.465843
0.378789 0.315724 0.464482
0.388274 0.312567 0.464221
0.379653 0.317088 0.46651
0.379011 0.325584 0.471746
0.378506 0.335559 0.471246
0.387288 0.330831 0.470511
0.382658 0.32512 0.47729
0.388989 0.331036 0.472297
0.394014 0.324535 0.466597
0.389419 0.322418 0.475223
0.38936 0.315083 0.468427
0.390931 0.305225 0.46901
0.387118 0.314393 0.467827
0.379581 0.319091 0.472423
0.374733 0.310425 0.473604
0.365021 0.312688 0.474353
0.355163 0.314116 0.47524
0.363525 0.31357 0.469782
0.362303 0.306707 0.462613
0.356714 0.307156 0.454332
0.361961 0.304909 0.446121
0.359677 0.295194 0.44675
0.363913 0.288264 0.452583
0.369014 0.285848 0.444328
0.3729 0.291758 0.437259
0.363069 0.289977 0.437698
0.363301 0.281093 0.442282
0.364358 0.271403 0.444516
0.357088 0.278248 0.443969
0.355175 0.275853 0.43445
0.357272 0.27929 0.425296
0.364239 0.281273 0.43219
0.36398 0.290254 0.436579
0.355504 0.294889 0.439162
0.345891 0.292227 0.439877
0.344152 0.289126 0.430531
0.345471 0.288929 0.42062
0.345802 0.296516 0.427126
0.33934 0.294349 0.419809
0.335748 0.291268 0.428618
0.339574 0.287569 0.420152
0.348428 0.286966 0.415543
0.349526 0.289605 0.40596
0.34314 0.289953 0.413648
0.337897 0.281668 0.411684
0.347466 0.280486 0.414336
0.340221 0.278481 0.420932
0.342002 0.283886 0.412709
0.346568 0.275191 0.410825
0.337518 0.271739 0.408336
0.341311 0.275268 0.399783
0.347001 0.274492 0.407969
0.354152 0.281469 0.408411
0.358678 0.283283 0.39968
0.352749 0.290124 0.395432
0.343377 0.29357 0.395964
0.339132 0.295743 0.404753
0.329259 0.295409 0.403197
0.330733 0.291507 0.394108
0.331896 0.298986 0.387573
0.327569 0.303687 0.395265
0.320313 0.29949 0.389812
0.318296 0.295369 0.380927
0.309369 0.297966 0.377243
0.309329 0.297445 0.367257
0.305545 0.291718 0.359984
0.297052 0.288059 0.363789
0.28825 0.283415 0.362811
0.289855 0.290553 0.369628
0.293273 0.293588 0.360734
0.288104 0.288236 0.367415
0.280646 0.281629 0.366555
0.277151 0.290448 0.369719
0.283672 0.295856 0.375032
0.284362 0.287481 0.369611
0.281264 0.28677 0.36013
0.275335 0.294079 0.363509
0.271227 0.299032 0.355854
0.275654 0.296741 0.364523
0.27159 0.299977 0.373067
0.265031 0.306903 0.37607
0.261676 0.311651 0.367934
0.260315 0.308212 0.358644
0.254883 0.308682 0.367026
0.248591 0.304608 0.373645
0.258541 0.305592 0.373829
0.267385 0.305527 0.378495
0.271326 0.310365 0.370681
0.263106 0.315157 0.367603
0.269247 0.312511 0.375039
0.278319 0.309553 0.372048
0.287518 0.306043 0.373795
0.287014 0.296096 0.372904
0.280804 0.303752 0.374581
0.286319 0.31208 0.374095
0.277997 0.307548 0.370899
0.276737 0.314937 0.36428
0.275964 0.320433 0.372598
0.275148 0.32989 0.375744
0.283701 0.329322 0.380895
0.273783 0.328251 0.380196
0.27583 0.32575 0.389659
0.268149 0.332148 0.389928
0.260777 0.326805 0.385791
0.256793 0.317912 0.38355
0.247933 0.319957 0.387711
0.248548 0.324513 0.37883
0.255458 0.324473 0.371602
0.259005 0.33176 0.365744
0.261729 0.333455 0.356273
0.25753 0.331378 0.365108
0.25464 0.333932 0.355882
0.245828 0.331157 0.359709
0.251292 0.323804 0.355698
0.25249 0.332883 0.351681
0.251266 0.336123 0.361062
0.255003 0.329779 0.367828
0.261214 0.32617 0.374785
0.27109 0.327567 0.374072
0.273058 0.333156 0.366017
0.265985 0.333828 0.35898
0.261055 0.342158 0.36149
0.267796 0.340249 0.368625
0.264206 0.345058 0.376625
0.272339 0.341789 0.381437
0.26888 0.344922 0.390281
0.27133 0.34714 0.380843
0.265905 0.344341 0.388763
0.259035 0.348587 0.382866
0.262972 0.347809 0.392026
0.257942 0.340216 0.396155
0.267248 0.33685 0.397592
0.261185 0.343657 0.401706
0.265742 0.335272 0.404694
0.270217 0.3347 0.413618
0.266576 0.338159 0.404971
0.260312 0.345709 0.406909
0.252595 0.343647 0.400892
0.256994 0.34293 0.391941
0.249576 0.34386 0.385299
0.248189 0.344448 0.395185
0.23969 0.340946 0.391247
0.244345 0.341031 0.382396
0.240667 0.349528 0.378618
0.249877 0.350915 0.374977
0.248198 0.345067 0.382914
0.251216 0.354463 0.384528
0.252349 0.349475 0.375936
0.246933 0.357635 0.373917
0.246321 0.358229 0.363954
0.239702 0.353573 0.358078
0.233479 0.349898 0.364989
0.223534 0.3489 0.36466
0.226466 0.33934 0.364687
0.228117 0.348274 0.368864
0.225412 0.357894 0.368485
0.235052 0.359388 0.370684
0.232072 0.368713 0.372727
0.228341 0.375067 0.365966
0.2271 0.384819 0.364134
0.225546 0.38633 0.373896
0.216913 0.383035 0.377719
0.208655 0.387813 0.380716
0.202585 0.395162 0.383738
0.201347 0.388216 0.390824
0.205071 0.381623 0.397356
0.198745 0.373905 0.396711
0.20502 0.380495 0.400858
0.197377 0.381827 0.394548
0.193963 0.374544 0.40049
0.185712 0.373997 0.406114
0.186474 0.377855 0.415308
0.190249 0.371218 0.421767
0.183542 0.366081 0.416416
0.18696 0.372769 0.409814
0.190504 0.382082 0.410658
0.191538 0.374116 0.416614
0.184606 0.377961 0.410518
0.184357 0.378347 0.400529
0.188585 0.383244 0.392904
0.185462 0.377124 0.385638
0.182576 0.369851 0.379411
0.175048 0.373982 0.384537
0.173032 0.383776 0.384595
0.174902 0.37725 0.391938
0.178634 0.370773 0.385295
0.172547 0.375116 0.378655
0.16876 0.370057 0.386405
0.167363 0.377481 0.379853
0.175722 0.376415 0.385237
0.171072 0.379924 0.377109
0.171123 0.384173 0.386161
0.167056 0.380516 0.394533
0.176021 0.381582 0.398834
0.166129 0.380237 0.398254
0.158613 0.382802 0.392176
0.166359 0.388993 0.39347
0.159587 0.381941 0.39557
0.16315 0.379517 0.404594
0.156803 0.373769 0.409759
0.164267 0.374999 0.4163
0.154632 0.377178 0.414745
0.1493 0.382536 0.408198
0.140868 0.382735 0.402826
0.131859 0.385419 0.399414
0.127101 0.392997 0.403878
0.120187 0.399992 0.402071
0.12237 0.407031 0.395312
0.115379 0.400194 0.393219
0.112144 0.407649 0.399047
0.110634 0.417375 0.397276
0.111116 0.418955 0.407139
0.118544 0.425137 0.409711
0.127074 0.425961 0.414865
0.131741 0.420729 0.421996
0.12707 0.413218 0.41733
0.123986 0.420769 0.411546
0.131654 0.415449 0.415137
0.134457 0.406692 0.411204
0.125566 0.408899 0.415215
0.12624 0.417757 0.410624
0.135242 0.421304 0.413148
0.133562 0.417935 0.403884
0.128671 0.410072 0.407658
0.131026 0.419662 0.406084
0.127842 0.428395 0.402395
0.122786 0.432586 0.394854
0.131497 0.437334 0.393595
0.122553 0.441758 0.394246
0.12576 0.443799 0.403495
0.134681 0.443067 0.407953
0.130541 0.443645 0.417037
0.128945 0.444107 0.407176
0.123872 0.451507 0.411592
0.118514 0.452032 0.403164
0.108989 0.455074 0.403257
0.118132 0.453653 0.407049
0.112185 0.457689 0.414002
0.109586 0.457335 0.423652
0.108681 0.448082 0.41997
0.113405 0.439412 0.418386
0.105376 0.443005 0.423143
0.0957386 0.443038 0.42581
0.0945606 0.438615 0.434701
0.0861391 0.433587 0.436649
0.0946781 0.437457 0.43317
0.102131 0.438926 0.439674
0.105686 0.442403 0.430998
0.114902 0.438618 0.430137
0.116201 0.448513 0.430781
0.106389 0.446607 0.430472
0.106056 0.44615 0.420488
0.113775 0.443398 0.426218
0.108923 0.449566 0.432417
0.112003 0.458749 0.434902
0.11498 0.454421 0.426393
0.121625 0.461859 0.427122
0.126591 0.468524 0.432682
0.135938 0.466922 0.435854
0.141786 0.458824 0.436321
0.142462 0.461002 0.446057
0.146668 0.469613 0.443201
0.150372 0.471351 0.434076
0.152081 0.465038 0.441641
0.161757 0.463679 0.443768
0.155053 0.456349 0.444923
0.154276 0.466292 0.445659
0.150903 0.462236 0.437163
0.158812 0.463712 0.431224
0.168607 0.465054 0.432726
0.177381 0.460357 0.431744
0.184639 0.455952 0.426461
0.179984 0.449906 0.419996
0.173882 0.450597 0.412104
0.177709 0.443507 0.406181
0.177522 0.452936 0.409507
0.167883 0.450275 0.409521
0.166412 0.442554 0.403338
0.166922 0.447531 0.39468
0.166915 0.453756 0.402506
0.162468 0.444806 0.402162
0.156385 0.4445 0.394231
0.155957 0.435149 0.390712
0.14642 0.437963 0.389648
0.139133 0.432267 0.385844
0.136301 0.439969 0.39156
0.143254 0.447071 0.392664
0.140719 0.45333 0.385288
0.14273 0.444936 0.390338
0.135601 0.450484 0.394628
0.133019 0.459744 0.397383
0.141041 0.453894 0.396191
0.140453 0.447515 0.388512
0.143702 0.438383 0.386054
0.143128 0.444451 0.378126
0.145016 0.450157 0.386119
0.147034 0.440554 0.388043
0.154628 0.445235 0.392561
0.147984 0.440105 0.397995
0.15778 0.440502 0.396025
0.16017 0.43775 0.405337
0.156609 0.442081 0.413618
0.153942 0.434842 0.407255
0.147945 0.436409 0.399408
0.147195 0.43343 0.408924
0.143201 0.427594 0.401854
0.138967 0.418672 0.400283
0.132642 0.410956 0.39961
0.126207 0.407447 0.406413
0.122814 0.403078 0.414744
0.12398 0.412023 0.410428
0.132286 0.412792 0.404912
0.130596 0.422051 0.408292
0.128533 0.413622 0.413262
0.122172 0.412096 0.405698
0.12221 0.407315 0.396915
0.131906 0.405697 0.395081
0.136313 0.406436 0.404027
0.138899 0.401673 0.395624
0.148687 0.402012 0.397641
0.156665 0.403955 0.40335
0.15811 0.410105 0.411101
0.158075 0.419504 0.407686
0.154445 0.418336 0.398442
0.157784 0.418784 0.407857
0.161789 0.41444 0.415925
0.161176 0.404528 0.417095
0.168439 0.406259 0.423746
0.163167 0.399269 0.418915
0.165845 0.404815 0.426793
0.163161 0.398602 0.419432
0.170556 0.394725 0.413929
0.160658 0.394093 0.41521
0.152781 0.399982 0.413403
0.151173 0.395505 0.422199
0.154164 0.389833 0.429873
0.144511 0.387703 0.431386
0.152481 0.389874 0.437023
0.152749 0.392596 0.427404
0.143063 0.390358 0.428482
0.152928 0.389374 0.427172
0.146627 0.391865 0.434527
0.138665 0.389105 0.429142
0.14542 0.39102 0.436263
0.149661 0.396612 0.443387
0.149711 0.389091 0.449977
0.157513 0.382838 0.449787
0.156174 0.392445 0.447355
0.148229 0.386456 0.448356
0.149406 0.382729 0.45756
0.148568 0.38782 0.466127
0.148435 0.3888 0.456176
0.146899 0.398225 0.459144
0.142866 0.406742 0.455798
0.148221 0.403871 0.447855
0.147979 0.413078 0.451749
0.146516 0.422741 0.449629
0.142142 0.414063 0.44727
0.143546 0.419047 0.455825
0.146839 0.415778 0.464683
0.156229 0.418716 0.466469
0.154206 0.427727 0.462633
0.151433 0.436442 0.466678
0.155737 0.433528 0.458135
0.158604 0.427606 0.450605
0.150706 0.423606 0.445953
0.152865 0.431845 0.440714
0.156961 0.426917 0.44839
0.156671 0.436373 0.445152
0.147917 0.440212 0.448091
0.141556 0.443418 0.45511
0.145375 0.437674 0.46235
0.135812 0.435899 0.464671
0.132828 0.426374 0.464067
0.125199 0.430423 0.469108
0.123763 0.440082 0.466952
0.116125 0.436543 0.461553
0.109817 0.438034 0.453938
0.100084 0.435748 0.454127
0.0925049 0.442036 0.455865
0.102063 0.444715 0.454656
0.106153 0.436751 0.4502
0.0986708 0.439573 0.456205
0.0908572 0.433658 0.454214
0.0823835 0.433715 0.448905
0.0745212 0.432399 0.442867
0.0834245 0.42924 0.439588
0.0864388 0.431455 0.448862
0.0946512 0.426628 0.445819
0.104431 0.425053 0.444449
0.0975083 0.429131 0.450403
0.100657 0.438094 0.453527
0.0966742 0.436161 0.44456
0.0921619 0.428495 0.449129
0.0843013 0.424505 0.444407
0.0852489 0.416429 0.438586
0.0932508 0.415174 0.444451
0.0890513 0.418824 0.45276
0.0980932 0.415077 0.450709
0.102438 0.406201 0.44918
0.100178 0.415768 0.451016
0.107498 0.410354 0.455152
0.100314 0.417231 0.456202
0.0977677 0.426867 0.457015
0.0954891 0.434177 0.463447
0.102061 0.427989 0.467749
0.0991012 0.420005 0.462505
0.102419 0.428969 0.465444
0.111992 0.428006 0.46817
0.110609 0.425627 0.458556
0.118953 0.43 0.455199
0.127397 0.431688 0.450115
0.132429 0.440188 0.451672
0.129798 0.4321 0.456932
0.139049 0.428489 0.455759
0.134782 0.419473 0.456468
0.126393 0.422289 0.461126
0.133303 0.425833 0.467427
0.142984 0.425893 0.469931
0.144013 0.434359 0.464709
0.140151 0.442062 0.459636
0.148769 0.441799 0.454571
0.142995 0.441847 0.446406
0.144556 0.4324 0.443524
0.142803 0.425596 0.450639
0.137167 0.422022 0.443192
0.147105 0.42137 0.444095
0.147576 0.430172 0.439373
0.145581 0.43058 0.449163
0.140835 0.438667 0.452637
0.131148 0.440847 0.453832
0.136045 0.433826 0.44866
0.128759 0.428436 0.452887
0.13385 0.422169 0.458787
0.137894 0.426737 0.46671
0.141419 0.435474 0.470063
0.150784 0.435916 0.466586
0.144443 0.432128 0.473327
0.135966 0.437139 0.471586
0.138277 0.436381 0.461886
0.130398 0.442527 0.461506
0.124057 0.447495 0.455581
0.116021 0.453179 0.457347
0.124475 0.453526 0.462679
0.127906 0.451228 0.471786
0.129792 0.445221 0.479555
0.130882 0.445549 0.46962
0.138466 0.452066 0.469511
0.131774 0.447418 0.475309
0.127758 0.452594 0.467753
0.134429 0.446278 0.463802
0.140776 0.439623 0.467728
0.13199 0.439319 0.462962
0.125084 0.432091 0.463202
0.123327 0.43952 0.469661
0.123946 0.449213 0.467283
0.122212 0.453723 0.458528
0.130174 0.448356 0.461321
0.138607 0.443597 0.458827
0.132358 0.451271 0.457395
0.127834 0.4447 0.451366
0.133203 0.437295 0.455408
0.124167 0.441313 0.453918
0.116788 0.444503 0.447971
0.109146 0.44111 0.453456
0.0991705 0.441669 0.453032
0.108157 0.442694 0.448768
0.0997855 0.438572 0.452363
0.100147 0.448566 0.452287
0.0960251 0.441408 0.457925
0.0862698 0.441917 0.455786
0.0835684 0.432648 0.453181
0.0833887 0.435873 0.443717
0.0754959 0.435283 0.449829
0.0776212 0.437438 0.45936
0.0779444 0.430337 0.452326
0.0803728 0.428831 0.461909
0.0722309 0.433286 0.465633
0.078042 0.434135 0.473727
0.0774608 0.425736 0.479124
0.0830341 0.430953 0.485584
0.0870845 0.436637 0.478422
0.0798707 0.439248 0.472008
0.0727464 0.441668 0.478595
0.0704956 0.449363 0.484572
0.0713029 0.45933 0.484693
0.0722645 0.451847 0.491257
0.0791336 0.451277 0.498502
0.0856334 0.444479 0.495105
0.0943029 0.447145 0.499316
0.0907866 0.446477 0.489978
0.095727 0.453631 0.494919
0.105527 0.451845 0.495802
0.107543 0.459379 0.502061
0.10145 0.452451 0.498203
0.0924936 0.448665 0.495869
0.0912351 0.457373 0.500622
0.0882615 0.460473 0.509652
0.0848138 0.464998 0.501428
0.0855731 0.473887 0.505946
0.0826941 0.475418 0.496492
0.0820928 0.468121 0.503303
0.090402 0.467883 0.508862
0.0865216 0.474333 0.502279
0.0885788 0.474953 0.492513
0.0963889 0.475074 0.486269
0.0901953 0.467435 0.488083
0.0892637 0.476688 0.49176
0.0874041 0.472922 0.482684
0.0805561 0.480074 0.481286
0.0804042 0.475468 0.472411
0.0791481 0.466117 0.475723
0.0832981 0.469218 0.484276
0.0744394 0.473086 0.481714
0.0683686 0.472432 0.473794
0.0638695 0.476496 0.481746
0.06309 0.474485 0.491511
0.0538255 0.477638 0.493566
0.0486462 0.471264 0.49927
0.0495795 0.480932 0.501645
0.0401921 0.483209 0.504232
0.0308608 0.48655 0.505562
0.0246623 0.492854 0.500889
0.0207692 0.501165 0.50486
0.0304413 0.500524 0.502403
0.0276349 0.492472 0.497179
0.0215047 0.500359 0.496709
0.0306573 0.502913 0.493593
0.0337866 0.500354 0.484447
0.0360481 0.49288 0.478199
0.0314107 0.488444 0.47053
0.0349442 0.484713 0.461952
0.0431663 0.486605 0.456583
0.0338317 0.48943 0.454374
0.0423038 0.493899 0.451501
0.0462732 0.503077 0.451422
0.0489286 0.494607 0.456027
0.0528444 0.485887 0.45309
0.0438906 0.48339 0.449403
0.0344242 0.481733 0.446638
0.0435457 0.482781 0.450601
0.0490283 0.483441 0.442264
0.0512421 0.473914 0.440181
0.0470718 0.473247 0.449245
0.051769 0.479358 0.442875
0.0426653 0.481048 0.439098
0.0389287 0.48478 0.430606
0.0396585 0.488916 0.421531
0.0380916 0.490102 0.431336
0.0418182 0.49907 0.428954
0.0361529 0.50454 0.42279
0.038263 0.514068 0.424974
0.0470098 0.51257 0.429584
0.0465479 0.519079 0.422006
0.0478529 0.523571 0.430844
0.0454402 0.531438 0.425162
0.0485939 0.540909 0.425751
0.0428943 0.535665 0.419425
0.0383161 0.533034 0.427918
0.0410269 0.524685 0.423128
0.0498551 0.526289 0.427542
0.0490331 0.533971 0.421193
0.0392406 0.535939 0.421674
0.0364316 0.526574 0.419575
0.0420773 0.526124 0.411333
0.047075 0.522478 0.41919
0.052225 0.52871 0.425075
0.0519256 0.534619 0.417013
0.0534066 0.530033 0.408251
0.0487901 0.536802 0.402517
0.0476122 0.544228 0.409111
0.0513926 0.541509 0.417961
0.0450982 0.548388 0.414347
0.0470373 0.544353 0.423289
0.0435616 0.553408 0.425724
0.0455235 0.544275 0.422155
0.0421931 0.535301 0.425052
0.0421139 0.544319 0.42073
0.0391024 0.53877 0.412975
0.0393281 0.536318 0.403283
0.0352588 0.54545 0.403499
0.0360743 0.535825 0.406084
0.0263098 0.53789 0.406708
0.0336988 0.536677 0.413336
0.0398718 0.534324 0.420843
0.0376186 0.524585 0.421084
0.0377242 0.518873 0.429291
0.0326416 0.521565 0.437472
0.0331749 0.515821 0.44564
0.0401782 0.52004 0.451399
0.03249 0.526213 0.449726
0.0271324 0.534539 0.448325
0.0306235 0.543161 0.444653
0.0236757 0.545825 0.437973
0.0199578 0.539507 0.431171
0.0211513 0.536884 0.421595
0.0305687 0.533781 0.420299
0.0278436 0.52969 0.411591
0.0315874 0.538961 0.411395
0.0239781 0.544112 0.415341
0.0261876 0.535211 0.411354
0.0183066 0.533084 0.405578
0.00937048 0.53702 0.407735
0.0181272 0.532272 0.408617
0.0147854 0.524162 0.403815
0.0186465 0.532337 0.399542
0.0100909 0.53195 0.39438
0.00191891 0.527386 0.397899
5.32054e-11 0.530128 0.398168
LINES 1 1275
1274 0 1 2 3 4 5 6 7 8 9 10 11 12 13 14 15 16 17 18 19 20 21 22 23 24 25 26 27 28 29 30 31 32 33 34 35 36 37 38 39 40 41 42 43 44 45 46 47 48 49 50 51 52 53 54 55 56 57 58 59 60 61 62 63 64 65 66 67 68 69 70 71 72 73 74 75 76 77 78 79 80 81 82 83 84 85 86 87 88 89 90 91 92 93 94 95 96 97 98 99 100 101 102 103 104 105 106 107 108 109 110 111 112 113 114 115 116 117 118 119 120 121 122 123 124 125 126 127 128 129 130 131 132 133 134 135 136 137 138 139 140 141 142 143 144 145 146 147 148 149 150 151 152 153 154 155 156 157 158 159 160 161 162 163 164 165 166 167 168 169 170 171 172 173 174 175 176 177 178 179 180 181 182 183 184 185 186 187 188 189 190 191 192 193 194 195 196 197 198 199 200 201 202 203 204 205 206 207 208 209 210 211 212 213 214 215 216 217 218 219 220 221 222 223 224 225 226 227 228 229 230 231 232 233 234 235 236 237 238 239 240 241 242 243 244 245 246 247 248 249 250 251 252 253 254 255 256 257 258 259 260 261 262 263 264 265 266 267 268 269 270 271 272 273 274 275 276 277 278 279 280 281 282 283 284 285 286 287 288 289 290 291 292 293 294 295 296 297 298 299 300 301 302 303 304 305 306 307 308 309 310 311 312 313 314 315 316 317 318 319 320 321 322 323 324 325 326 327 328 329 330 331 332 333 334 335 336 337 338 339 340 341 342 343 344 345 346 347 348 349 350 351 352 353 354 355 356 357 358 359 360 361 362 363 364 365 366 367 368 369 370 371 372 373 374 375 376 377 378 379 380 381 382 383 384 385 386 387 388 389 390 391 392 393 394 395 396 397 398 399 400 401 402 403 404 405 406 407 408 409 410 411 412 413 414 415 416 417 418 419 420 421 422 423 424 425 426 427 428 429 430 431 432 433 434 435 436 437 438 439 440 441 442 443 444 445 446 447 448 449 450 451 452 453 454 455 456 457 458 459 460 461 462 463 464 465 466 467 468 469 470 471 472 473 474 475 476 477 478 479 480 481 482 483 484 485 486 487 488 489 490 491 492 493 494 495 496 497 498 499 500 501 502 503 504 505 506 507 508 509 510 511 512 513 514 515 516 517 518 519 520 521 522 523 524 525 526 527 528 529 530 531 532 533 534 535 536 537 538 539 540 541 542 543 544 545 546 547 548 549 550 551 552 553 554 555 556 557 558 559 560 561 562 563 564 565 566 567 568 569 570 571 572 573 574 575 576 577 578 579 580 581 582 583 584 585 586 587 588 589 590 591 592 593 594 595 596 597 598 599 600 601 602 603 604 605 606 607 608 609 610 611 612 613 614 615 616 617 618 619 620 621 622 623 624 625 626 627 628 629 630 631 632 633 634 635 636 637 638 639 640 641 642 643 644 645 646 647 648 649 650 651 652 653 654 655 656 657 658 659 660 661 662 663 664 665 666 667 668 669 670 671 672 673 674 675 676 677 678 679 680 681 682 683 684 685 686 687 688 689 690 691 692 693 694 695 696 697 698 699 700 701 702 703 704 705 706 707 708 709 710 711 712 713 714 715 716 717 718 719 720 721 722 723 724 725 726 727 728 729 730 731 732 733 734 735 736 737 738 739 740 741 742 743 744 745 746 747 748 749 750 751 752 753 754 755 756 757 758 759 760 761 762 763 764 765 766 767 768 769 770 771 772 773 774 775 776 777 778 779 780 781 782 783 784 785 786 787 788 789 790 791 792 793 794 795 796 797 798 799 800 801 802 803 804 805 806 807 808 809 810 811 812 813 814 815 816 817 818 819 820 821 822 823 824 825 826 827 828 829 830 831 832 833 834 835 836 837 838 839 840 841 842 843 844 845 846 847 848 849 850 851 852 853 854 855 856 857 858 859 860 861 862 863 864 865 866 867 868 869 870 871 872 873 874 875 876 877 878 879 880 881 882 883 884 885 886 887 888 889 890 891 892 893 894 895 896 897 898 899 900 901 902 903 904 905 906 907 908 909 910 911 912 913 914 915 916 917 918 919 920 921 922 923 924 925 926 927 928 929 930 931 932 933 934 935 936 937 938 939 940 941 942 943 944 945 946 947 948 949 950 951 952 953 954 955 956 957 958 959 960 961 962 963 964 965 966 967 968 969 970 971 972 973 974 975 976 977 978 979 980 981 982 983 984 985 986 987 988 989 990 991 992 993 994 995 996 997 998 999 1000 1001 1002 1003 1004 1005 1006 1007 1008 1009 1010 1011 1012 1013 1014 1015 1016 1017 1018 1019 1020 1021 1022 1023 1024 1025 1026 1027 1028 1029 1030 1031 1032 1033 1034 1035 1036 1037 1038 1039 1040 1041 1042 1043 1044 1045 1046 1047 1048 1049 1050 1051 1052 1053 1054 1055 1056 1057 1058 1059 1060 1061 1062 1063 1064 1065 1066 1067 1068 1069 1070 1071 1072 1073 1074 1075 1076 1077 1078 1079 1080 1081 1082 1083 1084 1085 1086 1087 1088 1089 1090 1091 1092 1093 1094 1095 1096 1097 1098 1099 1100 1101 1102 1103 1104 1105 1106 1107 1108 1109 1110 1111 1112 1113 1114 1115 1116 1117 1118 1119 1120 1121 1122 1123 1124 1125 1126 1127 1128 1129 1130 1131 1132 1133 1134 1135 1136 1137 1138 1139 1140 1141 1142 1143 1144 1145 1146 1147 1148 1149 1150 1151 1152 1153 1154 1155 1156 1157 1158 1159 1160 1161 1162 1163 1164 1165 1166 1167 1168 1169 1170 1171 1172 1173 1174 1175 1176 1177 1178 1179 1180 1181 1182 1183 1184 1185 1186 1187 1188 1189 1190 1191 1192 1193 1194 1195 1196 1197 1198 1199 1200 1201 1202 1203 1204 1205 1206 1207 1208 1209 1210 1211 1212 1213 1214 1215 1216 1217 1218 1219 1220 1221 1222 1223 1224 1225 1226 1227 1228 1229 1230 1231 1232 1233 1234 1235 1236 1237 1238 1239 1240 1241 1242 1243 1244 1245 1246 1247 1248 1249 1250 1251 1252 1253 1254 1255 1256 1257 1258 1259 1260 1261 1262 1263 1264 1265 1266 1267 1268 1269 1270 1271 1272 1273
CELL_DATA 1
SCALARS Path_Failure unsigned_char 1
LOOKUP_TABLE default
0
POINT_DATA 1274
SCALARS Segment_Type unsigned_char 1
LOOKUP_TABLE default
0
0
0
0
0
0
0
0
0
0
0
0
0
0
0
0
0
0
0
0
0
0
0
0
0
0
0
0
0
0
0
0
0
0
0
0
0
0
0
0
0
0
0
0
0
0
0
0
0
0
0
0
0
0
0
0
0
0
0
0
0
0
0
0
0
0
0
0
0
0
0
0
0
0
0
0
0
0
0
0
0
0
0
0
0
0
0
0
0
0
0
0
0
0
0
0
0
0
0
0
0
0
0
0
0
0
0
0
0
0
0
0
0
0
0
0
0
0
0
0
0
0
0
0
0
0
0
0
0
0
0
0
0
0
0
0
0
0
0
0
0
0
0
0
0
0
0
0
0
0
0
0
0
0
0
0
0
0
0
0
0
0
0
0
0
0
0
0
0
0
0
0
0
0
0
0
0
0
0
0
0
0
0
0
0
0
0
0
0
0
0
0
0
0
0
0
0
0
0
0
0
0
0
0
0
0
0
0
0
0
0
0
0
0
0
0
0
0
0
0
0
0
0
0
0
0
0
0
0
0
0
0
0
0
0
0
0
0
0
0
0
0
0
0
0
0
0
0
0
0
0
0
0
0
0
0
0
0
0
0
0
0
0
0
0
0
0
0
0
0
0
0
0
0
0
0
0
0
0
0
0
0
0
0
0
0
0
0
0
0
0
0
0
0
0
0
0
0
0
0
0
0
0
0
0
0
0
0
0
0
0
0
0
0
0
0
0
0
0
0
0
0
0
0
0
0
0
0
0
0
0
0
0
0
0
0
0
0
0
0
0
0
0
0
0
0
0
0
0
0
0
0
0
0
0
0
0
0
0
0
0
0
0
0
0
0
0
0
0
0
0
0
0
0
0
0
0
0
0
0
0
0
0
0
0
0
0
0
0
0
0
0
0
0
0
0
0
0
0
0
0
0
0
0
0
0
0
0
0
0
0
0
0
0
0
0
0
0
0
0
0
0
0
0
0
0
0
0
0
0
0
0
0
0
0
0
0
0
0
0
0
0
0
0
0
0
0
0
0
0
0
0
0
0
0
0
0
0
0
0
0
0
0
0
0
0
0
0
0
0
0
0
0
0
0
0
0
0
0
0
0
0
0
0
0
0
0
0
0
0
0
0
0
0
0
0
0
0
0
0
0
0
0
0
0
0
0
0
0
0
0
0
0
0
0
0
0
0
0
0
0
0
0
0
0
0
0
0
0
0
0
0
0
0
0
0
0
0
0
0
0
0
0
0
0
0
0
0
0
0
0
0
0
0
0
0
0
0
0
0
0
0
0
0
0
0
0
0
0
0
0
0
0
0
0
0
0
0
0
0
0
0
0
0
0
0
0
0
0
0
0
0
0
0
0
0
0
0
0
0
0
0
0
0
0
0
0
0
0
0
0
0
0
0
0
0
0
0
0
0
0
0
0
0
0
0
0
0
0
0
0
0
0
0
0
0
0
0
0
0
0
0
0
0
0
0
0
0
0
0
0
0
0
0
0
0
0
0
0
0
0
0
0
0
0
0
0
0
0
0
0
0
0
0
0
0
0
0
0
0
0
0
0
0
0
0
0
0
0
0
0
0
0
0
0
0
0
0
0
0
0
0
0
0
0
0
0
0
0
0
0
0
0
0
0
0
0
0
0
0
0
0
0
0
0
0
0
0
0
0
0
0
0
0
0
0
0
0
0
0
0
0
0
0
0
0
0
0
0
0
0
0
0
0
0
0
0
0
0
0
0
0
0
0
0
0
0
0
0
0
0
0
0
0
0
0
0
0
0
0
0
0
0
0
0
0
0
0
0
0
0
0
0
0
0
0
0
0
0
0
0
0
0
0
0
0
0
0
0
0
0
0
0
0
0
0
0
0
0
0
0
0
0
0
0
0
0
0
0
0
0
0
0
0
0
0
0
0
0
0
0
0
0
0
0
0
0
0
0
0
0
0
0
0
0
0
0
0
0
0
0
0
0
0
0
0
0
0
0
0
0
0
0
0
0
0
0
0
0
0
0
0
0
0
0
0
0
0
0
0
0
0
0
0
0
0
0
0
0
0
0
0
0
0
0
0
0
0
0
0
0
0
0
0
0
0
0
0
0
0
0
0
0
0
0
0
0
0
0
0
0
0
0
0
0
0
0
0
0
0
0
0
0
0
0
0
0
0
0
0
0
0
0
0
0
0
0
0
0
0
0
0
0
0
0
0
0
0
0
0
0
0
0
0
0
0
0
0
0
0
0
0
0
0
0
0
0
0
0
0
0
0
0
0
0
0
0
0
0
0
0
0
0
0
0
0
0
0
0
0
0
0
0
0
0
0
0
0
0
0
0
0
0
0
0
0
0
0
0
0
0
0
0
0
0
0
0
0
0
0
0
0
0
0
0
0
0
0
0
0
0
0
0
0
0
0
0
0
0
0
0
0
0
0
0
0
0
0
0
0
0
0
0
0
0
0
0
0
0
0
0
0
0
0
0
0
0
0
0
0
0
0
0
0
0
0
0
0
0
0
0
0
0
0
0
0
0
0
0
0
0
0
0
0
0
0
0
0
0
0
0
0
0
0
0
0
0
0
0
0
0
0
0
0
0
0
0
0
0
0
0
0
0
0
0
0
0
0
0
0
0
0
0
0
0
0
0
0
0
0
0
0
0
0
0
0
0
0
0
0
0
0
0
0
0
0
0
0
0
0
0
0
0
0
0
0
0
0
0
0
0
0
0
0
0
0
0
0
0
0
0
0
0
0
0
0
0
0
0
0
0
0
0
0
0
0
0
0
0
0
0
0
0
0
0
0
0
0
0
0
0
0
0
0
0
0
0
0
0
0
0
0
0
0
0
0
0
0
0
0
0
0
0
0
0
0
0
0
0
0
0
0
0
0
0
0
0
0
0
0
0
0
0
0
SCALARS Weight double 1
LOOKUP_TABLE default
0
0.00166667
0.00333333
0.005
0.00666667
0.00833333
0.01
0.0116667
0.0133333
0.015
0.0166667
0.0183333
0.02
0.0216667
0.0233333
0.025
0.0266667
0.0283333
0.03
0.0316667
0.0333333
0.035
0.0366667
0.0383333
0.04
0.0416667
0.0433333
0.045
0.0466667
0.0483333
0.05
0.0516667
0.0533333
0.055
0.0566667
0.0583333
0.06
0.0616667
0.0633333
0.065
0.0666667
0.0683333
0.07
0.0716667
0.0733333
0.075
0.0766667
0.0783333
0.08
0.0816667
0.0833333
0.085
0.0866667
0.0883333
0.09
0.0916667
0.0933333
0.095
0.0966667
0.0983333
0.1
0.101667
0.103333
0.105
0.106667
0.108333
0.11
0.111667
0.113333
0.115
0.116667
0.118333
0.12
0.121667
0.123333
0.125
0.126667
0.128333
0.13
0.131667
0.133333
0.135
0.136667
0.138333
0.14
0.141667
0.143333
0.145
0.146667
0.148333
0.15
0.151667
0.153333
0.155
0.156667
0.158333
0.16
0.161667
0.163333
0.165
0.166667
0.168333
0.17
0.171667
0.173333
0.175
0.176667
0.178333
0.18
0.181667
0.183333
0.185
0.186667
0.188333
0.19
0.191667
0.193333
0.195
0.196667
0.198333
0.2
0.201667
0.203333
0.205
0.206667
0.208333
0.21
0.211667
0.213333
0.215
0.216667
0.218333
0.22
0.221667
0.223333
0.225
0.226667
0.228333
0.23
0.231667
0.233333
0.235
0.236667
0.238333
0.24
0.241667
0.243333
0.245
0.246667
0.248333
0.25
0.251667
0.253333
0.255
0.256667
0.258333
0.26
0.261667
0.263333
0.265
0.266667
0.268333
0.27
0.271667
0.273333
0.275
0.276667
0.278333
0.28
0.281667
0.283333
0.285
0.286667
0.288333
0.29
0.291667
0.293333
0.295
0.296667
0.298333
0.3
0.301667
0.303333
0.305
0.306667
0.308333
0.31
0.311667
0.313333
0.315
0.316667
0.318333
0.32
0.321667
0.323333
0.325
0.326667
0.328333
0.33
0.331667
0.333333
0.335
0.336667
0.338333
0.34
0.341667
0.343333
0.345
0.346667
0.348333
0.35
0.351667
0.353333
0.355
0.356667
0.358333
0.36
0.361667
0.363333
0.365
0.366667
0.368333
0.37
0.371667
0.373333
0.375
0.376667
0.378333
0.38
0.381667
0.383333
0.385
0.386667
0.388333
0.39
0.391667
0.393333
0.395
0.396667
0.398333
0.4
0.401667
0.403333
0.405
0.406667
0.408333
0.41
0.411667
0.413333
0.415
0.416667
0.418333
0.42
0.421667
0.423333
0.425
0.426667
0.428333
0.43
0.431667
0.433333
0.435
0.436667
0.438333
0.44
0.441667
0.443333
0.445
0.446667
0.448333
0.45
0.451667
0.453333
0.455
0.456667
0.458333
0.46
0.461667
0.463333
0.465
0.466667
0.468333
0.47
0.471667
0.473333
0.475
0.476667
0.478333
0.48
0.481667
0.483333
0.485
0.486667
0.488333
0.49
0.491667
0.493333
0.495
0.496667
0.498333
0.5
0.501667
0.503333
0.505
0.506667
0.508333
0.51
0.511667
0.513333
0.515
0.516667
0.518333
0.52
0.521667
0.523333
0.525
0.526667
0.528333
0.53
0.531667
0.533333
0.535
0.536667
0.538333
0.54
0.541667
0.543333
0.545
0.546667
0.548333
0.55
0.551667
0.553333
0.555
0.556667
0.558333
0.56
0.561667
0.563333
0.565
0.566667
0.568333
0.57
0.571667
0.573333
0.575
0.576667
0.578333
0.58
0.581667
0.583333
0.585
0.586667
0.588333
0.59
0.591667
0.593333
0.595
0.596667
0.598333
0.6
0.601667
0.603333
0.605
0.606667
0.608333
0.61
0.611667
0.613333
0.615
0.616667
0.618333
0.62
0.621667
0.623333
0.625
0.626667
0.628333
0.63
0.631667
0.633333
0.635
0.636667
0.638333
0.64
0.641667
0.643333
0.645
0.646667
0.648333
0.65
0.651667
0.653333
0.655
0.656667
0.658333
0.66
0.661667
0.663333
0.665
0.666667
0.668333
0.67
0.671667
0.673333
0.675
0.676667
0.678333
0.68
0.681667
0.683333
0.685
0.686667
0.688333
0.69
0.691667
0.693333
0.695
0.696667
0.698333
0.7
0.701667
0.703333
0.705
0.706667
0.708333
0.71
0.711667
0.713333
0.715
0.716667
0.718333
0.72
0.721667
0.723333
0.725
0.726667
0.728333
0.73
0.731667
0.733333
0.735
0.736667
0.738333
0.74
0.741667
0.743333
0.745
0.746667
0.748333
0.75
0.751667
0.753333
0.755
0.756667
0.758333
0.76
0.761667
0.763333
0.765
0.766667
0.768333
0.77
0.771667
0.773333
0.775
0.776667
0.778333
0.78
0.781667
0.783333
0.785
0.786667
0.788333
0.79
0.791667
0.793333
0.795
0.796667
0.798333
0.8
0.801667
0.803333
0.805
0.806667
0.808333
0.81
0.811667
0.813333
0.815
0.816667
0.818333
0.82
0.821667
0.823333
0.825
0.826667
0.828333
0.83
0.831667
0.833333
0.835
0.836667
0.838333
0.84
0.841667
0.843333
0.845
0.846667
0.848333
0.85
0.851667
0.853333
0.855
0.856667
0.858333
0.86
0.861667
0.863333
0.865
0.866667
0.868333
0.87
0.871667
0.873333
0.875
0.876667
0.878333
0.88
0.881667
0.883333
0.885
0.886667
0.888333
0.89
0.891667
0.893333
0.895
0.896667
0.898333
0.9
0.901667
0.903333
0.905
0.906667
0.908333
0.91
0.911667
0.913333
0.915
0.916667
0.918333
0.92
0.921667
0.923333
0.925
0.926667
0.928333
0.93
0.931667
0.933333
0.935
0.936667
0.938333
0.94
0.941667
0.943333
0.945
0.946667
0.948333
0.95
0.951667
0.953333
0.955
0.956667
0.958333
0.96
0.961667
0.963333
0.965
0.966667
0.968333
0.97
0.971667
0.973333
0.975
0.976667
0.978333
0.98
0.981667
0.983333
0.985
0.986667
0.988333
0.99
0.991667
0.993333
0.995
0.996667
0.998333
1
1.00167
1.00333
1.005
1.00667
1.00833
1.01
1.01167
1.01333
1.015
1.01667
1.01833
1.02
1.02167
1.02333
1.025
1.02667
1.02833
1.03
1.03167
1.03333
1.035
1.03667
1.03833
1.04
1.04167
1.04333
1.045
1.04667
1.04833
1.05
1.05167
1.05333
1.055
1.05667
1.05833
1.06
1.06167
1.06333
1.065
1.06667
1.06833
1.07
1.07167
1.07333
1.075
1.07667
1.07833
1.08
1.08167
1.08333
1.085
1.08667
1.08833
1.09
1.09167
1.09333
1.095
1.09667
1.09833
1.1
1.10167
1.10333
1.105
1.10667
1.10833
1.11
1.11167
1.11333
1.115
1.11667
1.11833
1.12
1.12167
1.12333
1.125
1.12667
1.12833
1.13
1.13167
1.13333
1.135
1.13667
1.13833
1.14
1.14167
1.14333
1.145
1.14667
1.14833
1.15
1.15167
1.15333
1.155
1.15667
1.15833
1.16
1.16167
1.16333
1.165
1.16667
1.16833
1.17
1.17167
1.17333
1.175
1.17667
1.17833
1.18
1.18167
1.18333
1.185
1.18667
1.18833
1.19
1.19167
1.19333
1.195
1.19667
1.19833
1.2
1.20167
1.20333
1.205
1.20667
1.20833
1.21
1.21167
1.21333
1.215
1.21667
1.21833
1.22
1.22167
1.22333
1.225
1.22667
1.22833
1.23
1.23167
1.23333
1.235
1.23667
1.23833
1.24
1.24167
1.24333
1.245
1.24667
1.24833
1.25
1.25167
1.25333
1.255
1.25667
1.25833
1.26
1.26167
1.26333
1.265
1.26667
1.26833
1.27
1.27167
1.27333
1.275
1.27667
1.27833
1.28
1.28167
1.28333
1.285
1.28667
1.28833
1.29
1.29167
1.29333
1.295
1.29667
1.29833
1.3
1.30167
1.30333
1.305
1.30667
1.30833
1.31
1.31167
1.31333
1.315
1.31667
1.31833
1.32
1.32167
1.32333
1.325
1.32667
1.32833
1.33
1.33167
1.33333
1.335
1.33667
1.33833
1.34
1.34167
1.34333
1.345
1.34667
1.34833
1.35
1.35167
1.35333
1.355
1.35667
1.35833
1.36
1.36167
1.36333
1.365
1.36667
1.36833
1.37
1.37167
1.37333
1.375
1.37667
1.37833
1.38
1.38167
1.38333
1.385
1.38667
1.38833
1.39
1.39167
1.39333
1.395
1.39667
1.39833
1.4
1.40167
1.40333
1.405
1.40667
1.40833
1.41
1.41167
1.41333
1.415
1.41667
1.41833
1.42
1.42167
1.42333
1.425
1.42667
1.42833
1.43
1.43167
1.43333
1.435
1.43667
1.43833
1.44
1.44167
1.44333
1.445
1.44667
1.44833
1.45
1.45167
1.45333
1.455
1.45667
1.45833
1.46
1.46167
1.46333
1.465
1.46667
1.46833
1.47
1.47167
1.47333
1.475
1.47667
1.47833
1.48
1.48167
1.48333
1.485
1.48667
1.48833
1.49
1.49167
1.49333
1.495
1.49667
1.49833
1.5
1.50167
1.50333
1.505
1.50667
1.50833
1.51
1.51167
1.51333
1.515
1.51667
1.51833
1.52
1.52167
1.52333
1.525
1.52667
1.52833
1.53
1.53167
1.53333
1.535
1.53667
1.53833
1.54
1.54167
1.54333
1.545
1.54667
1.54833
1.55
1.55167
1.55333
1.555
1.55667
1.55833
1.56
1.56167
1.56333
1.565
1.56667
1.56833
1.57
1.57167
1.57333
1.575
1.57667
1.57833
1.58
1.58167
1.58333
1.585
1.58667
1.58833
1.59
1.59167
1.59333
1.595
1.59667
1.59833
1.6
1.60167
1.60333
1.605
1.60667
1.60833
1.61
1.61167
1.61333
1.615
1.61667
1.61833
1.62
1.62167
1.62333
1.625
1.62667
1.62833
1.63
1.63167
1.63333
1.635
1.63667
1.63833
1.64
1.64167
1.64333
1.645
1.64667
1.64833
1.65
1.65167
1.65333
1.655
1.65667
1.65833
1.66
1.66167
1.66333
1.665
1.66667
1.66833
1.67
1.67167
1.67333
1.675
1.67667
1.67833
1.68
1.68167
1.68333
1.685
1.68667
1.68833
1.69
1.69167
1.69333
1.695
1.69667
1.69833
1.7
1.70167
1.70333
1.705
1.70667
1.70833
1.71
1.71167
1.71333
1.715
1.71667
1.71833
1.72
1.72167
1.72333
1.725
1.72667
1.72833
1.73
1.73167
1.73333
1.735
1.73667
1.73833
1.74
1.74167
1.74333
1.745
1.74667
1.74833
1.75
1.75167
1.75333
1.755
1.75667
1.75833
1.76
1.76167
1.76333
1.765
1.76667
1.76833
1.77
1.77167
1.77333
1.775
1.77667
1.77833
1.78
1.78167
1.78333
1.785
1.78667
1.78833
1.79
1.79167
1.79333
1.795
1.79667
1.79833
1.8
1.80167
1.80333
1.805
1.80667
1.80833
1.81
1.81167
1.81333
1.815
1.81667
1.81833
1.82
1.82167
1.82333
1.825
1.82667
1.82833
1.83
1.83167
1.83333
1.835
1.83667
1.83833
1.84
1.84167
1.84333
1.845
1.84667
1.84833
1.85
1.85167
1.85333
1.855
1.85667
1.85833
1.86
1.86167
1.86333
1.865
1.86667
1.86833
1.87
1.87167
1.87333
1.875
1.87667
1.87833
1.88
1.88167
1.88333
1.885
1.88667
1.88833
1.89
1.89167
1.89333
1.895
1.89667
1.89833
1.9
1.90167
1.90333
1.905
1.90667
1.90833
1.91
1.91167
1.91333
1.915
1.91667
1.91833
1.92
1.92167
1.92333
1.925
1.92667
1.92833
1.93
1.93167
1.93333
1.935
1.93667
1.93833
1.94
1.94167
1.94333
1.945
1.94667
1.94833
1.95
1.95167
1.95333
1.955
1.95667
1.95833
1.96
1.96167
1.96333
1.965
1.96667
1.96833
1.97
1.97167
1.97333
1.975
1.97667
1.97833
1.98
1.98167
1.98333
1.985
1.98667
1.98833
1.99
1.99167
1.99333
1.995
1.99667
1.99833
2
2.00167
2.00333
2.005
2.00667
2.00833
2.01
2.01167
2.01333
2.015
2.01667
2.01833
2.02
2.02167
2.02333
2.025
2.02667
2.02833
2.03
2.03167
2.03333
2.035
2.03667
2.03833
2.04
2.04167
2.04333
2.045
2.04667
2.04833
2.05
2.05167
2.05333
2.055
2.05667
2.05833
2.06
2.06167
2.06333
2.065
2.06667
2.06833
2.07
2.07167
2.07333
2.075
2.07667
2.07833
2.08
2.08167
2.08333
2.085
2.08667
2.08833
2.09
2.09167
2.09333
2.095
2.09667
2.09833
2.1
2.10167
2.10333
2.105
2.10667
2.10833
2.11
2.11167
2.11333
2.115
2.11667
2.11833
2.12
302.12
SCALARS Branch_id int 1
LOOKUP_TABLE default
0
0
0
0
0
0
0
0
0
0
0
0
0
0
0
0
0
0
0
0
0
0
0
0
0
0
0
0
0
0
0
0
0
0
0
0
0
0
0
0
0
0
0
0
0
0
0
0
0
0
0
0
0
0
0
0
0
0
0
0
0
0
0
0
0
0
0
0
0
0
0
0
0
0
0
0
0
0
0
0
0
0
0
0
0
0
0
0
0
0
0
0
0
0
0
0
0
0
0
0
0
0
0
0
0
0
0
0
0
0
0
0
0
0
0
0
0
0
0
0
0
0
0
0
0
0
0
0
0
0
0
0
0
0
0
0
0
0
0
0
0
0
0
0
0
0
0
0
0
0
0
0
0
0
0
0
0
0
0
0
0
0
0
0
0
0
0
0
0
0
0
0
0
0
0
0
0
0
0
0
0
0
0
0
0
0
0
0
0
0
0
0
0
0
0
0
0
0
0
0
0
0
0
0
0
0
0
0
0
0
0
0
0
0
0
0
0
0
0
0
0
0
0
0
0
0
0
0
0
0
0
0
0
0
0
0
0
0
0
0
0
0
0
0
0
0
0
0
0
0
0
0
0
0
0
0
0
0
0
0
0
0
0
0
0
0
0
0
0
0
0
0
0
0
0
0
0
0
0
0
0
0
0
0
0
0
0
0
0
0
0
0
0
0
0
0
0
0
0
0
0
0
0
0
0
0
0
0
0
0
0
0
0
0
0
0
0
0
0
0
0
0
0
0
0
0
0
0
0
0
0
0
0
0
0
0
0
0
0
0
0
0
0
0
0
0
0
0
0
0
0
0
0
0
0
0
0
0
0
0
0
0
0
0
0
0
0
0
0
0
0
0
0
0
0
0
0
0
0
0
0
0
0
0
0
0
0
0
0
0
0
0
0
0
0
0
0
0
0
0
0
0
0
0
0
0
0
0
0
0
0
0
0
0
0
0
0
0
0
0
0
0
0
0
0
0
0
0
0
0
0
0
0
0
0
0
0
0
0
0
0
0
0
0
0
0
0
0
0
0
0
0
0
0
0
0
0
0
0
0
0
0
0
0
0
0
0
0
0
0
0
0
0
0
0
0
0
0
0
0
0
0
0
0
0
0
0
0
0
0
0
0
0
0
0
0
0
0
0
0
0
0
0
0
0
0
0
0
0
0
0
0
0
0
0
0
0
0
0
0
0
0
0
0
0
0
0
0
0
0
0
0
0
0
0
0
0
0
0
0
0
0
0
0
0
0
0
0
0
0
0
0
0
0
0
0
0
0
0
0
0
0
0
0
0
0
0
0
0
0
0
0
0
0
0
0
0
0
0
0
0
0
0
0
0
0
0
0
0
0
0
0
0
0
0
0
0
0
0
0
0
0
0
0
0
0
0
0
0
0
0
0
0
0
0
0
0
0
0
0
0
0
0
0
0
0
0
0
0
0
0
0
0
0
0
0
0
0
0
0
0
0
0
0
0
0
0
0
0
0
0
0
0
0
0
0
0
0
0
0
0
0
0
0
0
0
0
0
0
0
0
0
0
0
0
0
0
0
0
0
0
0
0
0
0
0
0
0
0
0
0
0
0
0
0
0
0
0
0
0
0
0
0
0
0
0
0
0
0
0
0
0
0
0
0
0
0
0
0
0
0
0
0
0
0
0
0
0
0
0
0
0
0
0
0
0
0
0
0
0
0
0
0
0
0
0
0
0
0
0
0
0
0
0
0
0
0
0
0
0
0
0
0
0
0
0
0
0
0
0
0
0
0
0
0
0
0
0
0
0
0
0
0
0
0
0
0
0
0
0
0
0
0
0
0
0
0
0
0
0
0
0
0
0
0
0
0
0
0
0
0
0
0
0
0
0
0
0
0
0
0
0
0
0
0
0
0
0
0
0
0
0
0
0
0
0
0
0
0
0
0
0
0
0
0
0
0
0
0
0
0
0
0
0
0
0
0
0
0
0
0
0
0
0
0
0
0
0
0
0
0
0
0
0
0
0
0
0
0
0
0
0
0
0
0
0
0
0
0
0
0
0
0
0
0
0
0
0
0
0
0
0
0
0
0
0
0
0
0
0
0
0
0
0
0
0
0
0
0
0
0
0
0
0
0
0
0
0
0
0
0
0
0
0
0
0
0
0
0
0
0
0
0
0
0
0
0
0
0
0
0
0
0
0
0
0
0
0
0
0
0
0
0
0
0
0
0
0
0
0
0
0
0
0
0
0
0
0
0
0
0
0
0
0
0
0
0
0
0
0
0
0
0
0
0
0
0
0
0
0
0
0
0
0
0
0
0
0
0
0
0
0
0
0
0
0
0
0
0
0
0
0
0
0
0
0
0
0
0
0
0
0
0
0
0
0
0
0
0
0
0
0
0
0
0
0
0
0
0
0
0
0
0
0
0
0
0
0
0
0
0
0
0
0
0
0
0
0
0
0
0
0
0
0
0
0
0
0
0
0
0
0
0
0
0
0
0
0
0
0
0
0
0
0
0
0
0
0
0
0
0
0
0
0
0
0
0
0
0
0
0
0
0
0
0
0
0
0
0
0
0
0
0
0
0
0
0
0
0
0
0
0
0
0
0
0
0
0
0
0
0
0
0
0
0
0
0
0
0
0
0
0
0
0
0
0
0
0
0
0
0
0
0
0
0
0
0
0
0
0
0
0
0
0
0
0
0
0
0
0
0
0
0
0
0
0
0
0
0
0
0
0
0
0
0
0
0
0
0
0
0
0
0
0
0
0
0
0
0
0
0
0
0
0
0
0
0
0
0
0
0
0
0
0
0
0
0
0
0
0
0
0
0
0
0
0
0
0
0
0
0
0
0
0
0
0
0
0
0
0
0
0
0
0
0
0
0
0
0
0
0
0
0
0
0
0
0
0
0
0
0
0
0
0
